<svg width="12" height="12" viewBox="0 0 12 12" fill="none" xmlns="http://www.w3.org/2000/svg">
<path fill-rule="evenodd" clip-rule="evenodd" d="M6 9.5C7.933 9.5 9.5 7.933 9.5 6C9.5 4.067 7.933 2.5 6 2.5C4.067 2.5 2.5 4.067 2.5 6C2.5 7.933 4.067 9.5 6 9.5ZM6 10C8.20914 10 10 8.20914 10 6C10 3.79086 8.20914 2 6 2C3.79086 2 2 3.79086 2 6C2 8.20914 3.79086 10 6 10ZM4 6C4 5.86193 4.11193 5.75 4.25 5.75L5.75 5.75V4.25C5.75 4.11193 5.86193 4 6 4C6.13807 4 6.25 4.11193 6.25 4.25V5.75L7.75 5.75C7.88807 5.75 8 5.86193 8 6C8 6.13807 7.88807 6.25 7.75 6.25H6.25V7.75C6.25 7.88807 6.13807 8 6 8C5.86193 8 5.75 7.88807 5.75 7.75V6.25H4.25C4.11193 6.25 4 6.13807 4 6Z" fill="#FCFCFC"/>
</svg>
