<svg width="12" height="13" viewBox="0 0 12 13" fill="none" xmlns="http://www.w3.org/2000/svg">
<path d="M9.87657 2.4269C9.9742 2.32927 9.9742 2.17098 9.87657 2.07335C9.77894 1.97571 9.62065 1.97571 9.52301 2.07335L5.94981 5.64655L2.3766 2.07335C2.27897 1.97572 2.12068 1.97572 2.02305 2.07335C1.92542 2.17098 1.92542 2.32927 2.02305 2.42691L5.59625 6.00011L2.02061 9.57575C1.92298 9.67338 1.92298 9.83167 2.02061 9.9293C2.11824 10.0269 2.27653 10.0269 2.37416 9.9293L5.94981 6.35366L9.52545 9.92931C9.62309 10.0269 9.78138 10.0269 9.87901 9.92931C9.97664 9.83168 9.97664 9.67339 9.87901 9.57576L6.30336 6.00011L9.87657 2.4269Z" fill="#FCFCFC"/>
</svg>
