<svg width="12" height="12" viewBox="0 0 12 12" fill="none" xmlns="http://www.w3.org/2000/svg">
<path d="M6 6.75C5.86193 6.75 5.75 6.63807 5.75 6.5V4.75C5.75 4.61193 5.86193 4.5 6 4.5C6.13807 4.5 6.25 4.61193 6.25 4.75V6.5C6.25 6.63807 6.13807 6.75 6 6.75Z" fill="#FCFCFC"/>
<path d="M5.5 7.75C5.5 7.47386 5.72386 7.25 6 7.25C6.27614 7.25 6.5 7.47386 6.5 7.75C6.5 8.02614 6.27614 8.25 6 8.25C5.72386 8.25 5.5 8.02614 5.5 7.75Z" fill="#FCFCFC"/>
<path fill-rule="evenodd" clip-rule="evenodd" d="M9.87603 8.16417L6.77455 2.93836C6.42766 2.35388 5.57226 2.35388 5.22538 2.93836L2.12389 8.16417C1.76058 8.77632 2.229 9.5 2.89848 9.5H9.10145C9.77092 9.5 10.2393 8.77632 9.87603 8.16417ZM5.65535 3.19355C5.80851 2.93548 6.19141 2.93548 6.34457 3.19355L9.44606 8.41935C9.59922 8.67742 9.40777 9 9.10145 9H2.89848C2.59216 9 2.40071 8.67742 2.55387 8.41935L5.65535 3.19355Z" fill="#FCFCFC"/>
</svg>
