<svg width="12" height="12" viewBox="0 0 12 12" fill="none" xmlns="http://www.w3.org/2000/svg">
<path fill-rule="evenodd" clip-rule="evenodd" d="M2 2.65C2 2.29101 2.29101 2 2.65 2H9.35C9.70899 2 10 2.29101 10 2.65V6.1C10 6.45899 9.70899 6.75 9.35 6.75H7.25C7.11193 6.75 7 6.63807 7 6.5C7 6.36193 7.11193 6.25 7.25 6.25H9.35C9.43284 6.25 9.5 6.18284 9.5 6.1V2.65C9.5 2.56716 9.43284 2.5 9.35 2.5H2.65C2.56716 2.5 2.5 2.56716 2.5 2.65V6.1C2.5 6.18284 2.56716 6.25 2.65 6.25H4.75C4.88807 6.25 5 6.36193 5 6.5C5 6.63807 4.88807 6.75 4.75 6.75H2.65C2.29101 6.75 2 6.45898 2 6.1V2.65Z" fill="#FCFCFC"/>
<path fill-rule="evenodd" clip-rule="evenodd" d="M6.00158 4.5C6.13965 4.5 6.25158 4.61193 6.25158 4.75V9.07902L7.3289 8.06773C7.42957 7.97323 7.58778 7.97823 7.68228 8.0789C7.77677 8.17956 7.77177 8.33778 7.6711 8.43227L6.00175 9.99931L4.32909 8.43245C4.22832 8.33806 4.22316 8.17985 4.31755 8.07909C4.41194 7.97832 4.57015 7.97315 4.67091 8.06755L5.75158 9.07985V4.75C5.75158 4.61193 5.8635 4.5 6.00158 4.5Z" fill="#FCFCFC"/>
</svg>
