<svg width="12" height="12" viewBox="0 0 12 12" fill="none" xmlns="http://www.w3.org/2000/svg">
<path fill-rule="evenodd" clip-rule="evenodd" d="M5.25 2.65C5.25 2.29101 5.54101 2 5.9 2H9.35C9.70899 2 10 2.29102 10 2.65V5.85C10 6.20899 9.70899 6.5 9.35 6.5H8.65C8.56716 6.5 8.5 6.56716 8.5 6.65V9.35C8.5 9.70899 8.20899 10 7.85 10H2.65C2.29101 10 2 9.70899 2 9.35V4.15C2 3.79102 2.29101 3.5 2.65 3.5H4.5C4.63807 3.5 4.75 3.61193 4.75 3.75C4.75 3.88807 4.63807 4 4.5 4H2.65C2.56716 4 2.5 4.06716 2.5 4.15V9.35C2.5 9.43284 2.56716 9.5 2.65 9.5H7.85C7.93284 9.5 8 9.43284 8 9.35V6.65C8 6.29102 8.29101 6 8.65 6H9.35C9.43284 6 9.5 5.93284 9.5 5.85V2.65C9.5 2.56716 9.43284 2.5 9.35 2.5H5.9C5.81716 2.5 5.75 2.56716 5.75 2.65V3.35C5.75 3.43284 5.81716 3.5 5.9 3.5H7.85C8.20898 3.5 8.5 3.79101 8.5 4.15V5.01316C8.5 5.15123 8.38807 5.26316 8.25 5.26316C8.11193 5.26316 8 5.15123 8 5.01316V4.15C8 4.06716 7.93284 4 7.85 4H5.9C5.54101 4 5.25 3.70899 5.25 3.35V2.65Z" fill="#FCFCFC"/>
</svg>
