<svg width="12" height="12" viewBox="0 0 12 12" fill="none" xmlns="http://www.w3.org/2000/svg">
<path fill-rule="evenodd" clip-rule="evenodd" d="M3.25 2C3.85474 2 4.35918 2.42944 4.475 3L9.75 3C9.88807 3 10 3.11193 10 3.25C10 3.38807 9.88807 3.5 9.75 3.5L4.475 3.5C4.35918 4.07056 3.85474 4.5 3.25 4.5C2.55964 4.5 2 3.94036 2 3.25C2 2.55964 2.55964 2 3.25 2ZM3.25 2.5C2.83579 2.5 2.5 2.83579 2.5 3.25C2.5 3.66421 2.83579 4 3.25 4C3.66421 4 4 3.66421 4 3.25C4 2.83579 3.66421 2.5 3.25 2.5Z" fill="#FCFCFC"/>
<path fill-rule="evenodd" clip-rule="evenodd" d="M8.75 4.75C8.14526 4.75 7.64082 5.17944 7.525 5.75L2.25 5.75C2.11193 5.75 2 5.86193 2 6C2 6.13807 2.11193 6.25 2.25 6.25L7.525 6.25C7.64082 6.82056 8.14526 7.25 8.75 7.25C9.44036 7.25 10 6.69036 10 6C10 5.30964 9.44036 4.75 8.75 4.75ZM8 6C8 5.58579 8.33579 5.25 8.75 5.25C9.16421 5.25 9.5 5.58579 9.5 6C9.5 6.41421 9.16421 6.75 8.75 6.75C8.33579 6.75 8 6.41421 8 6Z" fill="#FCFCFC"/>
<path fill-rule="evenodd" clip-rule="evenodd" d="M2.25 8.5C2.11193 8.5 2 8.61193 2 8.75C2 8.88807 2.11193 9 2.25 9H4.25C4.25836 9 4.26661 8.99959 4.27476 8.99879C4.39011 9.56995 4.89483 10 5.5 10C6.10474 10 6.60918 9.57056 6.725 9H9.75C9.88807 9 10 8.88807 10 8.75C10 8.61193 9.88807 8.5 9.75 8.5H6.725C6.60918 7.92944 6.10474 7.5 5.5 7.5C4.89483 7.5 4.39011 7.93005 4.27476 8.50121C4.26661 8.50041 4.25836 8.5 4.25 8.5H2.25ZM6.25 8.75C6.25 8.33579 5.91421 8 5.5 8C5.08579 8 4.75 8.33579 4.75 8.75C4.75 9.16421 5.08579 9.5 5.5 9.5C5.91421 9.5 6.25 9.16421 6.25 8.75Z" fill="#FCFCFC"/>
</svg>
