<svg width="12" height="12" viewBox="0 0 12 12" fill="none" xmlns="http://www.w3.org/2000/svg">
<path fill-rule="evenodd" clip-rule="evenodd" d="M2.75 2.25C2.75 2.11193 2.86193 2 3 2H9C9.13807 2 9.25 2.11193 9.25 2.25C9.25 2.38807 9.13807 2.5 9 2.5H3C2.86193 2.5 2.75 2.38807 2.75 2.25ZM2.75 4.1C2.75 3.63056 3.13056 3.25 3.6 3.25H8.4C8.86944 3.25 9.25 3.63056 9.25 4.1V9.15C9.25 9.61944 8.86944 10 8.4 10H3.6C3.13056 10 2.75 9.61944 2.75 9.15V4.1ZM3.6 3.75C3.4067 3.75 3.25 3.9067 3.25 4.1V9.15C3.25 9.3433 3.4067 9.5 3.6 9.5H8.4C8.5933 9.5 8.75 9.3433 8.75 9.15V4.1C8.75 3.9067 8.5933 3.75 8.4 3.75H3.6ZM4.5 4.75C4.63807 4.75 4.75 4.86193 4.75 5L4.75 8.25C4.75 8.38807 4.63807 8.5 4.5 8.5C4.36193 8.5 4.25 8.38807 4.25 8.25L4.25 5C4.25 4.86193 4.36193 4.75 4.5 4.75ZM6 4.75C6.13807 4.75 6.25 4.86193 6.25 5L6.25 8.25C6.25 8.38807 6.13807 8.5 6 8.5C5.86193 8.5 5.75 8.38807 5.75 8.25L5.75 5C5.75 4.86193 5.86193 4.75 6 4.75ZM7.5 4.75C7.63807 4.75 7.75 4.86193 7.75 5V8.25C7.75 8.38807 7.63807 8.5 7.5 8.5C7.36193 8.5 7.25 8.38807 7.25 8.25V5C7.25 4.86193 7.36193 4.75 7.5 4.75Z" fill="#FCFCFC"/>
</svg>
