<svg width="12" height="12" viewBox="0 0 12 12" fill="none" xmlns="http://www.w3.org/2000/svg">
<path fill-rule="evenodd" clip-rule="evenodd" d="M2.6495 2.49961C2.56672 2.49961 2.49961 2.56672 2.49961 2.6495V6.59449C2.49961 6.63117 2.51307 6.66658 2.53742 6.69401L4.98553 9.45096C5.07707 9.55404 5.24749 9.4893 5.24749 9.35144V7.14603C5.24749 7.06325 5.18039 6.99614 5.09761 6.99614H3.74865C3.61069 6.99614 3.49884 6.8843 3.49884 6.74634C3.49884 6.60837 3.61069 6.49653 3.74865 6.49653H5.09761C5.45632 6.49653 5.74711 6.78732 5.74711 7.14603V9.35144C5.74711 9.94883 5.0086 10.2294 4.61195 9.7827L2.16384 7.02575C2.05829 6.90689 2 6.75345 2 6.59449V2.6495C2 2.29079 2.29079 2 2.6495 2H9.3505C9.70921 2 10 2.29079 10 2.6495V9.34433C10 9.70304 9.70921 9.99383 9.3505 9.99383H6.99614C6.85818 9.99383 6.74634 9.88199 6.74634 9.74402C6.74634 9.60606 6.85818 9.49422 6.99614 9.49422H9.3505C9.43328 9.49422 9.50039 9.42711 9.50039 9.34433V2.6495C9.50039 2.56672 9.43328 2.49961 9.3505 2.49961H2.6495Z" fill="#FCFCFC"/>
</svg>
