<svg width="12" height="12" viewBox="0 0 12 12" fill="none" xmlns="http://www.w3.org/2000/svg">
<path d="M2.75 9.75C2.75 9.88807 2.86193 10 3 10C3.13807 10 3.25 9.88807 3.25 9.75H2.75ZM3 2.47435L2.94457 2.23057C2.83076 2.25645 2.75 2.35763 2.75 2.47435H3ZM9 2.47435H9.25C9.25 2.39116 9.20862 2.31342 9.13962 2.26697C9.07062 2.22051 8.98302 2.21142 8.90595 2.24271L9 2.47435ZM9 5.34052L9.09404 5.57216C9.18833 5.53388 9.25 5.44228 9.25 5.34052H9ZM4.73077 2.25389L4.74696 2.00442L4.73077 2.25389ZM7.98077 2.69484L8.00348 2.9438L7.98077 2.69484ZM6.23077 2.69484L6.17872 2.93936L6.23077 2.69484ZM6.23077 5.561L6.17872 5.80552L6.23077 5.561ZM4.73077 5.12005L4.70639 4.87124H4.70639L4.73077 5.12005ZM3.62934 5.09859C3.49572 5.13336 3.41559 5.26987 3.45037 5.40349C3.48514 5.53711 3.62165 5.61724 3.75527 5.58247L3.62934 5.09859ZM7.98077 5.561L7.95806 5.31203L7.98077 5.561ZM3.25 9.75V2.47435H2.75V9.75H3.25ZM8.75 2.47435V5.34052H9.25V2.47435H8.75ZM3 2.47435C3.05543 2.71812 3.05542 2.71813 3.05541 2.71813C3.05542 2.71813 3.05541 2.71813 3.05542 2.71813C3.05543 2.71812 3.05546 2.71812 3.0555 2.71811C3.05559 2.71809 3.05576 2.71805 3.05598 2.718C3.05644 2.7179 3.05716 2.71773 3.05815 2.71751C3.06013 2.71706 3.06317 2.71638 3.06721 2.71549C3.07529 2.71369 3.08738 2.71102 3.10308 2.70761C3.13447 2.7008 3.18025 2.69105 3.23713 2.67945C3.35102 2.65621 3.50881 2.62563 3.68448 2.59629C4.04364 2.53629 4.45047 2.48623 4.71458 2.50337L4.74696 2.00442C4.4188 1.98312 3.96025 2.04329 3.60209 2.10312C3.4191 2.13369 3.25525 2.16544 3.13716 2.18954C3.07805 2.20161 3.03025 2.21178 2.99708 2.21898C2.98049 2.22258 2.96754 2.22543 2.95865 2.22741C2.95421 2.2284 2.95078 2.22917 2.94841 2.2297C2.94723 2.22997 2.94632 2.23017 2.94567 2.23032C2.94535 2.23039 2.9451 2.23045 2.94491 2.23049C2.94482 2.23051 2.94474 2.23053 2.94469 2.23054C2.94466 2.23055 2.94463 2.23056 2.94461 2.23056C2.94459 2.23056 2.94457 2.23057 3 2.47435ZM8.00348 2.9438C8.32741 2.91425 8.59659 2.8561 8.78594 2.80492C8.88072 2.7793 8.95581 2.75535 9.00813 2.73743C9.03429 2.72847 9.05479 2.721 9.06923 2.71558C9.07645 2.71287 9.08216 2.71067 9.08632 2.70905C9.08839 2.70824 9.09008 2.70757 9.09137 2.70706C9.09202 2.7068 9.09256 2.70658 9.09301 2.7064C9.09323 2.70631 9.09343 2.70623 9.09361 2.70616C9.09369 2.70613 9.09377 2.70609 9.09385 2.70606C9.09388 2.70605 9.09394 2.70603 9.09395 2.70602C9.094 2.706 9.09405 2.70598 9 2.47435C8.90595 2.24271 8.90599 2.24269 8.90604 2.24268C8.90605 2.24267 8.90609 2.24265 8.90612 2.24264C8.90617 2.24262 8.90621 2.24261 8.90625 2.24259C8.90632 2.24256 8.90637 2.24254 8.9064 2.24253C8.90645 2.24251 8.90641 2.24253 8.90627 2.24258C8.90599 2.24269 8.90533 2.24296 8.90429 2.24336C8.9022 2.24418 8.89861 2.24556 8.89356 2.24746C8.88345 2.25125 8.86751 2.25708 8.84611 2.26441C8.80328 2.27908 8.73873 2.29974 8.65548 2.32224C8.48876 2.3673 8.24832 2.41939 7.95806 2.44587L8.00348 2.9438ZM4.71458 2.50337C4.9839 2.52085 5.18035 2.58812 5.3937 2.67353C5.6069 2.75888 5.85233 2.86988 6.17872 2.93936L6.28282 2.45032C6.00898 2.39203 5.81231 2.30254 5.57952 2.20935C5.34688 2.11621 5.09345 2.02691 4.74696 2.00442L4.71458 2.50337ZM6.17872 2.93936C6.89604 3.09206 7.33462 3.00482 8.00348 2.9438L7.95806 2.44587C7.25354 2.51014 6.90767 2.58333 6.28282 2.45032L6.17872 2.93936ZM6.28282 5.31648C6.01771 5.26005 5.83377 5.15394 5.58952 5.04259C5.34861 4.93276 5.07638 4.83499 4.70639 4.87124L4.75515 5.36886C4.99885 5.34498 5.17651 5.4038 5.38211 5.49754C5.58438 5.58975 5.84359 5.73418 6.17872 5.80552L6.28282 5.31648ZM4.70639 4.87124C4.53408 4.88813 4.25873 4.94725 4.03994 4.99804C3.92761 5.02411 3.82518 5.0492 3.75086 5.06775C3.71367 5.07703 3.68345 5.0847 3.66245 5.09007C3.65195 5.09275 3.64375 5.09486 3.63814 5.09631C3.63533 5.09703 3.63317 5.09759 3.6317 5.09797C3.63096 5.09817 3.63039 5.09831 3.62999 5.09842C3.6298 5.09847 3.62964 5.09851 3.62954 5.09854C3.62948 5.09855 3.62944 5.09856 3.62941 5.09857C3.62939 5.09857 3.62937 5.09858 3.62936 5.09858C3.62935 5.09858 3.62934 5.09859 3.69231 5.34053C3.75527 5.58247 3.75527 5.58247 3.75527 5.58247C3.75527 5.58247 3.75527 5.58247 3.75528 5.58247C3.75529 5.58246 3.75531 5.58246 3.75535 5.58245C3.75542 5.58243 3.75553 5.5824 3.75568 5.58236C3.756 5.58228 3.75648 5.58215 3.75714 5.58198C3.75844 5.58165 3.76043 5.58113 3.76306 5.58045C3.76831 5.5791 3.77613 5.57709 3.78624 5.5745C3.80645 5.56934 3.83578 5.5619 3.87197 5.55286C3.94442 5.53477 4.04407 5.51038 4.153 5.48509C4.37673 5.43316 4.62061 5.38204 4.75515 5.36886L4.70639 4.87124ZM9 5.34052C8.90596 5.10889 8.906 5.10887 8.90605 5.10885C8.90606 5.10884 8.9061 5.10883 8.90612 5.10882C8.90617 5.1088 8.90622 5.10878 8.90626 5.10876C8.90633 5.10873 8.90638 5.10871 8.90641 5.1087C8.90646 5.10868 8.90642 5.1087 8.90628 5.10876C8.906 5.10887 8.90533 5.10913 8.90429 5.10954C8.90221 5.11035 8.89862 5.11174 8.89357 5.11363C8.88346 5.11743 8.86752 5.12325 8.84611 5.13058C8.80329 5.14525 8.73874 5.16591 8.65548 5.18841C8.48876 5.23346 8.24833 5.28555 7.95806 5.31203L8.00348 5.80996C8.32741 5.78041 8.59659 5.72226 8.78593 5.67109C8.88071 5.64547 8.95581 5.62152 9.00812 5.60361C9.03429 5.59464 9.05478 5.58718 9.06922 5.58176C9.07645 5.57905 9.08216 5.57685 9.08631 5.57523C9.08838 5.57442 9.09007 5.57375 9.09136 5.57324C9.09201 5.57298 9.09255 5.57276 9.093 5.57258C9.09322 5.57249 9.09342 5.57241 9.0936 5.57234C9.09368 5.57231 9.09376 5.57227 9.09384 5.57224C9.09388 5.57223 9.09393 5.57221 9.09395 5.5722C9.09399 5.57218 9.09404 5.57216 9 5.34052ZM7.95806 5.31203C7.25354 5.3763 6.90766 5.44949 6.28282 5.31648L6.17872 5.80552C6.89604 5.95822 7.33462 5.87098 8.00348 5.80996L7.95806 5.31203Z" fill="#FCFCFC"/>
</svg>
