<svg width="12" height="12" viewBox="0 0 12 12" fill="none" xmlns="http://www.w3.org/2000/svg">
<path fill-rule="evenodd" clip-rule="evenodd" d="M6.15139 2.00281L6 2L5.84862 2.00281C3.70963 2.08239 2 3.84154 2 6C2 8.15844 3.70962 9.91759 5.8486 9.99718L6 10L6.15141 9.99718C8.29039 9.91758 10 8.15844 10 6C10 3.84155 8.29038 2.0824 6.15139 2.00281ZM5.36469 2.45588C4.22623 2.65859 3.27294 3.39642 2.77421 4.4H4.24175C4.47302 3.65887 4.86091 2.9948 5.36469 2.45588ZM2.4 6C2.4 5.57923 2.47219 5.17533 2.60485 4.8H4.134C4.04638 5.18477 4 5.58679 4 6C4 6.41321 4.04638 6.81523 4.134 7.2H2.60485C2.47219 6.82466 2.4 6.42076 2.4 6ZM2.77421 7.6C3.27294 8.60357 4.22622 9.3414 5.36467 9.54411C4.8609 9.00519 4.47302 8.34112 4.24174 7.6H2.77421ZM4.66246 7.6C4.93356 8.39555 5.40098 9.0859 5.99999 9.6C6.599 9.0859 7.06646 8.39555 7.33756 7.6H4.66246ZM7.75827 7.6C7.527 8.34112 7.13912 9.00519 6.63535 9.54411C7.77379 9.34139 8.72706 8.60357 9.22579 7.6H7.75827ZM9.39515 7.2H7.86601C7.95363 6.81523 8.00001 6.41321 8.00001 6.00001C8.00001 5.58679 7.95363 5.18477 7.86601 4.8H9.39515C9.52781 5.17533 9.6 5.57923 9.6 6C9.6 6.42076 9.52781 6.82466 9.39515 7.2ZM7.45492 7.2H4.5451C4.45049 6.81761 4.4 6.41528 4.4 6C4.4 5.58472 4.45049 5.18239 4.5451 4.8H7.45491C7.54952 5.18239 7.60001 5.58472 7.60001 6.00001C7.60001 6.41528 7.54952 6.81761 7.45492 7.2ZM7.75827 4.4H9.22579C8.72706 3.39642 7.77378 2.65859 6.63533 2.45588C7.1391 2.9948 7.52699 3.65887 7.75827 4.4ZM4.66246 4.4H7.33755C7.06645 3.60444 6.59902 2.91409 6.00001 2.4C5.40099 2.91409 4.93357 3.60444 4.66246 4.4Z" fill="#FCFCFC"/>
</svg>
