<svg width="12" height="12" viewBox="0 0 12 12" fill="none" xmlns="http://www.w3.org/2000/svg">
<path d="M2 2.75C2 2.61193 2.11193 2.5 2.25 2.5H9.75C9.88807 2.5 10 2.61193 10 2.75C10 2.88807 9.88807 3 9.75 3H2.25C2.11193 3 2 2.88807 2 2.75Z" fill="#FCFCFC"/>
<path d="M2 6C2 5.86193 2.11193 5.75 2.25 5.75H9.75C9.88807 5.75 10 5.86193 10 6C10 6.13807 9.88807 6.25 9.75 6.25H2.25C2.11193 6.25 2 6.13807 2 6Z" fill="#FCFCFC"/>
<path d="M2.25 9.00255C2.11193 9.00255 2 9.11448 2 9.25255C2 9.39062 2.11193 9.50255 2.25 9.50255H9.75C9.88807 9.50255 10 9.39062 10 9.25255C10 9.11448 9.88807 9.00255 9.75 9.00255H2.25Z" fill="#FCFCFC"/>
</svg>
