<svg width="12" height="12" viewBox="0 0 12 12" fill="none" xmlns="http://www.w3.org/2000/svg">
<path fill-rule="evenodd" clip-rule="evenodd" d="M8.8 4.59989C8.8 5.37309 8.1732 5.99989 7.4 5.99989C6.6268 5.99989 6 5.37309 6 4.59989C6 3.82669 6.6268 3.19989 7.4 3.19989C8.1732 3.19989 8.8 3.82669 8.8 4.59989ZM8.3 4.59989C8.3 5.09695 7.89706 5.49989 7.4 5.49989C6.90294 5.49989 6.5 5.09695 6.5 4.59989C6.5 4.10283 6.90294 3.69989 7.4 3.69989C7.89706 3.69989 8.3 4.10283 8.3 4.59989Z" fill="#FCFCFC"/>
<path fill-rule="evenodd" clip-rule="evenodd" d="M2 9C2 9.55228 2.44772 10 3 10H9C9.55228 10 10 9.55228 10 9V3C10 2.44772 9.55228 2 9 2H3C2.44772 2 2 2.44772 2 3V9ZM9 2.5H3C2.72386 2.5 2.5 2.72386 2.5 3V7.52386C3.57279 7.05824 4.75651 6.80011 6.00052 6.80011C7.24413 6.80011 8.42748 7.05807 9.5 7.52341V3C9.5 2.72386 9.27614 2.5 9 2.5ZM9.5 9V8.07172C8.43661 7.57658 7.25085 7.30011 6.00052 7.30011C4.74978 7.30011 3.56366 7.57676 2.5 8.07221V9C2.5 9.27614 2.72386 9.5 3 9.5H9C9.27614 9.5 9.5 9.27614 9.5 9Z" fill="#FCFCFC"/>
</svg>
