<svg width="12" height="12" viewBox="0 0 12 12" fill="none" xmlns="http://www.w3.org/2000/svg">
<path d="M2.38129 4.11548C2.33458 4.01539 2.21558 3.9721 2.11548 4.0188C2.01539 4.06551 1.9721 4.18451 2.01881 4.28461C2.28658 4.85851 2.67821 5.36444 3.15983 5.76924L2.27016 6.52898C2.18617 6.60071 2.17623 6.72695 2.24796 6.81094C2.31969 6.89494 2.44593 6.90488 2.52992 6.83315L3.48494 6.0176C3.89111 6.29891 4.34791 6.51389 4.83911 6.64667L4.49605 7.74008C4.46299 7.84547 4.52162 7.95771 4.62701 7.99077C4.7324 8.02384 4.84464 7.96521 4.87771 7.85982L5.23104 6.73365C5.48072 6.77725 5.73768 6.79999 6 6.79999C6.26615 6.79999 6.52679 6.77658 6.77989 6.73173L7.13144 7.85217C7.1645 7.95755 7.27674 8.01618 7.38213 7.98312C7.48752 7.95005 7.54615 7.83781 7.51309 7.73242L7.17152 6.64378C7.66406 6.50932 8.12182 6.29215 8.52838 6.00833L9.47008 6.8125C9.55407 6.88423 9.68031 6.87429 9.75204 6.79029C9.82377 6.7063 9.81383 6.58006 9.72983 6.50833L8.85234 5.75898C9.32839 5.3559 9.71567 4.85367 9.98119 4.28461C10.0279 4.18451 9.98461 4.06551 9.88452 4.0188C9.78442 3.9721 9.66542 4.01539 9.61871 4.11548C8.98999 5.46297 7.6068 6.39999 6 6.39999C4.3932 6.39999 3.01001 5.46297 2.38129 4.11548Z" fill="#FCFCFC"/>
</svg>
