<svg width="12" height="12" viewBox="0 0 12 12" fill="none" xmlns="http://www.w3.org/2000/svg">
<path fill-rule="evenodd" clip-rule="evenodd" d="M2.19027 7.12904C1.93662 7.38269 1.93662 7.79393 2.19027 8.04758L3.95245 9.80976C4.2061 10.0634 4.61735 10.0634 4.87099 9.80976L9.80979 4.87096C10.0634 4.61731 10.0634 4.20607 9.80979 3.95242L8.04761 2.19024C7.79396 1.93659 7.38272 1.93659 7.12907 2.19024L2.19027 7.12904ZM2.54355 7.6943C2.48502 7.63576 2.48502 7.54086 2.54355 7.48232L3.02584 7.00004L3.69153 7.66573L4.04482 7.31244L3.37913 6.64675L3.94905 6.07683L4.61472 6.74251L4.96801 6.38922L4.30234 5.72354L4.87233 5.15355L6.10324 6.38445L6.45652 6.03116L5.22562 4.80026L5.79568 4.2302L6.46135 4.89588L6.81464 4.54259L6.14897 3.87691L6.71896 3.30692L7.38467 3.97262L7.73796 3.61934L7.07225 2.95363L7.48235 2.54352C7.54089 2.48499 7.63579 2.48499 7.69433 2.54352L9.45651 4.3057C9.51504 4.36424 9.51504 4.45914 9.45651 4.51768L4.51771 9.45648C4.45917 9.51501 4.36427 9.51501 4.30573 9.45648L2.54355 7.6943Z" fill="#FCFCFC"/>
</svg>
