<svg width="12" height="12" viewBox="0 0 12 12" fill="none" xmlns="http://www.w3.org/2000/svg">
<path fill-rule="evenodd" clip-rule="evenodd" d="M7.25 2C7.11193 2 7 2.11193 7 2.25C7 2.38807 7.11193 2.5 7.25 2.5H9.14645L6.07322 5.57322C5.97559 5.67085 5.97559 5.82915 6.07322 5.92678C6.17085 6.02441 6.32915 6.02441 6.42678 5.92678L9.5 2.85355V4.75C9.5 4.88807 9.61193 5 9.75 5C9.88807 5 10 4.88807 10 4.75V2.25V2H9.75H7.25ZM2.5 3.75C2.5 3.61193 2.61193 3.5 2.75 3.5H5.75C5.88807 3.5 6 3.38807 6 3.25C6 3.11193 5.88807 3 5.75 3H2.75C2.33579 3 2 3.33579 2 3.75V9.25C2 9.66421 2.33579 10 2.75 10H8.25C8.66421 10 9 9.66421 9 9.25V6.32893C9 6.19086 8.88807 6.07893 8.75 6.07893C8.61193 6.07893 8.5 6.19086 8.5 6.32893V9.25C8.5 9.38807 8.38807 9.5 8.25 9.5H2.75C2.61193 9.5 2.5 9.38807 2.5 9.25V3.75Z" fill="#FCFCFC"/>
</svg>
