<svg width="12" height="12" viewBox="0 0 12 12" fill="none" xmlns="http://www.w3.org/2000/svg">
<path d="M5.5 5.80162V4.70957M5.5 4.70957V2.92724C5.5 2.7912 5.42762 2.66544 5.30999 2.5971V2.5971C5.20492 2.53605 5.07706 2.52867 4.96566 2.57721L4.93528 2.59045C4.77215 2.66153 4.66667 2.82255 4.66667 3.0005V6.69077C4.66667 6.86722 4.44015 6.93964 4.33779 6.79591L3.7336 5.9476C3.60443 5.76624 3.35295 5.72345 3.17108 5.85189V5.85189C3.0638 5.92765 3 6.0508 3 6.18213V6.2135C3 6.30114 3.02477 6.38699 3.07146 6.46115L4.30224 8.41615C4.63982 8.95237 5.19199 9.3172 5.81764 9.41741L5.91095 9.43235C6.18869 9.47683 6.47298 9.45575 6.74111 9.37078V9.37078C7.49067 9.13325 8 8.43755 8 7.65127V5.42064C8 5.31358 7.96482 5.20949 7.89988 5.12439V5.12439C7.72855 4.89987 7.40306 4.86706 7.19037 5.05288L7.16667 5.07359M5.5 4.70957V4.70957C5.67542 4.40306 6.12331 4.42106 6.27358 4.74066L6.33333 4.86775M6.33333 4.86775V5.98362M6.33333 4.86775V4.86775C6.53319 4.61728 6.92267 4.64726 7.08184 4.92537L7.16667 5.07359M7.16667 5.07359V6.16563" stroke="#FCFCFC" stroke-width="0.5" stroke-linecap="round" stroke-linejoin="round"/>
</svg>
