<svg width="12" height="12" viewBox="0 0 12 12" fill="none" xmlns="http://www.w3.org/2000/svg">
<path fill-rule="evenodd" clip-rule="evenodd" d="M6.44822 2.07322C6.54585 1.97559 6.70415 1.97559 6.80178 2.07322L9.92678 5.19822C10.0244 5.29585 10.0244 5.45415 9.92678 5.55178C9.82915 5.64941 9.67085 5.64941 9.57322 5.55178L9.125 5.10355L6.5625 7.66605V8.47181C6.5625 9.0509 5.86236 9.34091 5.45288 8.93143L4.4375 7.91605L2.42678 9.92678C2.32915 10.0244 2.17085 10.0244 2.07322 9.92678C1.97559 9.82915 1.97559 9.67085 2.07322 9.57322L4.08395 7.5625L3.06857 6.54712C2.65909 6.13764 2.9491 5.4375 3.52819 5.4375H4.33395L6.89645 2.875L6.44822 2.42678C6.35059 2.32915 6.35059 2.17085 6.44822 2.07322ZM7.25 3.22855L4.61428 5.86428C4.56739 5.91116 4.5038 5.9375 4.4375 5.9375H3.52819C3.39455 5.9375 3.32763 6.09907 3.42212 6.19357L5.80643 8.57788C5.90093 8.67238 6.0625 8.60545 6.0625 8.47181V7.5625C6.0625 7.4962 6.08884 7.43261 6.13572 7.38572L8.77145 4.75L7.25 3.22855Z" fill="#FCFCFC"/>
</svg>
