<svg width="12" height="12" viewBox="0 0 12 12" fill="none" xmlns="http://www.w3.org/2000/svg">
<path fill-rule="evenodd" clip-rule="evenodd" d="M6.78036 2.07686C7.66157 2.25215 8.45811 2.71901 9.04162 3.40221C9.62514 4.08542 9.96164 4.94518 9.99691 5.84296C10.0322 6.74075 9.76418 7.62426 9.23607 8.35114L8.91246 8.11603C9.38776 7.46183 9.62897 6.66667 9.59722 5.85867C9.56548 5.05066 9.26262 4.27688 8.73746 3.66199C8.2123 3.04711 7.49542 2.62693 6.70233 2.46918C5.90924 2.31142 5.08613 2.42527 4.36564 2.79238C3.64514 3.15949 3.06923 3.75848 2.73069 4.49283C2.39215 5.22718 2.3107 6.05412 2.49947 6.8404C2.68824 7.62669 3.13623 8.32652 3.77126 8.82714C4.40629 9.32776 5.19137 9.6 6 9.6V10C5.10153 10 4.22921 9.69751 3.52363 9.14127C2.81804 8.58503 2.32027 7.80743 2.11052 6.93378C1.90078 6.06013 1.99127 5.14131 2.36743 4.32536C2.74359 3.50942 3.38349 2.84388 4.18404 2.43598C4.98459 2.02808 5.89915 1.90158 6.78036 2.07686Z" fill="#FCFCFC"/>
<path fill-rule="evenodd" clip-rule="evenodd" d="M5.0929 4.21877C5.49317 4.01483 5.95045 3.95158 6.39106 4.03922C6.83166 4.12686 7.22993 4.36029 7.52169 4.70189C7.81344 5.04349 7.9817 5.47338 7.99933 5.92227C8.01697 6.37116 7.88296 6.81292 7.61891 7.17636L7.2953 6.94124C7.50655 6.65049 7.61375 6.29708 7.59964 5.93797C7.58553 5.57886 7.45093 5.23495 7.21753 4.96167C6.98412 4.68839 6.66551 4.50164 6.31302 4.43153C5.96054 4.36142 5.59471 4.41202 5.27449 4.57518C4.95427 4.73834 4.69831 5.00455 4.54785 5.33093C4.39739 5.65731 4.36119 6.02484 4.44509 6.3743C4.52898 6.72376 4.72809 7.0348 5.01033 7.25729C5.29256 7.47979 5.64149 7.60079 6.00088 7.60079V8.00079C5.55164 8.00079 5.11548 7.84954 4.76269 7.57142C4.40989 7.2933 4.16101 6.9045 4.05614 6.46768C3.95126 6.03085 3.99651 5.57144 4.18459 5.16347C4.37267 4.7555 4.69262 4.42272 5.0929 4.21877Z" fill="#FCFCFC"/>
</svg>
