<svg width="12" height="12" viewBox="0 0 12 12" fill="none" xmlns="http://www.w3.org/2000/svg">
<path fill-rule="evenodd" clip-rule="evenodd" d="M6.2 2.80615V2H5.8V2.80615C4.192 2.90531 2.90531 4.192 2.80615 5.8H2V6.2H2.80615C2.90531 7.808 4.192 9.09469 5.8 9.19385V10H6.2V9.19385C7.808 9.09469 9.09469 7.808 9.19385 6.2H10V5.8H9.19385C9.09469 4.192 7.808 2.90531 6.2 2.80615ZM8.8 6C8.8 4.4536 7.5464 3.2 6 3.2C4.4536 3.2 3.2 4.4536 3.2 6C3.2 7.5464 4.4536 8.8 6 8.8C7.5464 8.8 8.8 7.5464 8.8 6Z" fill="#FCFCFC"/>
</svg>
