<svg width="12" height="12" viewBox="0 0 12 12" fill="none" xmlns="http://www.w3.org/2000/svg">
<path fill-rule="evenodd" clip-rule="evenodd" d="M2.13193 2.01275C2.23573 1.97299 2.3505 2.02931 2.38828 2.13854L2.89582 3.60605C4.76681 2.58791 7.23317 2.58791 9.10416 3.60604L9.6117 2.13854C9.64948 2.02931 9.76425 1.97299 9.86804 2.01275C9.97184 2.05251 10.0254 2.17329 9.98758 2.28252L9.4575 3.81515C9.61776 3.91806 9.77262 4.02914 9.92125 4.14838C10.0091 4.21885 10.026 4.35092 9.95904 4.44336C9.89207 4.5358 9.76657 4.55361 9.67873 4.48314C9.56244 4.38983 9.44195 4.30188 9.31773 4.21928L8.74863 5.86476C8.94845 5.97982 9.13977 6.10902 9.32045 6.25247C9.40862 6.32248 9.42618 6.45446 9.35965 6.54725C9.29313 6.64005 9.16772 6.65852 9.07954 6.58851C8.93097 6.47056 8.77401 6.36282 8.61008 6.26536L8.01049 7.99899C8.19172 8.10402 8.36422 8.22477 8.52538 8.36125C8.61143 8.43413 8.62505 8.56662 8.5558 8.65718C8.48655 8.74774 8.36065 8.76207 8.2746 8.6892C8.14791 8.5819 8.01311 8.48547 7.87184 8.39988L7.36634 9.86146C7.32856 9.97069 7.2138 10.027 7.11 9.98725C7.00621 9.94749 6.95269 9.82671 6.99047 9.71748L7.51151 8.21095C6.57033 7.78809 5.42964 7.78809 4.48847 8.21096L5.00951 9.71748C5.04729 9.82671 4.99377 9.94749 4.88998 9.98725C4.78618 10.027 4.67141 9.97069 4.63364 9.86146L4.12814 8.39989C3.98688 8.48547 3.85208 8.58191 3.72539 8.6892C3.63934 8.76207 3.51344 8.74774 3.44419 8.65718C3.37494 8.56662 3.38856 8.43413 3.47461 8.36125C3.63577 8.22478 3.80826 8.10402 3.98949 7.999L3.3899 6.26537C3.22598 6.36283 3.06902 6.47056 2.92046 6.58851C2.83229 6.65852 2.70688 6.64005 2.64035 6.54725C2.57383 6.45446 2.59138 6.32248 2.67956 6.25247C2.86022 6.10903 3.05154 5.97982 3.25135 5.86477L2.68225 4.2193C2.55804 4.30189 2.43755 4.38984 2.32127 4.48314C2.23343 4.55361 2.10793 4.5358 2.04096 4.44336C1.97399 4.35092 1.99091 4.21885 2.07875 4.14838C2.22737 4.02914 2.38223 3.91807 2.54248 3.81517L2.0124 2.28252C1.97462 2.17329 2.02814 2.05251 2.13193 2.01275ZM7.64849 7.81489L8.25083 6.0733C7.56431 5.74478 6.78423 5.5786 6 5.5786C5.21576 5.5786 4.43568 5.74478 3.74915 6.07331L4.35149 7.8149C5.38243 7.35885 6.61755 7.35884 7.64849 7.81489ZM8.38804 5.6766L8.96615 4.00508C7.19043 3.01616 4.80954 3.01616 3.03384 4.00509L3.61194 5.67661C4.34928 5.32941 5.17666 5.15765 6 5.15765C6.82333 5.15765 7.65071 5.32941 8.38804 5.6766Z" fill="#FCFCFC"/>
</svg>
