<svg width="12" height="12" viewBox="0 0 12 12" fill="none" xmlns="http://www.w3.org/2000/svg">
<path d="M4.2 5.8C4.08954 5.8 4 5.88954 4 6C4 6.11046 4.08954 6.2 4.2 6.2L7.8 6.2C7.91046 6.2 8 6.11046 8 6C8 5.88954 7.91046 5.8 7.8 5.8L4.2 5.8Z" fill="#FCFCFC"/>
<path fill-rule="evenodd" clip-rule="evenodd" d="M10 6C10 8.20914 8.20914 10 6 10C3.79086 10 2 8.20914 2 6C2 3.79086 3.79086 2 6 2C8.20914 2 10 3.79086 10 6ZM9.6 6C9.6 7.98823 7.98823 9.6 6 9.6C4.01177 9.6 2.4 7.98823 2.4 6C2.4 4.01177 4.01177 2.4 6 2.4C7.98823 2.4 9.6 4.01177 9.6 6Z" fill="#FCFCFC"/>
</svg>
