<svg width="12" height="12" viewBox="0 0 12 12" fill="none" xmlns="http://www.w3.org/2000/svg">
<rect x="2.25" y="2.25" width="7.5" height="7.5" rx="0.75" stroke="#FCFCFC" stroke-width="0.5" stroke-linecap="round"/>
<path fill-rule="evenodd" clip-rule="evenodd" d="M10 8.38501C8.79999 7.64898 7.44061 7.23383 6.00042 7.23383C4.55989 7.23383 3.20021 7.64918 2 8.38553V8.98299C3.19412 8.18488 4.56126 7.73383 6.00042 7.73383C7.43924 7.73383 8.80608 8.18467 10 8.98243V8.38501Z" fill="#FCFCFC"/>
<path d="M7.51782 6.5C7.31188 6.5 7.13234 6.46508 6.97921 6.39525C6.82607 6.32542 6.70726 6.22765 6.62277 6.10196C6.54092 5.97626 6.5 5.82821 6.5 5.65782V5.55307C6.5 5.53911 6.50396 5.52793 6.51188 5.51955C6.52244 5.50838 6.53432 5.50279 6.54752 5.50279H6.9C6.9132 5.50279 6.92376 5.50838 6.93168 5.51955C6.94224 5.52793 6.94752 5.53911 6.94752 5.55307V5.63268C6.94752 5.76117 7.00165 5.86872 7.1099 5.95531C7.21815 6.03911 7.36601 6.08101 7.55347 6.08101C7.71452 6.08101 7.83597 6.04469 7.91782 5.97207C7.99967 5.89944 8.04059 5.80587 8.04059 5.69134C8.04059 5.61313 8.01815 5.54749 7.97327 5.49441C7.92838 5.43855 7.8637 5.38827 7.77921 5.34358C7.69736 5.29888 7.57327 5.24302 7.40693 5.17598C7.21947 5.10335 7.06766 5.03492 6.95149 4.97067C6.83531 4.90642 6.73762 4.81983 6.65842 4.71089C6.58185 4.59916 6.54356 4.46089 6.54356 4.29609C6.54356 4.05028 6.62805 3.85615 6.79703 3.71369C6.96601 3.57123 7.19175 3.5 7.47426 3.5C7.67228 3.5 7.84653 3.53631 7.99703 3.60894C8.15016 3.68156 8.26898 3.78352 8.35347 3.9148C8.43795 4.0433 8.4802 4.19274 8.4802 4.36313V4.43436C8.4802 4.44832 8.47492 4.46089 8.46436 4.47207C8.45644 4.48045 8.44587 4.48464 8.43267 4.48464H8.07624C8.06304 4.48464 8.05116 4.48045 8.04059 4.47207C8.03267 4.46089 8.02871 4.44832 8.02871 4.43436V4.38827C8.02871 4.25698 7.97723 4.14665 7.87426 4.05726C7.77393 3.96508 7.63399 3.91899 7.45446 3.91899C7.30924 3.91899 7.19571 3.95112 7.11386 4.01536C7.03465 4.07961 6.99505 4.17039 6.99505 4.28771C6.99505 4.37151 7.01617 4.43994 7.05842 4.49302C7.10066 4.54609 7.16403 4.59497 7.24851 4.63966C7.333 4.68156 7.4637 4.73603 7.64059 4.80307C7.82805 4.87849 7.97723 4.94693 8.08812 5.00838C8.20165 5.06983 8.29802 5.15642 8.37723 5.26816C8.45908 5.37709 8.5 5.51397 8.5 5.67877C8.5 5.93017 8.41155 6.12989 8.23465 6.27793C8.0604 6.42598 7.82145 6.5 7.51782 6.5Z" fill="#FCFCFC"/>
</svg>
