<svg width="12" height="12" viewBox="0 0 12 12" fill="none" xmlns="http://www.w3.org/2000/svg">
<path fill-rule="evenodd" clip-rule="evenodd" d="M8.00011 5.20004C8.00011 6.74646 6.74648 8.00008 5.20006 8.00008C3.65363 8.00008 2.40001 6.74646 2.40001 5.20004C2.40001 3.65363 3.65363 2.40001 5.20006 2.40001C6.74648 2.40001 8.00011 3.65363 8.00011 5.20004ZM7.31714 7.59974C6.75297 8.09784 6.01181 8.40009 5.20006 8.40009C3.43271 8.40009 2 6.96738 2 5.20004C2 3.43271 3.43271 2 5.20006 2C6.9674 2 8.40012 3.43271 8.40012 5.20004C8.40012 6.01168 8.09795 6.75275 7.59997 7.31688L9.94168 9.65858C10.0198 9.73668 10.0198 9.86332 9.94168 9.94142C9.86357 10.0195 9.73694 10.0195 9.65883 9.94142L7.31714 7.59974Z" fill="#FCFCFC"/>
</svg>
