<svg width="12" height="12" viewBox="0 0 12 12" fill="none" xmlns="http://www.w3.org/2000/svg">
<path d="M4.24992 2.25C4.24992 2.11193 4.13799 2 3.99992 2C3.86185 2 3.74992 2.11193 3.74992 2.25V8.99449L2.433 7.57967C2.33892 7.4786 2.18073 7.47293 2.07967 7.56701C1.9786 7.66108 1.97293 7.81927 2.06701 7.92033L3.99992 9.99693L5.93281 7.92033C6.02688 7.81927 6.02121 7.66108 5.92015 7.567C5.81908 7.47293 5.66089 7.4786 5.56682 7.57967L4.24992 8.99448V2.25Z" fill="#FCFCFC"/>
<path d="M7.75008 9.75C7.75008 9.88807 7.86201 10 8.00008 10C8.13816 10 8.25008 9.88807 8.25008 9.75L8.25009 3.00551L9.56701 4.42033C9.66108 4.5214 9.81927 4.52707 9.92033 4.43299C10.0214 4.33892 10.0271 4.18073 9.933 4.07967L8.00008 2.00307L6.06719 4.07967C5.97312 4.18073 5.97879 4.33892 6.07985 4.433C6.18092 4.52707 6.33911 4.5214 6.43318 4.42033L7.75009 3.00552L7.75008 9.75Z" fill="#FCFCFC"/>
</svg>
