<svg width="12" height="12" viewBox="0 0 12 12" fill="none" xmlns="http://www.w3.org/2000/svg">
<path fill-rule="evenodd" clip-rule="evenodd" d="M8.4 3.66667C8.62091 3.66667 8.8 3.84078 8.8 4.05556V7.94444C8.8 8.15922 8.62091 8.33333 8.4 8.33333H3.6C3.37909 8.33333 3.2 8.15922 3.2 7.94444V4.05556C3.2 3.84078 3.37909 3.66667 3.6 3.66667H8.4ZM5.8 4.05556H3.6V7.94444H5.8L5.8 4.05556ZM6.2 7.94444H8.4V4.05556H6.2L6.2 7.94444Z" fill="#FCFCFC"/>
<path fill-rule="evenodd" clip-rule="evenodd" d="M2.8 2.5C2.35817 2.5 2 2.84822 2 3.27778V8.72222C2 9.15178 2.35817 9.5 2.8 9.5H9.2C9.64183 9.5 10 9.15178 10 8.72222V3.27778C10 2.84822 9.64183 2.5 9.2 2.5H2.8ZM9.2 2.88889H2.8C2.57909 2.88889 2.4 3.063 2.4 3.27778V8.72222C2.4 8.937 2.57909 9.11111 2.8 9.11111H9.2C9.42091 9.11111 9.6 8.937 9.6 8.72222V3.27778C9.6 3.063 9.42091 2.88889 9.2 2.88889Z" fill="#FCFCFC"/>
</svg>
