<svg width="12" height="12" viewBox="0 0 12 12" fill="none" xmlns="http://www.w3.org/2000/svg">
<mask id="path-1-inside-1" fill="white">
<path fill-rule="evenodd" clip-rule="evenodd" d="M2.71087 7.64618C1.76597 6.75944 1.76597 5.24054 2.71087 4.3538C3.61397 3.50629 4.75692 3 5.99999 3C7.24306 3 8.38601 3.50629 9.28911 4.3538C10.234 5.24054 10.234 6.75944 9.28911 7.64618C8.38601 8.49369 7.24306 8.99998 5.99999 8.99998C4.75692 8.99998 3.61397 8.49369 2.71087 7.64618Z"/>
</mask>
<path d="M9.28911 7.64618L8.94695 7.28158L9.28911 7.64618ZM3.05303 4.7184C3.87444 3.94753 4.89838 3.5 5.99999 3.5V2.5C4.61547 2.5 3.35349 3.06504 2.36872 3.9892L3.05303 4.7184ZM5.99999 3.5C7.1016 3.5 8.12553 3.94753 8.94695 4.7184L9.63126 3.9892C8.64649 3.06504 7.38451 2.5 5.99999 2.5V3.5ZM8.94695 7.28158C8.12553 8.05244 7.1016 8.49998 5.99999 8.49998V9.49998C7.38451 9.49998 8.64648 8.93494 9.63126 8.01077L8.94695 7.28158ZM5.99999 8.49998C4.89838 8.49998 3.87444 8.05244 3.05303 7.28158L2.36872 8.01077C3.35349 8.93494 4.61547 9.49998 5.99999 9.49998V8.49998ZM8.94695 4.7184C9.68139 5.40763 9.68139 6.59235 8.94695 7.28158L9.63126 8.01077C10.7866 6.92652 10.7866 5.07345 9.63126 3.9892L8.94695 4.7184ZM2.36872 3.9892C1.21336 5.07345 1.21336 6.92652 2.36872 8.01077L3.05303 7.28158C2.31859 6.59235 2.31859 5.40763 3.05303 4.7184L2.36872 3.9892Z" fill="#FCFCFC" mask="url(#path-1-inside-1)"/>
<circle cx="6" cy="6" r="1.75" stroke="#FCFCFC" stroke-width="0.5"/>
</svg>
