<svg width="12" height="12" viewBox="0 0 12 12" fill="none" xmlns="http://www.w3.org/2000/svg">
<path d="M7.00001 3.79615C7.00001 3.68593 6.91046 3.59657 6.80001 3.59657C6.68955 3.59657 6.60001 3.68593 6.60001 3.79615V4.99358H5.40001C5.28955 4.99358 5.20001 5.08293 5.20001 5.19315C5.20001 5.30337 5.28955 5.39272 5.40001 5.39272H6.60001V6.59015C6.60001 6.70037 6.68955 6.78972 6.80001 6.78972C6.91046 6.78972 7.00001 6.70037 7.00001 6.59015V5.39272H8.2C8.31046 5.39272 8.4 5.30337 8.4 5.19315C8.4 5.08293 8.31046 4.99358 8.2 4.99358H7.00001V3.79615Z" fill="#FCFCFC"/>
<path fill-rule="evenodd" clip-rule="evenodd" d="M6.80001 8.3863C8.56731 8.3863 10 6.95668 10 5.19315C10 3.42962 8.56731 2 6.80001 2C5.0327 2 3.60002 3.42962 3.60002 5.19315C3.60002 6.00745 3.90548 6.75056 4.4083 7.31461L2.05858 9.65931C1.98047 9.73725 1.98047 9.86361 2.05858 9.94155C2.13668 10.0195 2.26332 10.0195 2.34142 9.94155L4.69221 7.59578C5.2552 8.08798 5.99269 8.3863 6.80001 8.3863ZM6.80001 7.98716C8.3464 7.98716 9.6 6.73624 9.6 5.19315C9.6 3.65006 8.3464 2.39914 6.80001 2.39914C5.25361 2.39914 4.00001 3.65006 4.00001 5.19315C4.00001 6.73624 5.25361 7.98716 6.80001 7.98716Z" fill="#FCFCFC"/>
</svg>
