<svg width="20" height="20" viewBox="0 0 20 20" fill="none" xmlns="http://www.w3.org/2000/svg">
<path d="M15.6813 8.2V5.6C15.6813 5.04772 15.2335 4.6 14.6813 4.6H10.6813C10.129 4.6 9.68125 4.15228 9.68125 3.6V2C9.68125 1.44772 10.129 1 10.6812 1H18.2813C18.8335 1 19.2813 1.44771 19.2813 2V9.6C19.2813 10.1523 18.8335 10.6 18.2813 10.6H16.6813C16.129 10.6 15.6813 11.0477 15.6813 11.6V18C15.6813 18.5523 15.2335 19 14.6813 19H2.28125C1.72897 19 1.28125 18.5523 1.28125 18V5.6C1.28125 5.04772 1.72897 4.6 2.28125 4.6H7.28125" stroke="#333333" stroke-linecap="round"/>
</svg>
