<svg width="16" height="16" viewBox="0 0 16 16" fill="none" xmlns="http://www.w3.org/2000/svg">
<path d="M13.6692 10.9584C13.4687 10.9584 13.3142 10.7832 13.322 10.5828C13.3714 9.31317 12.9117 8.02737 11.9428 7.05807C10.0991 5.2136 7.10994 5.2136 5.26626 7.05806C4.47601 7.84865 4.02449 8.84978 3.91168 9.88097C3.90213 9.96828 3.86473 10.0505 3.80264 10.1126C3.57652 10.3389 3.20364 10.1896 3.23464 9.87126C3.35161 8.6702 3.86985 7.50087 4.78937 6.58097C6.89643 4.47301 10.3126 4.47301 12.4197 6.58097C13.5393 7.70103 14.064 9.19087 13.9938 10.6575C13.9856 10.8288 13.8407 10.9584 13.6692 10.9584Z" fill="#FCFCFC"/>
<path d="M5.23824 9.57452L3.44487 10.4843L2.50902 8.72588" stroke="#FCFCFC" stroke-width="0.75" stroke-linecap="round"/>
</svg>
