<svg width="16" height="16" viewBox="0 0 16 16" fill="none" xmlns="http://www.w3.org/2000/svg">
<path d="M2.33076 10.9559C2.53128 10.9559 2.68583 10.7806 2.67803 10.5803C2.62862 9.31122 3.08834 8.02604 4.05719 7.05719C5.90087 5.21351 8.89006 5.21351 10.7337 7.05719C11.524 7.84742 11.9755 8.84808 12.0883 9.8788C12.0979 9.96613 12.1353 10.0484 12.1974 10.1105C12.4236 10.3367 12.7964 10.1874 12.7653 9.86908C12.6484 8.66857 12.1301 7.49978 11.2106 6.58029C9.10357 4.47324 5.68735 4.47324 3.58029 6.58029C2.46074 7.69985 1.93604 9.18901 2.00621 10.655C2.01441 10.8263 2.15929 10.9559 2.33076 10.9559Z" fill="#FCFCFC"/>
<path d="M10.7617 9.57257L12.5551 10.482L13.491 8.72429" stroke="#FCFCFC" stroke-width="0.75" stroke-linecap="round"/>
</svg>
