<svg width="16" height="16" viewBox="0 0 16 16" fill="none" xmlns="http://www.w3.org/2000/svg">
<path fill-rule="evenodd" clip-rule="evenodd" d="M3.71429 13.6786C3.71429 13.8561 3.85819 14 4.03571 14C4.21323 14 4.35714 13.8561 4.35714 13.6786V12.2857H7.68276V13.6786C7.68276 13.8561 7.82667 14 8.00419 14C8.18171 14 8.32561 13.8561 8.32561 13.6786V12.2857H11.6429V13.6786C11.6429 13.8561 11.7868 14 11.9643 14C12.1418 14 12.2857 13.8561 12.2857 13.6786V12.2857H13.6786C13.8561 12.2857 14 12.1418 14 11.9643C14 11.7868 13.8561 11.6429 13.6786 11.6429H12.2857V8.31714H13.6786C13.8561 8.31714 14 8.17323 14 7.99571C14 7.81819 13.8561 7.67428 13.6786 7.67428H12.2857V4.35714L13.6786 4.35714C13.8561 4.35714 14 4.21323 14 4.03571C14 3.85819 13.8561 3.71428 13.6786 3.71428L12.2857 3.71428V2.32143C12.2857 2.14391 12.1418 2 11.9643 2C11.7868 2 11.6429 2.14391 11.6429 2.32143V3.71428L8.32561 3.71428V2.32143C8.32561 2.14391 8.18171 2 8.00419 2C7.82667 2 7.68276 2.14391 7.68276 2.32143V3.71428L4.35714 3.71428V2.32143C4.35714 2.14391 4.21323 2 4.03571 2C3.85819 2 3.71429 2.14391 3.71429 2.32143V3.71428H2.32143C2.14391 3.71428 2 3.85819 2 4.03571C2 4.21323 2.14391 4.35714 2.32143 4.35714H3.71429V7.67428H2.32143C2.14391 7.67428 2 7.81819 2 7.99571C2 8.17323 2.14391 8.31714 2.32143 8.31714H3.71429V11.6429H2.32143C2.14391 11.6429 2 11.7868 2 11.9643C2 12.1418 2.14391 12.2857 2.32143 12.2857H3.71429V13.6786ZM11.6429 4.35714L8.32561 4.35714V7.67428H11.6429V4.35714ZM11.6429 8.31714L8.32561 8.31714V11.6429H11.6429V8.31714ZM4.35714 4.35714L7.68276 4.35714V7.67428L4.35714 7.67428V4.35714ZM4.35714 8.31714V11.6429H7.68276V8.31714H4.35714Z" fill="#FCFCFC"/>
</svg>
