<svg width="16" height="16" viewBox="0 0 16 16" fill="none" xmlns="http://www.w3.org/2000/svg">
<path fill-rule="evenodd" clip-rule="evenodd" d="M13.903 3.09765C14.03 3.23021 14.0326 3.44789 13.9088 3.58384C11.6266 6.08919 8.77649 10.882 7.35698 13.376C6.85277 14.2619 5.61202 14.1745 5.15568 13.304C4.4933 12.0404 3.43972 10.3204 2.11252 9.10621C1.97767 8.98284 1.96178 8.76581 2.07703 8.62147C2.19229 8.47712 2.39504 8.46011 2.52989 8.58348C3.94285 9.8761 5.04063 11.6793 5.71591 12.9675C5.94983 13.4137 6.57868 13.4218 6.80838 13.0183C8.22177 10.535 11.1076 5.67401 13.4488 3.10379C13.5727 2.96784 13.776 2.96509 13.903 3.09765Z" fill="#FCFCFC"/>
</svg>
