<svg width="16" height="16" viewBox="0 0 16 16" fill="none" xmlns="http://www.w3.org/2000/svg">
<path d="M13.4615 2.09238C13.587 1.96699 13.7878 1.96957 13.91 2.09814C14.0323 2.2267 14.0296 2.43258 13.9041 2.55797L8.4524 8.00463L13.8914 13.4419C14.0169 13.5673 14.0195 13.7732 13.8973 13.9018C13.7751 14.0304 13.5744 14.033 13.4489 13.9076L7.99808 8.45853L2.54765 13.9039C2.42214 14.0293 2.22131 14.0267 2.09908 13.8982C1.97684 13.7696 1.9795 13.5637 2.105 13.4383L7.54388 8.00448L2.09587 2.55824C1.9704 2.43281 1.96774 2.22687 2.08994 2.09827C2.21213 1.96966 2.4129 1.96709 2.53837 2.09252L7.99821 7.55058L13.4615 2.09238Z" fill="#FCFCFC"/>
</svg>
