<svg width="16" height="16" viewBox="0 0 16 16" fill="none" xmlns="http://www.w3.org/2000/svg">
<path fill-rule="evenodd" clip-rule="evenodd" d="M2.64286 2.32143C2.64286 2.14391 2.49895 2 2.32143 2C2.14391 2 2 2.14391 2 2.32143V10.3207C2 10.3208 2 10.3208 2 10.3208V14H13.6786C13.8561 14 14 13.8561 14 13.6786C14 13.5011 13.8561 13.3571 13.6786 13.3571H2.64286V10.4628L6.30545 7.13088L9.75091 9.71497L13.9122 5.3112C14.0341 5.18217 14.0284 4.97873 13.8993 4.85681C13.7703 4.73489 13.5669 4.74065 13.4449 4.86967L9.67767 8.85647L6.26599 6.29771L2.64286 9.59375V2.32143Z" fill="#FCFCFC"/>
</svg>
