<svg width="16" height="16" viewBox="0 0 16 16" fill="none" xmlns="http://www.w3.org/2000/svg">
<path fill-rule="evenodd" clip-rule="evenodd" d="M8.5 2.745C8.43096 2.745 8.375 2.80096 8.375 2.87V3.87C8.375 3.93903 8.43096 3.995 8.5 3.995H10.5C10.9832 3.995 11.375 4.38675 11.375 4.87V6.37C11.375 6.5771 11.2071 6.745 11 6.745C10.7929 6.745 10.625 6.5771 10.625 6.37V4.87C10.625 4.80096 10.569 4.745 10.5 4.745H8.5C8.01675 4.745 7.625 4.35324 7.625 3.87V2.87C7.625 2.38675 8.01675 1.995 8.5 1.995H13.12C13.6032 1.995 13.995 2.38675 13.995 2.87V7.87C13.995 8.35324 13.6032 8.745 13.12 8.745H11.5C11.431 8.745 11.375 8.80096 11.375 8.87V13.12C11.375 13.6032 10.9832 13.995 10.5 13.995H2.86999C2.38675 13.995 1.995 13.6032 1.995 13.12V4.87C1.995 4.38675 2.38675 3.995 2.87 3.995H6C6.20711 3.995 6.375 4.16289 6.375 4.37C6.375 4.5771 6.20711 4.745 6 4.745H2.87C2.80096 4.745 2.745 4.80096 2.745 4.87V13.12C2.745 13.189 2.80096 13.245 2.86999 13.245H10.5C10.569 13.245 10.625 13.189 10.625 13.12V8.87C10.625 8.38675 11.0167 7.995 11.5 7.995H13.12C13.189 7.995 13.245 7.93903 13.245 7.87V2.87C13.245 2.80096 13.189 2.745 13.12 2.745H8.5Z" fill="#FCFCFC"/>
</svg>
