<svg width="16" height="16" viewBox="0 0 16 16" fill="none" xmlns="http://www.w3.org/2000/svg">
<path d="M9.47152 5.3665C9.61729 5.21938 9.61619 4.98194 9.46907 4.83618C9.32194 4.69041 9.08451 4.69151 8.93874 4.83863L9.47152 5.3665ZM2.37125 12L2.10486 11.7361C2.03528 11.8063 1.99625 11.9011 1.99625 12H2.37125ZM2.37125 13.6401H1.99625V14.0151H2.37125V13.6401ZM3.99999 13.6401V14.0151C4.09902 14.0151 4.19404 13.9759 4.26429 13.9061L3.99999 13.6401ZM12.8887 4.27331C12.7422 4.41976 12.7422 4.6572 12.8887 4.80364C13.0351 4.95008 13.2726 4.95007 13.419 4.80362L12.8887 4.27331ZM13.7171 3.40951L13.4519 3.67467L13.7171 3.40951ZM13.7171 3.97518L13.9823 4.24034L13.7171 3.97518ZM12.0248 2.28288L11.7596 2.01772L12.0248 2.28288ZM12.5905 2.28288L12.8556 2.01771L12.5905 2.28288ZM10.6162 4.2572L10.351 4.52236L10.6162 4.2572ZM10.6162 3.69152L10.8813 3.95668L10.6162 3.69152ZM11.7409 5.94951L12.0052 6.21554L11.7409 5.94951ZM8.93874 4.83863L2.10486 11.7361L2.63764 12.2639L9.47152 5.3665L8.93874 4.83863ZM1.99625 12V13.6401H2.74625V12H1.99625ZM2.37125 14.0151H3.99999V13.2651H2.37125V14.0151ZM4.26429 13.9061L12.0052 6.21554L11.4767 5.68348L3.7357 13.374L4.26429 13.9061ZM12.007 5.11774L10.8813 3.99203L10.351 4.52236L11.4767 5.64807L12.007 5.11774ZM10.8813 3.95668L12.2899 2.54804L11.7596 2.01772L10.351 3.42636L10.8813 3.95668ZM12.3253 2.54804L13.4519 3.67467L13.9822 3.14434L12.8556 2.01771L12.3253 2.54804ZM13.4519 3.71002L12.8887 4.27331L13.419 4.80362L13.9823 4.24034L13.4519 3.71002ZM13.4519 3.67467C13.4617 3.68443 13.4617 3.70026 13.4519 3.71002L13.9823 4.24034C14.2849 3.93768 14.2849 3.44699 13.9822 3.14434L13.4519 3.67467ZM12.2899 2.54804C12.2997 2.53828 12.3155 2.53828 12.3253 2.54804L12.8556 2.01771C12.553 1.71505 12.0623 1.71506 11.7596 2.01772L12.2899 2.54804ZM10.8813 3.99203C10.8716 3.98227 10.8716 3.96644 10.8813 3.95668L10.351 3.42636C10.0484 3.72901 10.0484 4.21971 10.351 4.52236L10.8813 3.99203ZM12.0052 6.21554C12.3096 5.91318 12.3104 5.42109 12.007 5.11774L11.4767 5.64807C11.4865 5.65785 11.4865 5.67373 11.4767 5.68348L12.0052 6.21554Z" fill="#FCFCFC"/>
</svg>
