<svg width="16" height="16" viewBox="0 0 16 16" fill="none" xmlns="http://www.w3.org/2000/svg">
<path d="M3.625 14C3.625 14.2071 3.79289 14.375 4 14.375C4.20711 14.375 4.375 14.2071 4.375 14H3.625ZM4 2.35895L3.9116 1.99452C3.74342 2.03531 3.625 2.1859 3.625 2.35895H4ZM13 2.35895H13.375C13.375 2.23265 13.3114 2.11482 13.2058 2.0455C13.1003 1.97617 12.9669 1.96464 12.851 2.01484L13 2.35895ZM13 6.94484L13.149 7.28895C13.2862 7.22955 13.375 7.09433 13.375 6.94484H13ZM6.59615 2.00623L6.62205 1.63212L6.59615 2.00623ZM11.4712 2.71174L11.4348 2.3385L11.4712 2.71174ZM8.84615 2.71174L8.92919 2.34605V2.34605L8.84615 2.71174ZM8.84615 7.2976L8.92919 6.93191L8.84615 7.2976ZM6.59615 6.59208L6.55717 6.21912L6.59615 6.59208ZM4.93815 6.58351C4.73859 6.63891 4.62173 6.84559 4.67713 7.04515C4.73253 7.24471 4.93921 7.36158 5.13877 7.30618L4.93815 6.58351ZM11.4712 7.2976L11.5075 7.67083L11.4712 7.2976ZM4.375 14V2.35895H3.625V14H4.375ZM12.625 2.35895V6.94484H13.375V2.35895H12.625ZM4 2.35895C4.0884 2.72339 4.08837 2.72339 4.08836 2.7234C4.08836 2.72339 4.08836 2.7234 4.08836 2.72339C4.08838 2.72339 4.08842 2.72338 4.08849 2.72336C4.08862 2.72333 4.08886 2.72328 4.0892 2.72319C4.08987 2.72303 4.09095 2.72277 4.09243 2.72242C4.09538 2.72171 4.09992 2.72062 4.10596 2.71919C4.11804 2.71632 4.13615 2.71206 4.15965 2.70662C4.20667 2.69574 4.27525 2.68016 4.36048 2.66161C4.53113 2.62446 4.76755 2.57561 5.03072 2.52871C5.5696 2.43268 6.17729 2.35313 6.57026 2.38033L6.62205 1.63212C6.12662 1.59783 5.43624 1.69463 4.89914 1.79034C4.62432 1.83932 4.37828 1.89017 4.20096 1.92877C4.1122 1.94809 4.04042 1.9644 3.99058 1.97593C3.96565 1.9817 3.9462 1.98627 3.93283 1.98944C3.92615 1.99103 3.92099 1.99226 3.91742 1.99312C3.91564 1.99355 3.91426 1.99388 3.91329 1.99411C3.9128 1.99423 3.91242 1.99433 3.91214 1.99439C3.91199 1.99443 3.91188 1.99445 3.91179 1.99448C3.91175 1.99449 3.9117 1.9945 3.91168 1.9945C3.91164 1.99451 3.9116 1.99452 4 2.35895ZM11.5075 3.08498C11.995 3.03753 12.4001 2.94418 12.6849 2.86205C12.8276 2.82094 12.9406 2.78248 13.0194 2.7537C13.0588 2.7393 13.0897 2.7273 13.1115 2.71858C13.1223 2.71422 13.131 2.71067 13.1373 2.70805C13.1404 2.70674 13.143 2.70566 13.1449 2.70483C13.1459 2.70441 13.1467 2.70405 13.1474 2.70376C13.1478 2.70361 13.1481 2.70348 13.1483 2.70336C13.1485 2.70331 13.1486 2.70325 13.1487 2.7032C13.1488 2.70318 13.1489 2.70314 13.1489 2.70313C13.149 2.7031 13.149 2.70307 13 2.35895C12.851 2.01484 12.851 2.01481 12.8511 2.01478C12.8511 2.01477 12.8512 2.01475 12.8512 2.01473C12.8513 2.0147 12.8514 2.01467 12.8514 2.01464C12.8516 2.01459 12.8516 2.01455 12.8517 2.01453C12.8518 2.01449 12.8517 2.01452 12.8515 2.0146C12.8511 2.01476 12.8502 2.01517 12.8486 2.01581C12.8456 2.01709 12.8403 2.01928 12.8327 2.02229C12.8177 2.02831 12.7939 2.03757 12.762 2.04924C12.6981 2.0726 12.6016 2.10553 12.4772 2.1414C12.228 2.21325 11.8686 2.29629 11.4348 2.3385L11.5075 3.08498ZM6.57026 2.38033C6.97055 2.40804 7.26286 2.51462 7.58265 2.65118C7.90166 2.7874 8.27148 2.9658 8.76312 3.07744L8.92919 2.34605C8.52047 2.25325 8.22715 2.11087 7.87718 1.96143C7.52798 1.81232 7.14547 1.66836 6.62205 1.63212L6.57026 2.38033ZM8.76312 3.07744C9.84345 3.32274 10.5059 3.18244 11.5075 3.08498L11.4348 2.3385C10.3763 2.44151 9.8621 2.55788 8.92919 2.34605L8.76312 3.07744ZM8.92919 6.93191C8.53413 6.84221 8.26052 6.67372 7.89272 6.49486C7.53116 6.31904 7.11859 6.16044 6.55717 6.21912L6.63514 6.96505C6.99426 6.92752 7.25651 7.01946 7.56473 7.16934C7.8667 7.31618 8.25783 7.54856 8.76312 7.66329L8.92919 6.93191ZM6.55717 6.21912C6.29693 6.24632 5.88248 6.34131 5.55458 6.4225C5.38594 6.46425 5.23217 6.50441 5.12063 6.53412C5.0648 6.54898 5.01943 6.56126 4.9879 6.56986C4.97213 6.57415 4.95982 6.57753 4.95139 6.57985C4.94718 6.58101 4.94393 6.58191 4.94171 6.58252C4.94059 6.58283 4.93974 6.58307 4.93914 6.58323C4.93885 6.58331 4.93861 6.58338 4.93845 6.58343C4.93837 6.58345 4.9383 6.58347 4.93825 6.58348C4.93823 6.58349 4.9382 6.58349 4.93819 6.5835C4.93817 6.5835 4.93815 6.58351 5.03846 6.94484C5.13877 7.30618 5.13876 7.30618 5.13876 7.30618C5.13876 7.30618 5.13876 7.30618 5.13877 7.30618C5.13879 7.30617 5.13882 7.30616 5.13887 7.30615C5.13898 7.30612 5.13914 7.30607 5.13937 7.30601C5.13984 7.30588 5.14056 7.30568 5.14154 7.30541C5.1435 7.30487 5.14647 7.30405 5.15041 7.30297C5.15828 7.3008 5.16999 7.29759 5.18513 7.29346C5.21542 7.2852 5.25937 7.27331 5.31362 7.25886C5.42223 7.22994 5.57158 7.19093 5.73483 7.15051C6.07071 7.06735 6.4351 6.98596 6.63514 6.96505L6.55717 6.21912ZM13 6.94484C12.851 6.60072 12.851 6.60069 12.8511 6.60066C12.8511 6.60065 12.8512 6.60062 12.8512 6.60061C12.8513 6.60057 12.8514 6.60054 12.8514 6.60052C12.8516 6.60047 12.8516 6.60043 12.8517 6.60041C12.8518 6.60037 12.8517 6.60039 12.8515 6.60048C12.8511 6.60064 12.8502 6.60105 12.8487 6.60169C12.8456 6.60297 12.8403 6.60516 12.8327 6.60817C12.8177 6.61418 12.7939 6.62345 12.762 6.63512C12.6981 6.65847 12.6016 6.6914 12.4772 6.72727C12.228 6.79911 11.8686 6.88215 11.4348 6.92436L11.5075 7.67083C11.995 7.62339 12.4001 7.53005 12.6849 7.44792C12.8275 7.40681 12.9406 7.36836 13.0194 7.33958C13.0588 7.32518 13.0896 7.31319 13.1114 7.30447C13.1223 7.3001 13.131 7.29656 13.1373 7.29394C13.1404 7.29263 13.143 7.29155 13.1449 7.29071C13.1459 7.2903 13.1467 7.28994 13.1474 7.28965C13.1478 7.2895 13.1481 7.28937 13.1483 7.28925C13.1485 7.28919 13.1486 7.28914 13.1487 7.28909C13.1488 7.28907 13.1488 7.28903 13.1489 7.28902C13.1489 7.28899 13.149 7.28895 13 6.94484ZM11.4348 6.92436C10.3763 7.02737 9.8621 7.14374 8.92919 6.93191L8.76312 7.66329C9.84345 7.9086 10.5059 7.7683 11.5075 7.67083L11.4348 6.92436Z" fill="#FCFCFC"/>
</svg>
