<svg width="15" height="15" viewBox="0 0 15 15" fill="none" xmlns="http://www.w3.org/2000/svg">
<path fill-rule="evenodd" clip-rule="evenodd" d="M2.14139 7.19145C2.14756 7.44107 1.91678 7.64261 1.67559 7.57799C1.53202 7.53952 1.42723 7.41475 1.42209 7.26621C1.40278 6.70855 1.46471 6.13864 1.61664 5.57164C2.44115 2.49452 5.60405 0.668413 8.68118 1.49293C11.7583 2.31744 13.5844 5.48034 12.7599 8.55747C11.9354 11.6346 8.77248 13.4607 5.69535 12.6362C4.50978 12.3185 3.50992 11.6537 2.77581 10.7804L2.8128 11.8572C2.81991 12.0642 2.65788 12.2377 2.4509 12.2448C2.24391 12.252 2.07036 12.0899 2.06324 11.8829L1.99015 9.75534L1.97753 9.38796L2.34458 9.36801L4.49108 9.25136C4.69788 9.24012 4.87464 9.39865 4.88588 9.60545C4.89712 9.81225 4.73858 9.98901 4.53178 10.0003L3.13772 10.076C3.79252 10.958 4.73854 11.6333 5.88197 11.9397C8.57445 12.6612 11.342 11.0633 12.0634 8.37085C12.7849 5.67837 11.187 2.91083 8.49457 2.18938C5.80208 1.46793 3.03454 3.06577 2.31309 5.75826C2.18465 6.2376 2.12972 6.71932 2.14139 7.19145Z" fill="#FCFCFC"/>
</svg>
