<svg width="16" height="16" viewBox="0 0 16 16" fill="none" xmlns="http://www.w3.org/2000/svg">
<path fill-rule="evenodd" clip-rule="evenodd" d="M8.12443 13.2486C8.08307 13.2495 8.04159 13.25 8 13.25C7.95839 13.25 7.9169 13.2495 7.87552 13.2486C7.08418 12.5387 6.45615 11.6207 6.06208 10.5715H9.93788C9.5438 11.6207 8.91577 12.5387 8.12443 13.2486ZM8.00043 14C11.3139 13.9998 14 11.3136 14 8C14 4.68629 11.3137 2 8 2C4.68629 2 2 4.68629 2 8C2 11.3136 4.68606 13.9998 7.99957 14L8 14.0002L8.00043 14ZM6.84895 13.1234C6.20896 12.3953 5.70549 11.5288 5.37935 10.5715H3.42182C4.14065 11.8485 5.37833 12.7945 6.84895 13.1234ZM3.11558 9.92864H5.19069C5.03819 9.31278 4.9571 8.66618 4.9571 8.00017C4.9571 7.33409 5.03821 6.68741 5.19074 6.07149H3.11552C2.87962 6.6685 2.75 7.31911 2.75 8C2.75 8.68093 2.87964 9.33159 3.11558 9.92864ZM3.42175 5.42864H5.37942C5.70562 4.47125 6.2092 3.6046 6.84932 2.87649C5.37849 3.20539 4.14063 4.15144 3.42175 5.42864ZM8.12404 2.75144C8.08281 2.75048 8.04146 2.75 8 2.75C7.95852 2.75 7.91715 2.75048 7.87591 2.75144C7.08443 3.46127 6.4563 4.37932 6.06215 5.42864H9.9378C9.54365 4.37932 8.91552 3.46127 8.12404 2.75144ZM9.15062 2.87648C9.79074 3.60459 10.2943 4.47125 10.6205 5.42864H12.5782C11.8594 4.15142 10.6215 3.20536 9.15062 2.87648ZM12.8845 6.07149H10.8092C10.9617 6.68741 11.0428 7.33409 11.0428 8.00017C11.0428 8.66618 10.9618 9.31278 10.8093 9.92864H12.8844C13.1204 9.33159 13.25 8.68093 13.25 8C13.25 7.31911 13.1204 6.6685 12.8845 6.07149ZM12.5782 10.5715C11.8593 11.8485 10.6216 12.7945 9.15099 13.1234C9.79098 12.3954 10.2945 11.5288 10.6206 10.5715H12.5782ZM5.85476 9.92864H10.1452C10.311 9.31729 10.4 8.67005 10.4 8.00017C10.4 7.33021 10.311 6.6829 10.1451 6.07149H5.85482C5.68897 6.6829 5.59996 7.33021 5.59996 8.00017C5.59996 8.67005 5.68895 9.31729 5.85476 9.92864Z" fill="#FCFCFC"/>
</svg>
