<svg width="16" height="16" viewBox="0 0 16 16" fill="none" xmlns="http://www.w3.org/2000/svg">
<path d="M2 3.3125C2 3.13991 2.14391 3 2.32143 3H13.6786C13.8561 3 14 3.13991 14 3.3125C14 3.48509 13.8561 3.625 13.6786 3.625H2.32143C2.14391 3.625 2 3.48509 2 3.3125Z" fill="#FCFCFC"/>
<path d="M2 8.00417C2 7.83158 2.14391 7.69167 2.32143 7.69167L13.6786 7.69167C13.8561 7.69167 14 7.83158 14 8.00417C14 8.17676 13.8561 8.31667 13.6786 8.31667L2.32143 8.31667C2.14391 8.31667 2 8.17676 2 8.00417Z" fill="#FCFCFC"/>
<path d="M2.32143 12.375C2.14391 12.375 2 12.5149 2 12.6875C2 12.8601 2.14391 13 2.32143 13H13.6786C13.8561 13 14 12.8601 14 12.6875C14 12.5149 13.8561 12.375 13.6786 12.375H2.32143Z" fill="#FCFCFC"/>
</svg>
