<svg width="16" height="16" viewBox="0 0 16 16" fill="none" xmlns="http://www.w3.org/2000/svg">
<path fill-rule="evenodd" clip-rule="evenodd" d="M12.2 5.90003C12.2 7.05983 11.2598 8.00003 10.1 8.00003C8.9402 8.00003 8 7.05983 8 5.90003C8 4.74023 8.9402 3.80003 10.1 3.80003C11.2598 3.80003 12.2 4.74023 12.2 5.90003ZM11.5571 5.90003C11.5571 6.70479 10.9048 7.35717 10.1 7.35717C9.29524 7.35717 8.64286 6.70479 8.64286 5.90003C8.64286 5.09527 9.29524 4.44289 10.1 4.44289C10.9048 4.44289 11.5571 5.09527 11.5571 5.90003Z" fill="#FCFCFC"/>
<path fill-rule="evenodd" clip-rule="evenodd" d="M2 12.7143C2 13.4244 2.57563 14 3.28571 14H12.7143C13.4244 14 14 13.4244 14 12.7143V3.28571C14 2.57563 13.4244 2 12.7143 2H3.28571C2.57563 2 2 2.57563 2 3.28571V12.7143ZM12.7143 2.64286H3.28571C2.93067 2.64286 2.64286 2.93067 2.64286 3.28571V10.3326C4.28019 9.60456 6.09316 9.19997 8.00063 9.19997C9.90761 9.19997 11.7201 9.60435 13.3571 10.332V3.28571C13.3571 2.93067 13.0693 2.64286 12.7143 2.64286ZM13.3571 12.7143V11.0393C11.7324 10.272 9.91665 9.84283 8.00063 9.84283C6.08411 9.84283 4.26788 10.2722 2.64286 11.0399V12.7143C2.64286 13.0693 2.93067 13.3571 3.28571 13.3571H12.7143C13.0693 13.3571 13.3571 13.0693 13.3571 12.7143Z" fill="#FCFCFC"/>
</svg>
