<svg width="16" height="16" viewBox="0 0 16 16" fill="none" xmlns="http://www.w3.org/2000/svg">
<path d="M5.24171 3.59909C5.24171 4.48225 4.51935 5.19819 3.62828 5.19819C2.73721 5.19819 2.01485 4.48225 2.01485 3.59909C2.01485 2.71593 2.73721 1.99999 3.62828 1.99999C4.51935 1.99999 5.24171 2.71593 5.24171 3.59909Z" stroke="#FCFCFC" stroke-width="0.75"/>
<path d="M5.36124 3.73357L13.9662 3.73357" stroke="#FCFCFC" stroke-width="0.75" stroke-linecap="round"/>
<path d="M14 7.99777C14 8.88093 13.2777 9.59687 12.3866 9.59687C11.4955 9.59687 10.7732 8.88093 10.7732 7.99777C10.7732 7.11461 11.4955 6.39867 12.3866 6.39867C13.2777 6.39867 14 7.11461 14 7.99777Z" stroke="#FCFCFC" stroke-width="0.75"/>
<path d="M2 7.99774L10.7394 7.99773" stroke="#FCFCFC" stroke-width="0.75" stroke-linecap="round"/>
<path d="M2 12.4714H4.42014" stroke="#FCFCFC" stroke-width="0.75" stroke-linecap="round"/>
<path d="M8.05037 12.401C8.05037 13.2841 7.32802 14.0001 6.43694 14.0001C5.54587 14.0001 4.82352 13.2841 4.82352 12.401C4.82352 11.5178 5.54587 10.8019 6.43694 10.8019C7.32802 10.8019 8.05037 11.5178 8.05037 12.401Z" stroke="#FCFCFC" stroke-width="0.75"/>
<path d="M8.4537 12.4715L13.9662 12.4715" stroke="#FCFCFC" stroke-width="0.75" stroke-linecap="round"/>
</svg>
