<svg width="16" height="16" viewBox="0 0 16 16" fill="none" xmlns="http://www.w3.org/2000/svg">
<path d="M2.61426 5.18959C2.54156 5.02782 2.35145 4.9556 2.18964 5.02829C2.02783 5.10097 1.95559 5.29102 2.02829 5.45279C2.3662 6.20465 2.85065 6.8799 3.44195 7.44674L2.10349 8.73953C1.97591 8.86275 1.97241 9.06603 2.09567 9.19357C2.21893 9.32111 2.42227 9.32462 2.54985 9.20139L3.9285 7.86978C4.55639 8.3644 5.27578 8.74826 6.05001 8.99197L5.63909 10.5993C5.59517 10.7711 5.69889 10.946 5.87075 10.9899C6.04262 11.0338 6.21756 10.9301 6.26148 10.7583L6.67147 9.15463C7.10308 9.2452 7.54782 9.29279 7.99995 9.29279C8.45204 9.29279 8.89675 9.24521 9.32833 9.15465L9.73831 10.7583C9.78223 10.9301 9.95717 11.0338 10.129 10.9899C10.3009 10.946 10.4046 10.7711 10.3607 10.5993L9.94979 8.99201C10.724 8.74831 11.4435 8.36446 12.0714 7.86986L13.4499 9.20139C13.5775 9.32462 13.7809 9.32111 13.9041 9.19357C14.0274 9.06603 14.0239 8.86275 13.8963 8.73953L12.5579 7.44683C13.1493 6.87997 13.6338 6.20469 13.9717 5.45279C14.0444 5.29102 13.9722 5.10097 13.8104 5.02829C13.6486 4.9556 13.4584 5.02782 13.3857 5.18959C12.6757 6.76956 11.2404 7.97805 9.54094 8.44287C9.52083 8.44408 9.50055 8.44721 9.48032 8.45238C9.45874 8.45789 9.43825 8.46546 9.41898 8.47484C8.96115 8.58962 8.4852 8.65057 7.99995 8.65057C7.51462 8.65057 7.03859 8.5896 6.58068 8.47478C6.56145 8.46543 6.541 8.45788 6.51948 8.45238C6.49929 8.44722 6.47906 8.4441 6.45901 8.44288C4.75954 7.97807 3.32435 6.76958 2.61426 5.18959Z" fill="#FCFCFC"/>
</svg>
