<svg width="16" height="16" viewBox="0 0 16 16" fill="none" xmlns="http://www.w3.org/2000/svg">
<path fill-rule="evenodd" clip-rule="evenodd" d="M9.74676 2C9.53965 2 9.37176 2.16789 9.37176 2.375C9.37176 2.58211 9.53965 2.75 9.74676 2.75H12.7155L8.10704 7.36277C7.96067 7.50928 7.96078 7.74672 8.10729 7.8931C8.2538 8.03948 8.49124 8.03937 8.63762 7.89285L13.2453 3.28092V6.24838C13.2453 6.45549 13.4132 6.62338 13.6203 6.62338C13.8274 6.62338 13.9953 6.45549 13.9953 6.24838V2.375V2H13.6203H9.74676ZM2.74512 4.13001C2.74512 4.06097 2.80108 4.005 2.87012 4.005H7.6278C7.83491 4.005 8.0028 3.83711 8.0028 3.63C8.0028 3.4229 7.83491 3.255 7.6278 3.255H2.87012C2.38687 3.255 1.99512 3.64676 1.99512 4.13001V13.1258C1.99512 13.6091 2.38687 14.0008 2.87012 14.0008H11.8659C12.3492 14.0008 12.7409 13.6091 12.7409 13.1258V8.37302C12.7409 8.16592 12.573 7.99802 12.3659 7.99802C12.1588 7.99802 11.9909 8.16592 11.9909 8.37302V13.1258C11.9909 13.1949 11.935 13.2508 11.8659 13.2508H2.87012C2.80108 13.2508 2.74512 13.1949 2.74512 13.1258V4.13001Z" fill="#FCFCFC"/>
</svg>
