<svg width="16" height="16" viewBox="0 0 16 16" fill="none" xmlns="http://www.w3.org/2000/svg">
<path fill-rule="evenodd" clip-rule="evenodd" d="M6.87027 2.10449C7.14319 1.96564 7.46227 1.9658 7.73475 2.1012C8.08495 2.27521 8.31236 2.64666 8.31236 3.05548V5.22447C8.73262 5.08042 9.22869 5.22492 9.49677 5.65762C9.95905 5.40665 10.558 5.54131 10.8673 6.02793C11.3098 5.81369 11.851 5.9121 12.1974 6.30797C12.392 6.53035 12.5 6.82112 12.5 7.12285V10.2902C12.5 11.967 11.4268 13.4353 9.8821 13.872C9.06009 14.1044 8.1857 14.0185 7.4192 13.6301L7.20149 13.5197C6.48666 13.1575 5.88481 12.5898 5.46609 11.8828L3.67476 8.85812C3.61117 8.75074 3.56553 8.63277 3.53982 8.5093L3.52224 8.42486C3.42195 7.94325 3.66861 7.45625 4.10543 7.27342C4.50897 7.10452 4.97045 7.24003 5.2315 7.60408L6.22626 8.99131C6.23633 9.00536 6.24408 9.00841 6.24851 9.00971C6.25514 9.01165 6.26543 9.01211 6.27728 9.00797C6.28912 9.00382 6.29708 8.99698 6.30127 8.99125C6.30407 8.98742 6.30851 8.98011 6.30851 8.96253V3.04469C6.30851 2.64441 6.52666 2.27929 6.87027 2.10449ZM10.4634 6.56897L10.3688 6.40414C10.2271 6.15752 9.91638 6.10715 9.71097 6.27473V8.00208C9.71097 8.1796 9.57365 8.32351 9.40426 8.32351C9.23486 8.32351 9.09754 8.1796 9.09754 8.00208V6.22419L8.99965 6.03811C8.85371 5.76068 8.49049 5.74005 8.31236 5.97665V7.67606C8.31236 7.85358 8.17504 7.99749 8.00565 7.99749C7.83626 7.99749 7.69894 7.85358 7.69894 7.67606V3.05548C7.69894 2.89764 7.61031 2.75083 7.47194 2.68207C7.36592 2.62939 7.24206 2.62995 7.13815 2.68281C7.0059 2.75009 6.92193 2.89062 6.92193 3.04469V8.96253C6.92193 9.62603 6.11623 9.90794 5.73587 9.37752L4.74111 7.99029C4.64649 7.85833 4.47922 7.80921 4.33295 7.87044C4.17461 7.93671 4.08521 8.11323 4.12156 8.2878L4.13914 8.37224C4.14997 8.42422 4.16918 8.47389 4.19596 8.5191L5.98729 11.5438C6.34468 12.1472 6.85838 12.6318 7.46852 12.941L7.68623 13.0513C8.3199 13.3724 9.04277 13.4434 9.72233 13.2513C10.9994 12.8903 11.8866 11.6764 11.8866 10.2902V7.12285C11.8866 6.982 11.8362 6.84628 11.7453 6.74248C11.571 6.54322 11.2909 6.50541 11.0769 6.63794V8.31066C11.0769 8.48818 10.9395 8.63209 10.7701 8.63209C10.6008 8.63209 10.4634 8.48818 10.4634 8.31066V6.56897Z" fill="#FCFCFC"/>
</svg>
