<svg width="16" height="16" viewBox="0 0 16 16" fill="none" xmlns="http://www.w3.org/2000/svg">
<path d="M12.5633 4.1026C11.6875 3.07728 10.4922 2.37639 9.17003 2.11287C7.84784 1.84935 6.47573 2.03856 5.2748 2.65009C4.07386 3.26162 3.11408 4.25985 2.55016 5.48392C1.98625 6.708 1.85105 8.08656 2.16628 9.39746C2.48151 10.7084 3.2288 11.8752 4.2877 12.7102C5.3466 13.5451 6.65549 13.9994 8.0035 14L8.00377 13.1431C6.84813 13.1427 5.72592 12.7531 4.81801 12.0373C3.91011 11.3214 3.26944 10.3209 2.99921 9.19715C2.72897 8.07337 2.84489 6.89172 3.32822 5.84258C3.81155 4.79345 4.63415 3.93787 5.66352 3.4137C6.69289 2.88953 7.86912 2.72729 9.00269 2.95322C10.1363 3.17914 11.1611 3.78007 11.912 4.65918C12.663 5.53828 13.0962 6.64431 13.1421 7.79899C13.1879 8.95367 12.8437 10.0898 12.1649 11.0243L12.858 11.528C13.65 10.4376 14.0516 9.11212 13.9981 7.76507C13.9446 6.41804 13.4392 5.12793 12.5633 4.1026Z" fill="#FCFCFC"/>
<path d="M10.5856 5.78543C10.0897 5.20625 9.41269 4.81047 8.66372 4.66187C7.91475 4.51327 7.13735 4.6205 6.45681 4.96637C5.77625 5.31225 5.23224 5.87661 4.91245 6.56851C4.59266 7.26042 4.51575 8.03951 4.69404 8.78023C4.87232 9.52094 5.29541 10.1801 5.89508 10.6517C6.49474 11.1232 7.23614 11.3797 7.99982 11.3797L8.00044 10.5239C7.42937 10.5239 6.87488 10.3321 6.42634 9.97941C5.9778 9.62672 5.66141 9.13369 5.5281 8.57983C5.39479 8.02598 5.45232 7.44355 5.69134 6.9264C5.93036 6.40925 6.33698 5.98741 6.84571 5.72886C7.35444 5.47031 7.93569 5.39009 8.49583 5.50122C9.05597 5.61236 9.56231 5.90837 9.93324 6.34156C10.3042 6.77475 10.518 7.31984 10.5404 7.88896C10.5629 8.45806 10.3925 9.01807 10.057 9.47876L10.7507 9.98153C11.1997 9.36514 11.4275 8.61595 11.3975 7.85473C11.3676 7.09351 11.0815 6.36461 10.5856 5.78543Z" fill="#FCFCFC"/>
</svg>
