<svg width="16" height="16" viewBox="0 0 16 16" fill="none" xmlns="http://www.w3.org/2000/svg">
<path fill-rule="evenodd" clip-rule="evenodd" d="M8.3 3.20922V2H7.7V3.20922C5.288 3.35796 3.35796 5.288 3.20922 7.7H2V8.3H3.20922C3.35796 10.712 5.288 12.642 7.7 12.7908V14H8.3V12.7908C10.712 12.642 12.642 10.712 12.7908 8.3H14V7.7H12.7908C12.642 5.288 10.712 3.35796 8.3 3.20922ZM12.2 8C12.2 5.6804 10.3196 3.8 8 3.8C5.6804 3.8 3.8 5.6804 3.8 8C3.8 10.3196 5.6804 12.2 8 12.2C10.3196 12.2 12.2 10.3196 12.2 8Z" fill="#FCFCFC"/>
</svg>
