<svg width="16" height="16" viewBox="0 0 16 16" fill="none" xmlns="http://www.w3.org/2000/svg">
<path fill-rule="evenodd" clip-rule="evenodd" d="M2.21143 2.01945C2.37816 1.95877 2.56253 2.0448 2.62325 2.2116L3.53236 4.70928C4.8956 4.04715 6.4514 3.71945 7.9999 3.71945C9.54869 3.71945 11.1048 4.04727 12.4682 4.70964L13.3768 2.21168C13.4375 2.04487 13.6218 1.95886 13.7885 2.01958C13.9553 2.08029 14.0412 2.26474 13.9805 2.43156L13.041 5.01452C13.3284 5.18162 13.6051 5.36503 13.8689 5.5648C14.0103 5.67193 14.0382 5.87353 13.9312 6.01508C13.8241 6.15662 13.6226 6.18453 13.4812 6.07739C13.2691 5.91677 13.0474 5.76731 12.8174 5.62907L11.9199 8.09667C12.2898 8.28389 12.642 8.50065 12.9707 8.74719C13.1127 8.85365 13.1415 9.05512 13.0351 9.19717C12.9287 9.33922 12.7274 9.36806 12.5854 9.2616C12.3081 9.05361 12.011 8.86819 11.6984 8.70554L10.8004 11.1742C11.1519 11.3471 11.4841 11.5556 11.7893 11.7995C11.9279 11.9103 11.9505 12.1126 11.8398 12.2513C11.729 12.39 11.5269 12.4126 11.3883 12.3018C11.138 12.1017 10.8664 11.9285 10.5792 11.7822L9.8495 13.7884C9.78882 13.9552 9.60448 14.0412 9.43777 13.9805C9.27105 13.9198 9.1851 13.7354 9.24577 13.5685L9.98856 11.5265C8.73038 11.0708 7.27205 11.0715 6.0145 11.5287L6.75664 13.5676C6.81735 13.7344 6.73141 13.9188 6.56469 13.9795C6.39796 14.0402 6.21358 13.9542 6.15287 13.7874L5.4241 11.7851C5.13901 11.9308 4.86935 12.103 4.62073 12.3018C4.48212 12.4126 4.27999 12.39 4.16925 12.2513C4.05852 12.1126 4.08111 11.9103 4.21972 11.7995C4.5232 11.5569 4.85346 11.3494 5.20277 11.1771L4.3037 8.70696C3.99209 8.86927 3.69593 9.05421 3.4194 9.2616C3.27743 9.36806 3.07609 9.33922 2.96969 9.19717C2.86329 9.05512 2.89212 8.85365 3.03408 8.74719C3.36197 8.50129 3.71322 8.28501 4.08209 8.09812L3.18321 5.62856C2.95297 5.76694 2.73101 5.91657 2.51864 6.07739C2.37718 6.18453 2.17571 6.15662 2.06864 6.01508C1.96158 5.87353 1.98946 5.67193 2.13092 5.5648C2.39494 5.36486 2.67186 5.18131 2.95955 5.01409L2.01948 2.43135C1.95877 2.26454 2.04471 2.08013 2.21143 2.01945ZM10.2083 10.9225L11.1132 8.43469C10.1516 8.04131 9.0799 7.84231 8.00241 7.84231C6.92386 7.84231 5.85106 8.0417 4.88876 8.43585L5.79466 10.9247C7.19436 10.4157 8.80796 10.415 10.2083 10.9225ZM11.3331 7.83013L12.2472 5.31725C10.9678 4.68298 9.48761 4.3623 7.9999 4.3623C6.51253 4.3623 5.0327 4.68283 3.75349 5.31683L4.66873 7.83133C5.71047 7.40856 6.85927 7.19945 8.00241 7.19945C9.14446 7.19945 10.2922 7.40816 11.3331 7.83013Z" fill="#FCFCFC"/>
</svg>
