<svg width="16" height="16" viewBox="0 0 16 16" fill="none" xmlns="http://www.w3.org/2000/svg">
<path d="M2.775 2C2.34698 2 2 2.34698 2 2.775V8.22817C2 8.65619 2.34698 9.00317 2.775 9.00317H5.495C5.7021 9.00317 5.87 8.83528 5.87 8.62817C5.87 8.42106 5.7021 8.25317 5.495 8.25317H2.775C2.76119 8.25317 2.75 8.24198 2.75 8.22817V2.775C2.75 2.76119 2.76119 2.75 2.775 2.75L13.2203 2.75002C13.2341 2.75002 13.2453 2.76121 13.2453 2.77502V8.22817C13.2453 8.24198 13.2341 8.25317 13.2203 8.25317H10.495C10.2879 8.25317 10.12 8.42106 10.12 8.62817C10.12 8.83528 10.2879 9.00317 10.495 9.00317H13.2203C13.6483 9.00317 13.9953 8.65619 13.9953 8.22817V2.77502C13.9953 2.347 13.6483 2.00002 13.2203 2.00002L2.775 2Z" fill="#FCFCFC"/>
<path d="M8.36997 6.37818C8.36998 6.17107 8.20209 6.00318 7.99498 6.00317C7.78787 6.00317 7.61998 6.17106 7.61997 6.37817L7.61989 12.5271L6.26519 11.1182C6.12164 10.9689 5.88425 10.9643 5.73496 11.1078C5.58567 11.2514 5.58101 11.4888 5.72456 11.6381L7.99487 13.9992L10.2652 11.6381C10.4087 11.4888 10.4041 11.2514 10.2548 11.1078C10.1055 10.9643 9.86811 10.9689 9.72456 11.1182L8.36989 12.5271L8.36997 6.37818Z" fill="#FCFCFC"/>
</svg>
