<svg width="16" height="16" viewBox="0 0 16 16" fill="none" xmlns="http://www.w3.org/2000/svg">
<path fill-rule="evenodd" clip-rule="evenodd" d="M10.9999 6.80005C10.9999 9.11967 9.11955 11.0001 6.79997 11.0001C4.48039 11.0001 2.6 9.11967 2.6 6.80005C2.6 4.48043 4.48039 2.60001 6.79997 2.60001C9.11955 2.60001 10.9999 4.48043 10.9999 6.80005ZM9.97544 10.3996C9.12923 11.1467 8.01754 11.6001 6.79997 11.6001C4.14902 11.6001 2 9.45104 2 6.80005C2 4.14906 4.14902 2 6.79997 2C9.45091 2 11.5999 4.14906 11.5999 6.80005C11.5999 8.01753 11.1467 9.12915 10.3997 9.97535L13.9122 13.4879C14.0293 13.6051 14.0293 13.795 13.9122 13.9122C13.795 14.0293 13.6051 14.0293 13.4879 13.9122L9.97544 10.3996Z" fill="#FCFCFC"/>
</svg>
