<svg width="16" height="16" viewBox="0 0 16 16" fill="none" xmlns="http://www.w3.org/2000/svg">
<path fill-rule="evenodd" clip-rule="evenodd" d="M14 4.14286C14 5.32632 13.0406 6.28571 11.8571 6.28571C11.1336 6.28571 10.4938 5.92709 10.1058 5.3779L6.18207 7.33975C6.24936 7.54773 6.28571 7.76962 6.28571 8C6.28571 8.23038 6.24936 8.45227 6.18207 8.66025L10.1058 10.6221C10.4938 10.0729 11.1336 9.71429 11.8571 9.71429C13.0406 9.71429 14 10.6737 14 11.8571C14 13.0406 13.0406 14 11.8571 14C10.6737 14 9.71429 13.0406 9.71429 11.8571C9.71429 11.6268 9.75064 11.4049 9.81792 11.1969L5.89421 9.23506C5.50621 9.78424 4.86641 10.1429 4.14286 10.1429C2.95939 10.1429 2 9.18347 2 8C2 6.81653 2.95939 5.85714 4.14286 5.85714C4.86642 5.85714 5.50622 6.21576 5.89421 6.76495L9.81793 4.80309C9.75064 4.59512 9.71429 4.37323 9.71429 4.14286C9.71429 2.95939 10.6737 2 11.8571 2C13.0406 2 14 2.95939 14 4.14286ZM13.3571 4.14286C13.3571 4.97128 12.6856 5.64286 11.8571 5.64286C11.0287 5.64286 10.3571 4.97128 10.3571 4.14286C10.3571 3.31443 11.0287 2.64286 11.8571 2.64286C12.6856 2.64286 13.3571 3.31443 13.3571 4.14286ZM5.64286 8C5.64286 8.82843 4.97128 9.5 4.14286 9.5C3.31443 9.5 2.64286 8.82843 2.64286 8C2.64286 7.17157 3.31443 6.5 4.14286 6.5C4.97128 6.5 5.64286 7.17157 5.64286 8ZM11.8571 13.3571C12.6856 13.3571 13.3571 12.6856 13.3571 11.8571C13.3571 11.0287 12.6856 10.3571 11.8571 10.3571C11.0287 10.3571 10.3571 11.0287 10.3571 11.8571C10.3571 12.6856 11.0287 13.3571 11.8571 13.3571Z" fill="#FCFCFC"/>
</svg>
