<svg width="16" height="16" viewBox="0 0 16 16" fill="none" xmlns="http://www.w3.org/2000/svg">
<path fill-rule="evenodd" clip-rule="evenodd" d="M12 4C12.5523 4 13 4.44772 13 5V11C13 11.5523 12.5523 12 12 12H4C3.44772 12 3 11.5523 3 11V5C3 4.44772 3.44772 4 4 4H12ZM7.62988 4.75H4C3.86193 4.75 3.75 4.86193 3.75 5V11C3.75 11.1381 3.86193 11.25 4 11.25H7.62988L7.62988 4.75ZM8.37988 11.25H12C12.1381 11.25 12.25 11.1381 12.25 11V5C12.25 4.86193 12.1381 4.75 12 4.75H8.37988L8.37988 11.25Z" fill="#FCFCFC"/>
<path fill-rule="evenodd" clip-rule="evenodd" d="M3 2C1.89543 2 1 2.89543 1 4V12C1 13.1046 1.89543 14 3 14H13C14.1046 14 15 13.1046 15 12V4C15 2.89543 14.1046 2 13 2H3ZM13 2.75H3C2.30964 2.75 1.75 3.30964 1.75 4V12C1.75 12.6904 2.30964 13.25 3 13.25H13C13.6904 13.25 14.25 12.6904 14.25 12V4C14.25 3.30964 13.6904 2.75 13 2.75Z" fill="#FCFCFC"/>
</svg>
