<svg width="16" height="16" viewBox="0 0 16 16" fill="none" xmlns="http://www.w3.org/2000/svg">
<path fill-rule="evenodd" clip-rule="evenodd" d="M3.12505 4.6C3.12505 4.06152 3.56157 3.625 4.10005 3.625H11.9C12.4385 3.625 12.875 4.06152 12.875 4.6V13.0196C12.875 13.5581 12.4385 13.9946 11.9 13.9946H4.10005C3.56157 13.9946 3.12505 13.5581 3.12505 13.0196V4.6ZM4.10005 4.375C3.97578 4.375 3.87505 4.47574 3.87505 4.6V13.0196C3.87505 13.1439 3.97578 13.2446 4.10005 13.2446H11.9C12.0243 13.2446 12.125 13.1439 12.125 13.0196V4.6C12.125 4.47574 12.0243 4.375 11.9 4.375H4.10005Z" fill="#FCFCFC"/>
<path fill-rule="evenodd" clip-rule="evenodd" d="M3.125 2.4021C3.125 2.19499 3.29289 2.0271 3.5 2.0271L12.5 2.0271C12.7071 2.0271 12.875 2.195 12.875 2.4021C12.875 2.60921 12.7071 2.7771 12.5 2.7771L3.5 2.7771C3.29289 2.7771 3.125 2.60921 3.125 2.4021Z" fill="#FCFCFC"/>
<path fill-rule="evenodd" clip-rule="evenodd" d="M5.5 5.625C5.70711 5.625 5.875 5.79289 5.875 6L5.875 12C5.875 12.2071 5.70711 12.375 5.5 12.375C5.29289 12.375 5.125 12.2071 5.125 12L5.125 6C5.125 5.79289 5.29289 5.625 5.5 5.625Z" fill="#FCFCFC"/>
<path fill-rule="evenodd" clip-rule="evenodd" d="M10.5 5.62503C10.7071 5.62503 10.875 5.79292 10.875 6.00003L10.875 12C10.875 12.2071 10.7071 12.375 10.5 12.375C10.2929 12.375 10.125 12.2071 10.125 12L10.125 6.00003C10.125 5.79292 10.2929 5.62503 10.5 5.62503Z" fill="#FCFCFC"/>
<path fill-rule="evenodd" clip-rule="evenodd" d="M7.99992 5.625C8.20703 5.625 8.37492 5.79289 8.37492 6L8.37492 12C8.37492 12.2071 8.20703 12.375 7.99992 12.375C7.79282 12.375 7.62492 12.2071 7.62492 12L7.62492 6C7.62492 5.79289 7.79282 5.625 7.99992 5.625Z" fill="#FCFCFC"/>
</svg>
