<svg width="16" height="16" viewBox="0 0 16 16" fill="none" xmlns="http://www.w3.org/2000/svg">
<path fill-rule="evenodd" clip-rule="evenodd" d="M10.5718 8C10.5718 9.49117 9.42052 10.7 8.00029 10.7C6.58006 10.7 5.42874 9.49117 5.42874 8C5.42874 6.50883 6.58006 5.3 8.00029 5.3C9.42052 5.3 10.5718 6.50883 10.5718 8ZM9.92896 8C9.92896 9.11838 9.06546 10.025 8.00029 10.025C6.93512 10.025 6.07163 9.11838 6.07163 8C6.07163 6.88163 6.93512 5.975 8.00029 5.975C9.06546 5.975 9.92896 6.88163 9.92896 8Z" fill="#FCFCFC"/>
<path fill-rule="evenodd" clip-rule="evenodd" d="M2.51717 9.55545C1.82761 8.64554 1.82761 7.35446 2.51717 6.44455C3.89107 4.63163 5.83932 3.5 8 3.5C10.1607 3.5 12.1089 4.63163 13.4828 6.44455C14.1724 7.35446 14.1724 8.64554 13.4828 9.55545C12.1089 11.3684 10.1607 12.5 8 12.5C5.83932 12.5 3.89107 11.3684 2.51717 9.55545ZM3.02024 6.86483C4.29181 5.18694 6.06473 4.175 8 4.175C9.93527 4.175 11.7082 5.18694 12.9798 6.86483C13.4829 7.52874 13.4829 8.47126 12.9798 9.13517C11.7082 10.8131 9.93527 11.825 8 11.825C6.06473 11.825 4.29181 10.8131 3.02024 9.13517C2.5171 8.47126 2.5171 7.52874 3.02024 6.86483Z" fill="#FCFCFC"/>
</svg>
