<svg width="16" height="16" viewBox="0 0 16 16" fill="none" xmlns="http://www.w3.org/2000/svg">
<path d="M9.60866 4.46347C9.60866 4.28601 9.4648 4.14215 9.28734 4.14215C9.10988 4.14215 8.96602 4.28601 8.96602 4.46347V6.38711H7.03811C6.86066 6.38711 6.7168 6.53097 6.7168 6.70844C6.7168 6.8859 6.86066 7.02976 7.03811 7.02976H8.96602V8.96198C8.96602 9.13944 9.10988 9.2833 9.28734 9.2833C9.4648 9.2833 9.60866 9.13944 9.60866 8.96198V7.02976H11.5366C11.714 7.02976 11.8579 6.8859 11.8579 6.70844C11.8579 6.53097 11.714 6.38711 11.5366 6.38711H9.60866V4.46347Z" fill="#FCFCFC"/>
<path fill-rule="evenodd" clip-rule="evenodd" d="M14 6.71272C14 9.31549 11.8901 11.4254 9.28734 11.4254C8.10158 11.4254 7.0181 10.9875 6.18982 10.2646L2.54852 13.9059C2.42304 14.0314 2.21959 14.0314 2.09411 13.9059C1.96863 13.7804 1.96863 13.577 2.09411 13.4515L5.73542 9.81013C5.01255 8.98186 4.57468 7.89843 4.57468 6.71272C4.57468 4.10996 6.68461 2 9.28734 2C11.8901 2 14 4.10996 14 6.71272ZM13.3574 6.71272C13.3574 8.96057 11.5352 10.7828 9.28734 10.7828C7.03953 10.7828 5.21731 8.96057 5.21731 6.71272C5.21731 4.46488 7.03953 2.64264 9.28734 2.64264C11.5352 2.64264 13.3574 4.46488 13.3574 6.71272Z" fill="#FCFCFC"/>
</svg>
