<svg width="100%" height="100%" viewBox="0 0 1809 322" fill="none" xmlns="http://www.w3.org/2000/svg">
<path fill-rule="evenodd" clip-rule="evenodd" d="M1008.32 65.2207C1023.99 65.2207 1038.25 75.8594 1038.25 91.1081C1038.25 106.499 1023.99 116.783 1008.32 116.783C992.713 116.783 978.386 106.357 978.386 91.0371C978.386 75.4338 992.713 65.2207 1008.32 65.2207ZM1008.32 111.251C1021.65 111.251 1031.72 102.314 1031.72 91.1081C1031.72 79.8311 1021.65 70.7528 1008.32 70.7528C995.053 70.7528 984.911 79.8311 984.911 91.1081C984.911 102.243 995.053 111.251 1008.32 111.251ZM940.964 115.222L941.248 115.932H933.801C933.801 115.932 918.41 98.0587 916.495 96.0018H904.038V90.5407H922.878C928.552 90.5407 934.085 86.2143 934.085 81.0368C934.085 75.221 928.552 71.533 922.808 71.533H904.013V71.5349H897.353L897.346 66.2136H922.595C931.46 66.2136 940.539 71.8167 940.539 80.9659C940.539 88.9094 932.595 95.4345 924.723 95.7891C924.687 95.8245 924.545 95.8245 924.403 95.8245H924.403H924.403C924.261 95.8245 924.12 95.8245 924.084 95.86L924.793 96.3565L940.964 115.222ZM1126.15 66.2136H1119.34L1099.98 107.633L1080.48 66.2136H1073.24L1097.36 116.003H1102.46L1126.15 66.2136ZM1208.04 110.612V115.932H1165.56L1165.56 110.613H1178.52V110.612H1208.04ZM1172.36 93.9458V93.8741H1200.88V88.6966H1178.52V88.6986H1165.59L1165.59 93.9458H1172.36ZM1172.36 71.5349H1165.62L1165.63 66.2846H1207.12V71.533H1172.36V71.5349ZM1292.9 115.932L1292.62 115.222L1276.45 96.3565L1275.74 95.86C1275.78 95.8245 1275.92 95.8245 1276.06 95.8245C1276.2 95.8245 1276.34 95.8245 1276.38 95.7891C1284.25 95.4345 1292.2 88.9094 1292.2 80.9659C1292.2 71.8167 1283.12 66.2136 1274.25 66.2136H1249L1249.01 71.5349H1255.67V71.533H1274.46C1280.21 71.533 1285.74 75.221 1285.74 81.0368C1285.74 86.2143 1280.21 90.5407 1274.54 90.5407H1255.68V96.0018H1268.15C1270.07 98.0587 1285.46 115.932 1285.46 115.932H1292.9Z" fill="#FF3D00"/>
<path fill-rule="evenodd" clip-rule="evenodd" d="M901.19 181.908C878.739 153.743 866.267 122.572 866.267 89.782C866.267 57.8988 878.059 27.5468 899.35 0C874.776 27.0342 860.933 57.5963 860.933 89.9559C860.933 123.114 875.468 154.386 901.19 181.908Z" fill="url(#egg_albumen_arc_grad)" />
<g filter="url(#filter0_d)">
<path d="M576.841 116.806L576.841 66.7557L570.681 66.7557L570.681 116.806L576.841 116.806ZM672.955 116.806V116.106L658.885 96.0857L658.255 95.5957C665.185 95.2457 671.835 89.1557 671.835 81.1057C671.835 71.9357 664.975 66.7557 657.485 66.7557L637.185 66.7557L637.255 116.806L643.415 116.806L643.415 95.8057L651.325 95.8057C652.865 97.9057 666.515 116.806 666.515 116.806L672.955 116.806ZM666.025 81.1757C666.025 86.3557 661.545 90.2757 656.995 90.2757L643.415 90.2757L643.415 72.1457L656.925 72.1457C661.545 72.1457 666.025 75.5057 666.025 81.1757ZM738.773 116.806L738.773 66.7557L732.613 66.7557L732.613 116.806L738.773 116.806ZM834.748 102.316C834.748 94.5457 829.638 91.3257 824.458 89.6457C822.638 89.0857 820.328 88.5957 818.018 88.1757C816.198 87.8257 814.098 87.4757 812.418 86.9857C808.708 85.8657 803.388 84.2557 803.388 79.9857C803.388 74.8757 808.358 71.3757 816.128 71.3757C821.308 71.3757 826.348 73.3357 830.828 76.9757L833.838 72.3557C828.938 68.1557 822.568 65.8457 816.128 65.8457C808.428 65.8457 797.438 68.9957 797.438 80.1257C797.438 89.1557 805.978 92.3057 813.888 93.6357C815.148 93.9857 816.618 94.1957 818.158 94.4057C823.198 95.3157 828.798 96.7857 828.798 102.316C828.798 109.316 820.538 111.766 814.728 111.766C810.108 111.766 805.068 109.736 799.958 106.376L797.438 111.346C802.898 115.266 808.638 117.366 815.078 117.366C822.148 117.366 834.748 114.426 834.748 102.316Z" fill="#FF3D00"/>
</g>
<defs>
<filter id="filter0_d" x="566.681" y="65.8457" width="272.067" height="59.52" filterUnits="userSpaceOnUse" color-interpolation-filters="sRGB">
<feFlood flood-opacity="0" result="BackgroundImageFix"/>
<feColorMatrix in="SourceAlpha" type="matrix" values="0 0 0 0 0 0 0 0 0 0 0 0 0 0 0 0 0 0 127 0"/>
<feOffset dy="4"/>
<feGaussianBlur stdDeviation="2"/>
<feColorMatrix type="matrix" values="0 0 0 0 0 0 0 0 0 0 0 0 0 0 0 0 0 0 0.25 0"/>
<feBlend mode="normal" in2="BackgroundImageFix" result="effect1_dropShadow"/>
<feBlend mode="normal" in="SourceGraphic" in2="effect1_dropShadow" result="shape"/>
</filter>
<linearGradient id="egg_albumen_arc_grad" x1="860.933" y1="90.8828" x2="875.466" y2="90.8828" gradientUnits="userSpaceOnUse">
<stop stop-color="white"/>
<stop offset="1" stop-color="white" stop-opacity="0.49"/>
</linearGradient>
</defs>
</svg>
