<svg width="100%" height="100%" viewBox="0 0 1809 329" fill="none" xmlns="http://www.w3.org/2000/svg">
<path d="M238.377 231.758V228.158H203.193L203.241 231.758H218.553V261.806H223.209V231.758H238.377ZM287.854 261.806V228.158H283.246V243.278H261.598V228.158H256.99V261.806H261.598V247.022H283.246V261.806H287.854ZM337.714 261.806V258.206H313.57V246.878H332.866V243.374H313.57V231.758H337.09V228.206H309.01L308.962 261.806H337.714ZM386.989 261.806L386.797 261.326L375.853 248.558L375.373 248.222C375.421 248.174 375.757 248.222 375.805 248.174C381.133 247.934 386.509 243.518 386.509 238.142C386.509 231.95 380.365 228.158 374.365 228.158H357.277L357.325 261.806H361.789V248.318H370.237C371.533 249.71 381.949 261.806 381.949 261.806H386.989ZM382.141 238.19C382.141 241.694 378.397 244.622 374.557 244.622H361.789V231.758H374.509C378.397 231.758 382.141 234.254 382.141 238.19ZM435.422 261.806V258.206H411.278V246.878H430.574V243.374H411.278V231.758H434.798V228.206H406.718L406.67 261.806H435.422ZM492.142 261.806V228.206H487.63V261.806H492.142ZM544.16 252.062C544.16 246.83 539.936 244.718 535.568 243.614C532.88 242.894 528.896 242.51 525.488 241.79C522.272 241.07 517.568 240.062 517.568 236.99C517.568 233.534 521.984 231.182 528.656 231.182C533.216 231.182 537.344 232.334 540.944 234.878L542.96 231.95C538.688 228.83 533.984 227.534 528.656 227.534C522.272 227.534 513.104 229.646 513.104 237.134C513.104 243.326 520.16 245.294 526.784 246.206C527.888 246.398 529.136 246.542 530.432 246.686C534.8 247.31 539.648 248.318 539.648 252.062C539.648 256.862 532.496 258.494 527.504 258.494C523.472 258.494 519.008 257.054 514.832 254.894L513.056 258.206C517.568 260.75 522.368 262.19 527.744 262.19C533.648 262.19 544.16 260.222 544.16 252.062ZM628.791 261.854V228.158H624.423V254.078L597.927 228.158H594.807V261.806H599.271V235.358L626.295 261.854H628.791ZM678.671 261.806V258.206H654.527V246.878H673.823V243.374H654.527V231.758H678.047V228.206H649.967L649.919 261.806H678.671ZM730.291 228.158H725.683L712.579 256.19L699.379 228.158H694.483L710.803 261.854H714.259L730.291 228.158ZM777.551 261.806V258.206H753.407V246.878H772.703V243.374H753.407V231.758H776.927V228.206H748.847L748.799 261.806H777.551ZM826.826 261.806L826.634 261.326L815.69 248.558L815.21 248.222C815.258 248.174 815.594 248.222 815.642 248.174C820.97 247.934 826.346 243.518 826.346 238.142C826.346 231.95 820.202 228.158 814.202 228.158H797.114L797.162 261.806H801.626V248.318H810.074C811.37 249.71 821.786 261.806 821.786 261.806H826.826ZM821.978 238.19C821.978 241.694 818.234 244.622 814.394 244.622H801.626V231.758H814.346C818.234 231.758 821.978 234.254 821.978 238.19ZM911.313 261.806L895.473 228.062H891.777L875.649 261.806H880.305L884.049 253.79H902.865L906.561 261.806H911.313ZM901.185 250.238H885.729L893.457 233.726L893.505 233.678L901.185 250.238ZM990.842 252.062C990.842 246.83 986.618 244.718 982.25 243.614C979.562 242.894 975.578 242.51 972.17 241.79C968.954 241.07 964.25 240.062 964.25 236.99C964.25 233.534 968.666 231.182 975.338 231.182C979.898 231.182 984.026 232.334 987.626 234.878L989.642 231.95C985.37 228.83 980.666 227.534 975.338 227.534C968.954 227.534 959.786 229.646 959.786 237.134C959.786 243.326 966.842 245.294 973.466 246.206C974.57 246.398 975.818 246.542 977.114 246.686C981.482 247.31 986.33 248.318 986.33 252.062C986.33 256.862 979.178 258.494 974.186 258.494C970.154 258.494 965.69 257.054 961.514 254.894L959.738 258.206C964.25 260.75 969.05 262.19 974.426 262.19C980.33 262.19 990.842 260.222 990.842 252.062ZM1039.03 261.806V258.206H1014.89V246.878H1034.19V243.374H1014.89V231.758H1038.41V228.206H1010.33L1010.28 261.806H1039.03ZM1092.03 256.526L1089.44 253.742C1086.23 256.238 1081.67 258.686 1075.47 258.686C1068.42 258.686 1060.55 253.598 1060.55 244.958C1060.55 236.606 1067.99 231.278 1075.38 231.278C1081.14 231.278 1085.31 233.294 1089.01 235.982L1091.36 232.91C1087.19 229.79 1082.1 227.486 1075.23 227.486C1065.87 227.486 1055.89 234.302 1055.89 244.91C1055.89 256.286 1066.69 262.382 1075.43 262.382C1083.3 262.382 1088.96 259.214 1092.03 256.526ZM1148.89 245.006C1148.89 234.686 1139.24 227.486 1128.63 227.486C1118.07 227.486 1108.38 234.398 1108.38 244.958C1108.38 255.326 1118.07 262.382 1128.63 262.382C1139.24 262.382 1148.89 255.422 1148.89 245.006ZM1144.47 245.006C1144.47 252.59 1137.66 258.638 1128.63 258.638C1119.66 258.638 1112.79 252.542 1112.79 245.006C1112.79 237.374 1119.66 231.23 1128.63 231.23C1137.66 231.23 1144.47 237.374 1144.47 245.006ZM1202.34 261.854V228.158H1197.97V254.078L1171.47 228.158H1168.35V261.806H1172.82V235.358L1199.84 261.854H1202.34ZM1257.5 245.054C1257.5 233.87 1247.8 228.206 1239.21 228.206H1223.46V261.806H1238.54C1247.32 261.806 1257.5 256.19 1257.5 245.054ZM1253.13 245.102C1253.13 253.886 1244.97 258.254 1238.25 258.254H1227.98V231.71H1238.34C1245.78 231.71 1253.13 236.03 1253.13 245.102ZM1343.41 256.526L1340.81 253.742C1337.6 256.238 1333.04 258.686 1326.85 258.686C1319.79 258.686 1311.92 253.598 1311.92 244.958C1311.92 236.606 1319.36 231.278 1326.75 231.278C1332.51 231.278 1336.69 233.294 1340.38 235.982L1342.73 232.91C1338.56 229.79 1333.47 227.486 1326.61 227.486C1317.25 227.486 1307.26 234.302 1307.26 244.91C1307.26 256.286 1318.06 262.382 1326.8 262.382C1334.67 262.382 1340.33 259.214 1343.41 256.526ZM1393.6 261.806V228.158H1388.99V243.278H1367.35V228.158H1362.74V261.806H1367.35V247.022H1388.99V261.806H1393.6ZM1448.31 261.806L1432.47 228.062H1428.77L1412.64 261.806H1417.3L1421.04 253.79H1439.86L1443.56 261.806H1448.31ZM1438.18 250.238H1422.72L1430.45 233.726L1430.5 233.678L1438.18 250.238ZM1500.66 261.854V228.158H1496.3V254.078L1469.8 228.158H1466.68V261.806H1471.14V235.358L1498.17 261.854H1500.66ZM1556.4 256.526L1553.81 253.742C1550.59 256.238 1546.03 258.686 1539.84 258.686C1532.78 258.686 1524.91 253.598 1524.91 244.958C1524.91 236.606 1532.35 231.278 1539.74 231.278C1545.5 231.278 1549.68 233.294 1553.38 235.982L1555.73 232.91C1551.55 229.79 1546.46 227.486 1539.6 227.486C1530.24 227.486 1520.26 234.302 1520.26 244.91C1520.26 256.286 1531.06 262.382 1539.79 262.382C1547.66 262.382 1553.33 259.214 1556.4 256.526ZM1604.48 261.806V258.206H1580.34V246.878H1599.64V243.374H1580.34V231.758H1603.86V228.206H1575.78L1575.73 261.806H1604.48ZM602.316 297.758V294.158H567.132L567.18 297.758H582.492V327.806H587.148V297.758H602.316ZM656.719 311.006C656.719 300.686 647.071 293.486 636.463 293.486C625.903 293.486 616.207 300.398 616.207 310.958C616.207 321.326 625.903 328.382 636.463 328.382C647.071 328.382 656.719 321.422 656.719 311.006ZM652.303 311.006C652.303 318.59 645.487 324.638 636.463 324.638C627.487 324.638 620.623 318.542 620.623 311.006C620.623 303.374 627.487 297.23 636.463 297.23C645.487 297.23 652.303 303.374 652.303 311.006ZM737.244 318.734C737.244 314.894 733.932 311.918 730.668 310.91V310.67C733.692 309.47 736.476 307.166 736.476 303.326C736.476 297.23 730.236 294.206 723.9 294.206H707.388V327.806H725.004C730.62 327.806 737.244 325.118 737.244 318.734ZM732.636 318.638C732.636 322.478 728.748 324.302 724.284 324.302H711.852V312.686H724.476C728.94 312.686 732.636 315.038 732.636 318.638ZM732.108 303.518C732.108 307.31 728.22 309.326 724.284 309.326L711.804 309.278L711.852 297.662H723.948C728.46 297.662 732.108 299.726 732.108 303.518ZM785.908 327.806V324.206H761.764V312.878H781.06V309.374H761.764V297.758H785.284V294.206H757.204L757.156 327.806H785.908ZM869.941 297.758V294.158H834.757L834.805 297.758H850.117V327.806H854.773V297.758H869.941ZM919.418 327.806V294.158H914.81V309.278H893.162V294.158H888.554V327.806H893.162V313.022H914.81V327.806H919.418ZM969.277 327.806V324.206H945.133V312.878H964.429V309.374H945.133V297.758H968.653V294.206H940.573L940.525 327.806H969.277ZM1048.17 297.758V294.206H1020.09L1020.05 327.806H1024.51L1024.56 313.502H1043.66V309.902H1024.56V297.758H1048.17ZM1072.81 327.806V294.206H1068.3V327.806H1072.81ZM1124.59 327.806L1124.4 327.326L1113.46 314.558L1112.98 314.222C1113.02 314.174 1113.36 314.222 1113.41 314.174C1118.74 313.934 1124.11 309.518 1124.11 304.142C1124.11 297.95 1117.97 294.158 1111.97 294.158H1094.88L1094.93 327.806H1099.39V314.318H1107.84C1109.14 315.71 1119.55 327.806 1119.55 327.806H1124.59ZM1119.74 304.19C1119.74 307.694 1116 310.622 1112.16 310.622H1099.39V297.758H1112.11C1116 297.758 1119.74 300.254 1119.74 304.19ZM1174.22 318.062C1174.22 312.83 1170 310.718 1165.63 309.614C1162.94 308.894 1158.96 308.51 1155.55 307.79C1152.34 307.07 1147.63 306.062 1147.63 302.99C1147.63 299.534 1152.05 297.182 1158.72 297.182C1163.28 297.182 1167.41 298.334 1171.01 300.878L1173.02 297.95C1168.75 294.83 1164.05 293.534 1158.72 293.534C1152.34 293.534 1143.17 295.646 1143.17 303.134C1143.17 309.326 1150.22 311.294 1156.85 312.206C1157.95 312.398 1159.2 312.542 1160.5 312.686C1164.86 313.31 1169.71 314.318 1169.71 318.062C1169.71 322.862 1162.56 324.494 1157.57 324.494C1153.54 324.494 1149.07 323.054 1144.9 320.894L1143.12 324.206C1147.63 326.75 1152.43 328.19 1157.81 328.19C1163.71 328.19 1174.22 326.222 1174.22 318.062ZM1225.66 297.758V294.158H1190.48L1190.53 297.758H1205.84V327.806H1210.5V297.758H1225.66ZM1240.39 325.646C1240.39 324.11 1239 323.054 1237.6 323.054C1236.21 323.054 1234.82 324.11 1234.82 325.646C1234.82 327.182 1236.21 328.238 1237.6 328.238C1239 328.238 1240.39 327.182 1240.39 325.646Z" fill="white"/>
</svg>
