<svg width="19" height="19" viewBox="0 0 19 19" fill="none" xmlns="http://www.w3.org/2000/svg">
<path d="M11.3189 5.46825C11.5142 5.27307 11.5144 4.95649 11.3192 4.76115C11.124 4.56581 10.8074 4.56569 10.6121 4.76087L11.3189 5.46825ZM1.00006 18L0.50006 18L0.50007 18.5H1.00006V18ZM16.4742 4.75981C16.2788 4.95499 16.2787 5.27157 16.4739 5.46691C16.6691 5.66225 16.9857 5.66237 17.181 5.46719L16.4742 4.75981ZM17.2926 4.64888L17.646 5.00257L17.2926 4.64888ZM13.1534 4.31868L13.5071 3.96524L13.1534 4.31868ZM14.6792 7.26018L14.3258 6.90649L14.6792 7.26018ZM14.6797 5.84592L14.3261 6.19936L14.6797 5.84592ZM4.22393 17.7074L3.87051 17.3537L4.22393 17.7074ZM14.3525 1.70678L14.7059 2.06047L14.3525 1.70678ZM15.7667 1.70727L15.413 2.06072L15.7667 1.70727ZM10.6121 4.76087L0.939759 14.4257L1.64659 15.1331L11.3189 5.46825L10.6121 4.76087ZM0.500008 15.4868L0.50006 18L1.50006 18L1.50001 15.4868L0.500008 15.4868ZM1.00006 18.5H3.5171V17.5H1.00006V18.5ZM4.57735 18.0611L15.0327 7.61387L14.3258 6.90649L3.87051 17.3537L4.57735 18.0611ZM15.0334 5.49247L13.5071 3.96524L12.7998 4.67212L14.3261 6.19936L15.0334 5.49247ZM13.5074 3.2581L14.7059 2.06047L13.9991 1.35309L12.8005 2.55072L13.5074 3.2581ZM15.413 2.06072L16.9394 3.58806L17.6467 2.88117L16.1203 1.35383L15.413 2.06072ZM16.9391 4.29519L16.4742 4.75981L17.181 5.46719L17.646 5.00257L16.9391 4.29519ZM16.9394 3.58806C17.1346 3.78339 17.1345 4.09999 16.9391 4.29519L17.646 5.00257C18.232 4.41698 18.2324 3.46717 17.6467 2.88117L16.9394 3.58806ZM13.5071 3.96524C13.3119 3.7699 13.312 3.4533 13.5074 3.2581L12.8005 2.55072C12.2145 3.13631 12.2142 4.08612 12.7998 4.67212L13.5071 3.96524ZM15.0327 7.61387C15.6187 7.02828 15.619 6.07847 15.0334 5.49247L14.3261 6.19936C14.5213 6.39469 14.5212 6.7113 14.3258 6.90649L15.0327 7.61387ZM3.5171 18.5C3.91472 18.5 4.29608 18.3421 4.57735 18.0611L3.87051 17.3537C3.77676 17.4474 3.64964 17.5 3.5171 17.5V18.5ZM14.7059 2.06047C14.9013 1.86529 15.2178 1.8654 15.413 2.06072L16.1203 1.35383C15.5348 0.767892 14.5851 0.767561 13.9991 1.35309L14.7059 2.06047ZM0.939759 14.4257C0.658196 14.707 0.5 15.0887 0.500008 15.4868L1.50001 15.4868C1.50001 15.3541 1.55274 15.2268 1.64659 15.1331L0.939759 14.4257Z" fill="#333333"/>
</svg>
