<svg width="14" height="14" viewBox="0 0 14 14" fill="none" xmlns="http://www.w3.org/2000/svg">
<path fill-rule="evenodd" clip-rule="evenodd" d="M7 11.375C9.41625 11.375 11.375 9.41625 11.375 7C11.375 4.58375 9.41625 2.625 7 2.625C4.58375 2.625 2.625 4.58375 2.625 7C2.625 9.41625 4.58375 11.375 7 11.375ZM7 12C9.76142 12 12 9.76142 12 7C12 4.23858 9.76142 2 7 2C4.23858 2 2 4.23858 2 7C2 9.76142 4.23858 12 7 12ZM4.5 7C4.5 6.82741 4.63991 6.6875 4.8125 6.6875H6.6875V4.8125C6.6875 4.63991 6.82741 4.5 7 4.5C7.17259 4.5 7.3125 4.63991 7.3125 4.8125V6.6875H9.1875C9.36009 6.6875 9.5 6.82741 9.5 7C9.5 7.17259 9.36009 7.3125 9.1875 7.3125H7.3125V9.1875C7.3125 9.36009 7.17259 9.5 7 9.5C6.82741 9.5 6.6875 9.36009 6.6875 9.1875V7.3125H4.8125C4.63991 7.3125 4.5 7.17259 4.5 7Z" fill="#FCFCFC"/>
</svg>
