<svg width="14" height="15" viewBox="0 0 14 15" fill="none" xmlns="http://www.w3.org/2000/svg">
<path d="M11.9055 2.53315C12.0274 2.41118 12.0274 2.21344 11.9055 2.09147C11.7835 1.96951 11.5858 1.96951 11.4638 2.09147L7 6.55528L2.5362 2.09148C2.41423 1.96952 2.21649 1.96952 2.09452 2.09148C1.97256 2.21345 1.97256 2.41119 2.09452 2.53316L6.55832 6.99696L2.09147 11.4638C1.96951 11.5858 1.96951 11.7835 2.09147 11.9055C2.21344 12.0274 2.41118 12.0274 2.53315 11.9055L7 7.43863L11.4669 11.9055C11.5888 12.0275 11.7866 12.0275 11.9085 11.9055C12.0305 11.7835 12.0305 11.5858 11.9085 11.4638L7.44167 6.99696L11.9055 2.53315Z" fill="#FCFCFC"/>
</svg>
