<svg width="14" height="14" viewBox="0 0 14 14" fill="none" xmlns="http://www.w3.org/2000/svg">
<path d="M7.00005 7.96429C6.82757 7.96429 6.68775 7.82038 6.68775 7.64286V5.39286C6.68775 5.21534 6.82757 5.07143 7.00005 5.07143C7.17252 5.07143 7.31234 5.21534 7.31234 5.39286V7.64286C7.31234 7.82038 7.17252 7.96429 7.00005 7.96429Z" fill="#FCFCFC"/>
<path d="M6.37546 9.25C6.37546 8.89496 6.6551 8.60714 7.00005 8.60714C7.345 8.60714 7.62463 8.89496 7.62463 9.25C7.62463 9.60504 7.345 9.89286 7.00005 9.89286C6.6551 9.89286 6.37546 9.60504 6.37546 9.25Z" fill="#FCFCFC"/>
<path fill-rule="evenodd" clip-rule="evenodd" d="M11.8419 9.7825L7.96759 3.06361C7.53427 2.31213 6.46573 2.31213 6.03241 3.06361L2.15812 9.7825C1.70428 10.5695 2.28942 11.5 3.12571 11.5H10.8743C11.7106 11.5 12.2957 10.5696 11.8419 9.7825ZM6.56952 3.3917C6.76085 3.05991 7.23915 3.05991 7.43048 3.39171L11.3048 10.1106C11.4961 10.4424 11.2569 10.8571 10.8743 10.8571H3.12571C2.74306 10.8571 2.50391 10.4424 2.69523 10.1106L6.56952 3.3917Z" fill="#FCFCFC"/>
</svg>
