<svg width="14" height="14" viewBox="0 0 14 14" fill="none" xmlns="http://www.w3.org/2000/svg">
<path d="M2.75018 2.38C2.75018 2.1729 2.58229 2.005 2.37518 2.005C2.16808 2.005 2.00018 2.1729 2.00018 2.38V8.89534C2.00018 8.89536 2.00018 8.89533 2.00018 8.89534V12.005H11.6252C11.8323 12.005 12.0002 11.8371 12.0002 11.63C12.0002 11.4229 11.8323 11.255 11.6252 11.255H2.75018V9.07556L6 6.48008L8.5227 8.49823L11.8849 5.27052C12.0343 5.12709 12.0391 4.88971 11.8957 4.7403C11.7523 4.5909 11.5149 4.58605 11.3655 4.72948L8.4777 7.50177L6.00039 5.51992L2.75018 8.11572V2.38Z" fill="#FCFCFC"/>
</svg>
