<svg width="14" height="14" viewBox="0 0 14 14" fill="none" xmlns="http://www.w3.org/2000/svg">
<path fill-rule="evenodd" clip-rule="evenodd" d="M6.0625 2.8125C6.0625 2.36377 6.42627 2 6.875 2H11.1875C11.6362 2 12 2.36377 12 2.8125V6.8125C12 7.26123 11.6362 7.625 11.1875 7.625H10.3125C10.2089 7.625 10.125 7.70895 10.125 7.8125V11.1875C10.125 11.6362 9.76123 12 9.3125 12H2.8125C2.36377 12 2 11.6362 2 11.1875V4.6875C2 4.23877 2.36377 3.875 2.8125 3.875H5.125C5.29759 3.875 5.4375 4.01491 5.4375 4.1875C5.4375 4.36009 5.29759 4.5 5.125 4.5H2.8125C2.70895 4.5 2.625 4.58395 2.625 4.6875V11.1875C2.625 11.2911 2.70895 11.375 2.8125 11.375H9.3125C9.41605 11.375 9.5 11.2911 9.5 11.1875V7.8125C9.5 7.36377 9.86377 7 10.3125 7H11.1875C11.2911 7 11.375 6.91605 11.375 6.8125V2.8125C11.375 2.70895 11.2911 2.625 11.1875 2.625H6.875C6.77145 2.625 6.6875 2.70895 6.6875 2.8125V3.6875C6.6875 3.79105 6.77145 3.875 6.875 3.875H9.3125C9.76123 3.875 10.125 4.23877 10.125 4.6875V5.76645C10.125 5.93904 9.98509 6.07895 9.8125 6.07895C9.63991 6.07895 9.5 5.93904 9.5 5.76645V4.6875C9.5 4.58395 9.41605 4.5 9.3125 4.5H6.875C6.42627 4.5 6.0625 4.13623 6.0625 3.6875V2.8125Z" fill="#FCFCFC"/>
</svg>
