<svg width="14" height="14" viewBox="0 0 14 14" fill="none" xmlns="http://www.w3.org/2000/svg">
<path fill-rule="evenodd" clip-rule="evenodd" d="M2 2.8125C2 2.36377 2.36377 2 2.8125 2H11.1875C11.6362 2 12 2.36377 12 2.8125V7.125C12 7.57373 11.6362 7.9375 11.1875 7.9375H8.5625C8.38991 7.9375 8.25 7.79759 8.25 7.625C8.25 7.45241 8.38991 7.3125 8.5625 7.3125H11.1875C11.2911 7.3125 11.375 7.22855 11.375 7.125V2.8125C11.375 2.70895 11.2911 2.625 11.1875 2.625H2.8125C2.70895 2.625 2.625 2.70895 2.625 2.8125V7.125C2.625 7.22855 2.70895 7.3125 2.8125 7.3125H5.4375C5.61009 7.3125 5.75 7.45241 5.75 7.625C5.75 7.79759 5.61009 7.9375 5.4375 7.9375H2.8125C2.36377 7.9375 2 7.57373 2 7.125V2.8125Z" fill="#FCFCFC"/>
<path fill-rule="evenodd" clip-rule="evenodd" d="M7.00197 5.12512C7.17456 5.12512 7.31447 5.26503 7.31447 5.43762V10.8489L8.66112 9.58478C8.78696 9.46666 8.98472 9.47291 9.10284 9.59874C9.22097 9.72458 9.21471 9.92234 9.08888 10.0405L7.00219 11.9993L4.91136 10.0407C4.7854 9.9227 4.77894 9.72494 4.89693 9.59898C5.01492 9.47302 5.21268 9.46657 5.33864 9.58456L6.68947 10.8499V5.43762C6.68947 5.26503 6.82938 5.12512 7.00197 5.12512Z" fill="#FCFCFC"/>
</svg>
