<svg width="14" height="14" viewBox="0 0 14 14" fill="none" xmlns="http://www.w3.org/2000/svg">
<path fill-rule="evenodd" clip-rule="evenodd" d="M3 2.3125C3 2.13991 3.13776 2 3.30769 2H10.6923C10.8622 2 11 2.13991 11 2.3125C11 2.48509 10.8622 2.625 10.6923 2.625H3.30769C3.13776 2.625 3 2.48509 3 2.3125ZM3 4.625C3 4.0382 3.46838 3.5625 4.04615 3.5625H9.95385C10.5316 3.5625 11 4.0382 11 4.625V10.9375C11 11.5243 10.5316 12 9.95385 12H4.04615C3.46838 12 3 11.5243 3 10.9375V4.625ZM4.04615 4.1875C3.80825 4.1875 3.61538 4.38338 3.61538 4.625V10.9375C3.61538 11.1791 3.80825 11.375 4.04615 11.375H9.95385C10.1918 11.375 10.3846 11.1791 10.3846 10.9375V4.625C10.3846 4.38338 10.1918 4.1875 9.95385 4.1875H4.04615ZM5.15385 5.4375C5.32378 5.4375 5.46154 5.57741 5.46154 5.75L5.46154 9.8125C5.46154 9.98509 5.32378 10.125 5.15385 10.125C4.98391 10.125 4.84615 9.98509 4.84615 9.8125L4.84615 5.75C4.84615 5.57741 4.98391 5.4375 5.15385 5.4375ZM7 5.4375C7.16993 5.4375 7.30769 5.57741 7.30769 5.75L7.30769 9.8125C7.30769 9.98509 7.16993 10.125 7 10.125C6.83007 10.125 6.69231 9.98509 6.69231 9.8125L6.69231 5.75C6.69231 5.57741 6.83007 5.4375 7 5.4375ZM8.84615 5.4375C9.01609 5.4375 9.15385 5.57741 9.15385 5.75V9.8125C9.15385 9.98509 9.01609 10.125 8.84615 10.125C8.67622 10.125 8.53846 9.98509 8.53846 9.8125V5.75C8.53846 5.57741 8.67622 5.4375 8.84615 5.4375Z" fill="#FCFCFC"/>
</svg>
