<svg width="14" height="14" viewBox="0 0 14 14" fill="none" xmlns="http://www.w3.org/2000/svg">
<path fill-rule="evenodd" clip-rule="evenodd" d="M3.5625 2C4.31842 2 4.94897 2.5368 5.09374 3.25L11.6875 3.25C11.8601 3.25 12 3.38991 12 3.5625C12 3.73509 11.8601 3.875 11.6875 3.875L5.09374 3.875C4.94897 4.5882 4.31842 5.125 3.5625 5.125C2.69956 5.125 2 4.42544 2 3.5625C2 2.69956 2.69956 2 3.5625 2ZM3.5625 2.625C3.04473 2.625 2.625 3.04473 2.625 3.5625C2.625 4.08027 3.04473 4.5 3.5625 4.5C4.08027 4.5 4.5 4.08027 4.5 3.5625C4.5 3.04473 4.08027 2.625 3.5625 2.625Z" fill="#FCFCFC"/>
<path fill-rule="evenodd" clip-rule="evenodd" d="M10.4375 5.4375C9.68158 5.4375 9.05103 5.9743 8.90626 6.6875L2.3125 6.6875C2.13991 6.6875 2 6.82741 2 7C2 7.17259 2.13991 7.3125 2.3125 7.3125L8.90626 7.3125C9.05103 8.0257 9.68158 8.5625 10.4375 8.5625C11.3004 8.5625 12 7.86294 12 7C12 6.13706 11.3004 5.4375 10.4375 5.4375ZM9.5 7C9.5 6.48223 9.91973 6.0625 10.4375 6.0625C10.9553 6.0625 11.375 6.48223 11.375 7C11.375 7.51777 10.9553 7.9375 10.4375 7.9375C9.91973 7.9375 9.5 7.51777 9.5 7Z" fill="#FCFCFC"/>
<path fill-rule="evenodd" clip-rule="evenodd" d="M2.3125 10.125C2.13991 10.125 2 10.2649 2 10.4375C2 10.6101 2.13991 10.75 2.3125 10.75H4.8125C4.82294 10.75 4.83327 10.7495 4.84345 10.7485C4.98764 11.4624 5.61854 12 6.375 12C7.13092 12 7.76147 11.4632 7.90624 10.75H11.6875C11.8601 10.75 12 10.6101 12 10.4375C12 10.2649 11.8601 10.125 11.6875 10.125H7.90624C7.76147 9.4118 7.13092 8.875 6.375 8.875C5.61854 8.875 4.98764 9.41256 4.84345 10.1265C4.83327 10.1255 4.82294 10.125 4.8125 10.125H2.3125ZM7.3125 10.4375C7.3125 9.91973 6.89277 9.5 6.375 9.5C5.85723 9.5 5.4375 9.91973 5.4375 10.4375C5.4375 10.9553 5.85723 11.375 6.375 11.375C6.89277 11.375 7.3125 10.9553 7.3125 10.4375Z" fill="#FCFCFC"/>
</svg>
