<svg width="14" height="14" viewBox="0 0 14 14" fill="none" xmlns="http://www.w3.org/2000/svg">
<path fill-rule="evenodd" clip-rule="evenodd" d="M10.553 2.67955C10.4798 2.60637 10.3611 2.60637 10.2879 2.67955L9.27477 3.69273C9.20158 3.76592 9.20158 3.88457 9.27477 3.95775L10.0422 4.72523C10.3594 5.04236 10.3594 5.55653 10.0422 5.87366L4.00739 11.9085C3.94881 11.9671 3.86937 12 3.78654 12H2V10.2135C2 10.1306 2.03291 10.0512 2.09148 9.99261L7.4969 4.58719C7.61887 4.46522 7.81663 4.46522 7.9386 4.58719C8.06058 4.70917 8.06058 4.90692 7.9386 5.0289L2.62466 10.3428V11.3753H3.65716L9.60054 5.43196C9.67373 5.35877 9.67373 5.24012 9.60054 5.16694L8.83306 4.39946C8.51593 4.08233 8.51593 3.56816 8.83306 3.25103L9.84624 2.23785C10.1634 1.92072 10.6775 1.92072 10.9947 2.23785L11.7622 3.00533C12.0793 3.32246 12.0793 3.83663 11.7622 4.15376L11.3784 4.5375C11.2564 4.65947 11.0587 4.65947 10.9367 4.5375C10.8147 4.41552 10.8147 4.21777 10.9367 4.09579L11.3204 3.71205C11.3936 3.63887 11.3936 3.52021 11.3204 3.44703L10.553 2.67955Z" fill="#FCFCFC"/>
</svg>
