<svg width="14" height="14" viewBox="0 0 14 14" fill="none" xmlns="http://www.w3.org/2000/svg">
<path fill-rule="evenodd" clip-rule="evenodd" d="M2.81187 2.62434C2.7084 2.62434 2.62452 2.7082 2.62452 2.81165V7.7415C2.62452 7.78734 2.64133 7.83159 2.67178 7.86587L5.73192 11.3111C5.84634 11.4399 6.05937 11.359 6.05937 11.1867V8.43073C6.05937 8.32729 5.97549 8.24343 5.87201 8.24343H4.18581C4.01336 8.24343 3.87355 8.10367 3.87355 7.93126C3.87355 7.75885 4.01336 7.61909 4.18581 7.61909H5.87201C6.3204 7.61909 6.68389 7.98247 6.68389 8.43073V11.1867C6.68389 11.9332 5.76075 12.2839 5.26494 11.7256L2.2048 8.28042L2.43829 8.07315L2.2048 8.28042C2.07287 8.13189 2 7.94015 2 7.7415V2.81165C2 2.36339 2.36349 2 2.81187 2H11.1881C11.6365 2 12 2.36339 12 2.81165V11.1778C12 11.6261 11.6365 11.9895 11.1881 11.9895H8.24518C8.07272 11.9895 7.93292 11.8497 7.93292 11.6773C7.93292 11.5049 8.07272 11.3651 8.24518 11.3651H11.1881C11.2916 11.3651 11.3755 11.2813 11.3755 11.1778V2.81165C11.3755 2.7082 11.2916 2.62434 11.1881 2.62434H2.81187Z" fill="#FCFCFC"/>
</svg>
