<svg width="14" height="14" viewBox="0 0 14 14" fill="none" xmlns="http://www.w3.org/2000/svg">
<path fill-rule="evenodd" clip-rule="evenodd" d="M7.18924 2.00351L7 2L6.81078 2.00351C4.13703 2.10299 2 4.30193 2 7C2 9.69805 4.13702 11.897 6.81075 11.9965L7 12L7.18927 11.9965C9.86299 11.897 12 9.69805 12 7C12 4.30193 9.86297 2.103 7.18924 2.00351ZM6.20586 2.56985C4.78278 2.82323 3.59118 3.74552 2.96776 4.99999H4.80218C5.09128 4.07358 5.57614 3.24349 6.20586 2.56985ZM2.5 7C2.5 6.47404 2.59023 5.96916 2.75606 5.49999H4.6675C4.55798 5.98096 4.5 6.48349 4.5 7C4.5 7.51651 4.55798 8.01904 4.6675 8.5H2.75606C2.59023 8.03083 2.5 7.52595 2.5 7ZM2.96776 9C3.59118 10.2545 4.78277 11.1767 6.20584 11.4301C5.57612 10.7565 5.09127 9.9264 4.80218 9H2.96776ZM5.32807 9C5.66695 9.99443 6.25122 10.8574 6.99999 11.5C7.74875 10.8574 8.33307 9.99443 8.67195 9H5.32807ZM9.19784 9C8.90875 9.9264 8.4239 10.7565 7.79418 11.4301C9.21724 11.1767 10.4088 10.2545 11.0322 9H9.19784ZM11.2439 8.5H9.33252C9.44204 8.01904 9.50002 7.51651 9.50002 7.00001C9.50002 6.48349 9.44204 5.98096 9.33251 5.49999H11.2439C11.4098 5.96916 11.5 6.47404 11.5 7C11.5 7.52595 11.4098 8.03083 11.2439 8.5ZM8.81865 8.5H5.18137C5.06311 8.02201 5 7.5191 5 7C5 6.4809 5.06311 5.97799 5.18138 5.49999H8.81864C8.9369 5.97799 9.00002 6.48091 9.00002 7.00001C9.00002 7.5191 8.9369 8.02201 8.81865 8.5ZM9.19783 4.99999H11.0322C10.4088 3.74553 9.21723 2.82324 7.79416 2.56985C8.42388 3.2435 8.90874 4.07358 9.19783 4.99999ZM5.32808 4.99999H8.67194C8.33306 4.00556 7.74878 3.14262 7.00001 2.5C6.25124 3.14262 5.66696 4.00556 5.32808 4.99999Z" fill="#FCFCFC"/>
</svg>
