<svg width="14" height="12" viewBox="0 0 14 12" fill="none" xmlns="http://www.w3.org/2000/svg">
<path d="M2 1.8125C2 1.63991 2.13991 1.5 2.3125 1.5H11.6875C11.8601 1.5 12 1.63991 12 1.8125C12 1.98509 11.8601 2.125 11.6875 2.125H2.3125C2.13991 2.125 2 1.98509 2 1.8125Z" fill="#FCFCFC"/>
<path d="M2 5.875C2 5.70241 2.13991 5.5625 2.3125 5.5625H11.6875C11.8601 5.5625 12 5.70241 12 5.875C12 6.04759 11.8601 6.1875 11.6875 6.1875H2.3125C2.13991 6.1875 2 6.04759 2 5.875Z" fill="#FCFCFC"/>
<path d="M2.3125 9.62819C2.13991 9.62819 2 9.7681 2 9.94069C2 10.1133 2.13991 10.2532 2.3125 10.2532H11.6875C11.8601 10.2532 12 10.1133 12 9.94069C12 9.7681 11.8601 9.62819 11.6875 9.62819H2.3125Z" fill="#FCFCFC"/>
</svg>
