<svg width="14" height="14" viewBox="0 0 14 14" fill="none" xmlns="http://www.w3.org/2000/svg">
<path fill-rule="evenodd" clip-rule="evenodd" d="M10.5 5.24982C10.5 6.21632 9.7165 6.99982 8.75 6.99982C7.7835 6.99982 7 6.21632 7 5.24982C7 4.28332 7.7835 3.49982 8.75 3.49982C9.7165 3.49982 10.5 4.28332 10.5 5.24982ZM9.75 5.24982C9.75 5.8021 9.30229 6.24982 8.75 6.24982C8.19772 6.24982 7.75 5.8021 7.75 5.24982C7.75 4.69753 8.19772 4.24982 8.75 4.24982C9.30229 4.24982 9.75 4.69753 9.75 5.24982Z" fill="#FCFCFC"/>
<path fill-rule="evenodd" clip-rule="evenodd" d="M2 10.5C2 11.3284 2.67157 12 3.5 12H10.5C11.3284 12 12 11.3284 12 10.5V3.5C12 2.67157 11.3284 2 10.5 2H3.5C2.67157 2 2 2.67157 2 3.5V10.5ZM10.5 2.75H3.5C3.08579 2.75 2.75 3.08579 2.75 3.5V8.85142C4.05764 8.30312 5.49362 8.00018 7.00036 8.00018C8.50682 8.00018 9.94255 8.30301 11.25 8.85112V3.5C11.25 3.08579 10.9142 2.75 10.5 2.75ZM11.25 10.5V9.66989C9.95534 9.07927 8.51628 8.75018 7.00036 8.75018C5.48415 8.75018 4.04484 9.07939 2.75 9.67022V10.5C2.75 10.9142 3.08579 11.25 3.5 11.25H10.5C10.9142 11.25 11.25 10.9142 11.25 10.5Z" fill="#FCFCFC"/>
</svg>
