<svg width="14" height="14" viewBox="0 0 14 14" fill="none" xmlns="http://www.w3.org/2000/svg">
<path d="M2.47661 5.14435C2.41823 5.01923 2.26947 4.96513 2.14435 5.02351C2.01923 5.08188 1.96513 5.23064 2.02351 5.35576C2.35823 6.07314 2.84776 6.70555 3.44978 7.21155L2.33771 8.16123C2.23271 8.25089 2.22028 8.40869 2.30994 8.51368C2.39961 8.61867 2.55741 8.6311 2.6624 8.54144L3.85618 7.52199C4.36389 7.87364 4.93488 8.14237 5.54889 8.30834L5.12007 9.6751C5.07874 9.80684 5.15202 9.94714 5.28376 9.98847C5.4155 10.0298 5.5558 9.95651 5.59713 9.82478L6.0388 8.41706C6.3509 8.47156 6.6721 8.49998 7 8.49998C7.33269 8.49998 7.65848 8.47072 7.97487 8.41466L8.4143 9.81521C8.45563 9.94694 8.59593 10.0202 8.72767 9.9789C8.85941 9.93757 8.93269 9.79727 8.89136 9.66553L8.4644 8.30473C9.08007 8.13665 9.65227 7.86518 10.1605 7.51041L11.3376 8.51563C11.4426 8.60529 11.6004 8.59286 11.6901 8.48787C11.7797 8.38287 11.7673 8.22508 11.6623 8.13541L10.5654 7.19872C11.1605 6.69488 11.6446 6.06709 11.9765 5.35576C12.0349 5.23064 11.9808 5.08188 11.8556 5.02351C11.7305 4.96513 11.5818 5.01923 11.5234 5.14435C10.7375 6.82872 9.0085 7.99999 7 7.99999C4.9915 7.99999 3.26251 6.82872 2.47661 5.14435Z" fill="#FCFCFC"/>
</svg>
