<svg width="14" height="14" viewBox="0 0 14 14" fill="none" xmlns="http://www.w3.org/2000/svg">
<path fill-rule="evenodd" clip-rule="evenodd" d="M2.2378 8.4113C1.92073 8.72836 1.92074 9.24242 2.2378 9.55948L4.44052 11.7622C4.75758 12.0793 5.27164 12.0793 5.5887 11.7622L11.7622 5.5887C12.0793 5.27164 12.0793 4.75758 11.7622 4.44052L9.55948 2.2378C9.24242 1.92073 8.72836 1.92073 8.4113 2.2378L2.2378 8.4113ZM2.67941 9.11787C2.60624 9.0447 2.60624 8.92607 2.6794 8.8529L3.28226 8.25005L4.11438 9.08216L4.55598 8.64055L3.72387 7.80844L4.43627 7.09604L5.26837 7.92813L5.70998 7.48652L4.87788 6.65443L5.59038 5.94193L7.12901 7.48056L7.57062 7.03895L6.03199 5.50032L6.74456 4.78775L7.57666 5.61985L8.01826 5.17824L7.18617 4.34614L7.89867 3.63364L8.7308 4.46578L9.17241 4.02417L8.34027 3.19204L8.8529 2.67941C8.92607 2.60624 9.0447 2.60624 9.11787 2.6794L11.3206 4.88213C11.3938 4.9553 11.3938 5.07393 11.3206 5.1471L5.1471 11.3206C5.07393 11.3938 4.9553 11.3938 4.88213 11.3206L2.67941 9.11787Z" fill="#FCFCFC"/>
</svg>
