<svg width="14" height="14" viewBox="0 0 14 14" fill="none" xmlns="http://www.w3.org/2000/svg">
<path fill-rule="evenodd" clip-rule="evenodd" d="M8.25 2C8.11193 2 8 2.11193 8 2.25C8 2.38807 8.11193 2.5 8.25 2.5H11.1464L7.07322 6.57322C6.97559 6.67085 6.97559 6.82915 7.07322 6.92678C7.17085 7.02441 7.32915 7.02441 7.42678 6.92678L11.5 2.85355V5.75C11.5 5.88807 11.6119 6 11.75 6C11.8881 6 12 5.88807 12 5.75V2.25V2H11.75H8.25ZM2.5 3.75C2.5 3.61193 2.61193 3.5 2.75 3.5H6.75C6.88807 3.5 7 3.38807 7 3.25C7 3.11193 6.88807 3 6.75 3H2.75C2.33579 3 2 3.33579 2 3.75V11.25C2 11.6642 2.33579 12 2.75 12H10.2163C10.6281 12 10.9628 11.668 10.9663 11.2563L11 7.2521C11.0012 7.11404 10.8902 7.00117 10.7521 7.00001C10.614 6.99885 10.5012 7.10983 10.5 7.2479L10.4663 11.2521C10.4652 11.3893 10.3536 11.5 10.2163 11.5H2.75C2.61193 11.5 2.5 11.3881 2.5 11.25V3.75Z" fill="#FCFCFC"/>
</svg>
