<svg width="12" height="12" viewBox="0 0 12 12" fill="none" xmlns="http://www.w3.org/2000/svg">
<path d="M6 5.71659V4.15653M6 4.15653V1.60128C6 1.41229 5.90032 1.23732 5.73776 1.14095V1.14095C5.58861 1.05253 5.40587 1.04185 5.24744 1.11229L5.20476 1.13127C4.97889 1.2317 4.83333 1.45571 4.83333 1.7029V6.9937C4.83333 7.24076 4.51516 7.34082 4.37375 7.13823L3.52827 5.9269C3.34778 5.6683 2.99053 5.60753 2.73468 5.79189V5.79189C2.58732 5.89808 2.5 6.06863 2.5 6.25026V6.30567C2.5 6.43051 2.53472 6.55289 2.60027 6.65914L4.33657 9.47343C4.80031 10.2251 5.5673 10.7386 6.43893 10.8811L6.56276 10.9013C6.95964 10.9662 7.36627 10.9355 7.7489 10.8117V10.8117C8.79276 10.4742 9.5 9.5022 9.5 8.40513V5.16429C9.5 5.01645 9.45216 4.87259 9.36362 4.75419V4.75419C9.12324 4.43276 8.6592 4.38606 8.35959 4.65315L8.33333 4.67655M6 4.15653V4.15653C6.24292 3.72341 6.87454 3.7485 7.08235 4.19951L7.16667 4.3825M7.16667 4.3825V5.9766M7.16667 4.3825V4.3825C7.44401 4.02783 7.993 4.06976 8.21325 4.46245L8.33333 4.67655M8.33333 4.67655V6.23661" stroke="#FCFCFC" stroke-width="0.5" stroke-linecap="round" stroke-linejoin="round"/>
</svg>
