<svg width="14" height="14" viewBox="0 0 14 14" fill="none" xmlns="http://www.w3.org/2000/svg">
<path fill-rule="evenodd" clip-rule="evenodd" d="M7.56028 2.09153C7.68232 1.96949 7.88018 1.96949 8.00222 2.09153L11.9085 5.99778C12.0305 6.11982 12.0305 6.31768 11.9085 6.43972C11.7864 6.56176 11.5886 6.56176 11.4665 6.43972L10.9062 5.87944L7.70312 9.08257V10.0898C7.70312 10.8136 6.82795 11.1761 6.3161 10.6643L5.04688 9.39507L2.53347 11.9085C2.41143 12.0305 2.21357 12.0305 2.09153 11.9085C1.96949 11.7864 1.96949 11.5886 2.09153 11.4665L4.60493 8.95312L3.33571 7.6839C2.82386 7.17205 3.18637 6.29688 3.91023 6.29688H4.91743L8.12056 3.09375L7.56028 2.53347C7.43824 2.41143 7.43824 2.21357 7.56028 2.09153ZM8.5625 3.53569L5.26785 6.83035C5.20924 6.88895 5.12976 6.92188 5.04688 6.92188H3.91023C3.74319 6.92188 3.65953 7.12384 3.77765 7.24196L6.75804 10.2224C6.87616 10.3405 7.07812 10.2568 7.07812 10.0898V8.95313C7.07812 8.87025 7.11105 8.79076 7.16965 8.73215L10.4643 5.4375L8.5625 3.53569Z" fill="#FCFCFC"/>
</svg>
