<svg width="14" height="14" viewBox="0 0 14 14" fill="none" xmlns="http://www.w3.org/2000/svg">
<path fill-rule="evenodd" clip-rule="evenodd" d="M2.16492 2.01594C2.29466 1.96624 2.43812 2.03664 2.48535 2.17318L3.11978 4.00756C5.45851 2.73489 8.54146 2.73489 10.8802 4.00755L11.5146 2.17318C11.5619 2.03664 11.7053 1.96624 11.8351 2.01594C11.9648 2.06563 12.0317 2.21661 11.9845 2.35315L11.3219 4.26894C11.5222 4.39758 11.7158 4.53642 11.9016 4.68547C12.0114 4.77357 12.0325 4.93865 11.9488 5.0542C11.8651 5.16976 11.7082 5.19201 11.5984 5.10392C11.453 4.98729 11.3024 4.87735 11.1472 4.77411L10.4358 6.83095C10.6856 6.97477 10.9247 7.13628 11.1506 7.31559C11.2608 7.4031 11.2827 7.56807 11.1996 7.68406C11.1164 7.80006 10.9596 7.82315 10.8494 7.73564C10.6637 7.5882 10.4675 7.45352 10.2626 7.3317L9.51311 9.49874C9.73965 9.63002 9.95528 9.78097 10.1567 9.95156C10.2643 10.0427 10.2813 10.2083 10.1948 10.3215C10.1082 10.4347 9.95082 10.4526 9.84325 10.3615C9.68489 10.2274 9.51639 10.1068 9.3398 9.99986L8.70793 11.8268C8.66071 11.9634 8.51725 12.0338 8.3875 11.9841C8.25776 11.9344 8.19086 11.7834 8.23808 11.6469L8.88939 9.76369C7.71292 9.23511 6.28706 9.23511 5.11058 9.7637L5.76189 11.6469C5.80911 11.7834 5.74222 11.9344 5.61247 11.9841C5.48273 12.0338 5.33927 11.9634 5.29204 11.8268L4.66018 9.99986C4.48359 10.1068 4.3151 10.2274 4.15674 10.3615C4.04917 10.4526 3.8918 10.4347 3.80524 10.3215C3.71868 10.2083 3.7357 10.0427 3.84327 9.95156C4.04471 9.78097 4.26033 9.63003 4.48686 9.49875L3.73738 7.33171C3.53247 7.45353 3.33628 7.5882 3.15058 7.73564C3.04036 7.82315 2.88359 7.80006 2.80044 7.68406C2.71728 7.56807 2.73922 7.4031 2.84945 7.31559C3.07528 7.13629 3.31442 6.97478 3.56419 6.83097L2.85281 4.77412C2.69755 4.87736 2.54694 4.9873 2.40158 5.10392C2.29178 5.19201 2.13491 5.16976 2.0512 5.0542C1.96749 4.93865 1.98864 4.77357 2.09844 4.68547C2.28421 4.53643 2.47779 4.39759 2.6781 4.26896L2.0155 2.35315C1.96828 2.21661 2.03517 2.06563 2.16492 2.01594ZM9.06062 9.26861L9.81354 7.09163C8.95539 6.68097 7.98029 6.47325 7 6.47325C6.0197 6.47325 5.04459 6.68098 4.18643 7.09164L4.93936 9.26862C6.22804 8.69856 7.77194 8.69856 9.06062 9.26861ZM9.98505 6.59575L10.7077 4.50635C8.48804 3.2702 5.51193 3.2702 3.29229 4.50636L4.01493 6.59577C4.9366 6.16176 5.97083 5.94706 7 5.94706C8.02917 5.94706 9.06339 6.16176 9.98505 6.59575Z" fill="#FCFCFC"/>
</svg>
