<svg width="14" height="14" viewBox="0 0 14 14" fill="none" xmlns="http://www.w3.org/2000/svg">
<path d="M4.75 6.75C4.61193 6.75 4.5 6.86193 4.5 7C4.5 7.13807 4.61193 7.25 4.75 7.25L9.25 7.25C9.38807 7.25 9.5 7.13807 9.5 7C9.5 6.86193 9.38807 6.75 9.25 6.75L4.75 6.75Z" fill="#FCFCFC"/>
<path fill-rule="evenodd" clip-rule="evenodd" d="M12 7C12 9.76142 9.76142 12 7 12C4.23858 12 2 9.76142 2 7C2 4.23858 4.23858 2 7 2C9.76142 2 12 4.23858 12 7ZM11.5 7C11.5 9.48528 9.48528 11.5 7 11.5C4.51472 11.5 2.5 9.48528 2.5 7C2.5 4.51472 4.51472 2.5 7 2.5C9.48528 2.5 11.5 4.51472 11.5 7Z" fill="#FCFCFC"/>
</svg>
