<svg width="14" height="14" viewBox="0 0 14 14" fill="none" xmlns="http://www.w3.org/2000/svg">
<rect x="2.25" y="2.25" width="9.5" height="9.5" rx="1.25" stroke="#FCFCFC" stroke-width="0.5" stroke-linecap="round"/>
<path d="M8.73112 8.5C8.44151 8.5 8.18904 8.44763 7.97369 8.34288C7.75834 8.23813 7.59127 8.09148 7.47245 7.90293C7.35735 7.71439 7.2998 7.49232 7.2998 7.23673V7.07961C7.2998 7.05866 7.30537 7.0419 7.31651 7.02933C7.33136 7.01257 7.34807 7.00419 7.36664 7.00419H7.8623C7.88087 7.00419 7.89572 7.01257 7.90686 7.02933C7.92171 7.0419 7.92914 7.05866 7.92914 7.07961V7.19902C7.92914 7.39176 8.00525 7.55307 8.15748 7.68296C8.30971 7.80866 8.51763 7.87151 8.78124 7.87151C9.00773 7.87151 9.17852 7.81704 9.29362 7.7081C9.40872 7.59916 9.46627 7.4588 9.46627 7.28701C9.46627 7.16969 9.43471 7.07123 9.37159 6.99162C9.30847 6.90782 9.2175 6.8324 9.09869 6.76536C8.98359 6.69832 8.80909 6.61453 8.57518 6.51397C8.31156 6.40503 8.09807 6.30237 7.93471 6.20601C7.77134 6.10964 7.63396 5.97975 7.52258 5.81634C7.4149 5.64874 7.36107 5.44134 7.36107 5.19413C7.36107 4.82542 7.47988 4.53422 7.7175 4.32053C7.95513 4.10684 8.27258 4 8.66985 4C8.94832 4 9.19337 4.05447 9.405 4.16341C9.62035 4.27235 9.78743 4.42528 9.90624 4.62221C10.0251 4.81494 10.0845 5.03911 10.0845 5.29469V5.40154C10.0845 5.42249 10.077 5.44134 10.0622 5.4581C10.051 5.47067 10.0362 5.47696 10.0176 5.47696H9.51639C9.49782 5.47696 9.48112 5.47067 9.46627 5.4581C9.45513 5.44134 9.44956 5.42249 9.44956 5.40154V5.3324C9.44956 5.13547 9.37716 4.96997 9.23235 4.83589C9.09127 4.69763 8.89448 4.62849 8.64201 4.62849C8.4378 4.62849 8.27815 4.67668 8.16305 4.77304C8.05166 4.86941 7.99597 5.00559 7.99597 5.18156C7.99597 5.30726 8.02567 5.40992 8.08508 5.48953C8.14448 5.56913 8.23359 5.64246 8.3524 5.7095C8.47122 5.77235 8.655 5.85405 8.90377 5.95461C9.16738 6.06774 9.37716 6.17039 9.5331 6.26257C9.69275 6.35475 9.82827 6.48464 9.93966 6.65223C10.0548 6.81564 10.1123 7.02095 10.1123 7.26816C10.1123 7.64525 9.98792 7.94483 9.73916 8.1669C9.49411 8.38897 9.1581 8.5 8.73112 8.5Z" fill="#FCFCFC"/>
</svg>
