<svg width="14" height="14" viewBox="0 0 14 14" fill="none" xmlns="http://www.w3.org/2000/svg">
<path fill-rule="evenodd" clip-rule="evenodd" d="M9.49989 5.99993C9.49989 7.93289 7.93291 9.49986 5.99994 9.49986C4.06697 9.49986 2.49999 7.93289 2.49999 5.99993C2.49999 4.06696 4.06697 2.49999 5.99994 2.49999C7.93291 2.49999 9.49989 4.06696 9.49989 5.99993ZM8.64621 8.99945C7.94102 9.62205 7.0146 9.99985 5.99994 9.99985C3.79084 9.99985 2 8.20902 2 5.99993C2 3.79083 3.79084 2 5.99994 2C8.20905 2 9.99989 3.79083 9.99989 5.99993C9.99989 7.01444 9.62219 7.94074 8.99974 8.64588L11.9268 11.5729C12.0244 11.6705 12.0244 11.8288 11.9268 11.9264C11.8291 12.0241 11.6708 12.0241 11.5732 11.9264L8.64621 8.99945Z" fill="#FCFCFC"/>
</svg>
