<svg width="14" height="14" viewBox="0 0 14 14" fill="none" xmlns="http://www.w3.org/2000/svg">
<path d="M11.75 3.5625C11.75 4.27242 11.1312 4.875 10.3333 4.875C9.53549 4.875 8.91667 4.27242 8.91667 3.5625C8.91667 2.85258 9.53549 2.25 10.3333 2.25C11.1312 2.25 11.75 2.85258 11.75 3.5625ZM5.08333 7C5.08333 7.70992 4.46451 8.3125 3.66667 8.3125C2.86882 8.3125 2.25 7.70992 2.25 7C2.25 6.29008 2.86882 5.6875 3.66667 5.6875C4.46451 5.6875 5.08333 6.29008 5.08333 7ZM11.75 10.4375C11.75 11.1474 11.1312 11.75 10.3333 11.75C9.53549 11.75 8.91667 11.1474 8.91667 10.4375C8.91667 9.72758 9.53549 9.125 10.3333 9.125C11.1312 9.125 11.75 9.72758 11.75 10.4375Z" stroke="#FCFCFC" stroke-width="0.5"/>
<path d="M9 4L5 6.2M9 10L5 7.8" stroke="#FCFCFC" stroke-width="0.5"/>
</svg>
