<svg width="14" height="14" viewBox="0 0 14 14" fill="none" xmlns="http://www.w3.org/2000/svg">
<path d="M4.74998 2.25C4.74998 2.11193 4.63805 2 4.49998 2C4.3619 2 4.24998 2.11193 4.24998 2.25V11.0364L2.42678 9.21323C2.32915 9.11559 2.17086 9.11559 2.07322 9.21322C1.97559 9.31085 1.97559 9.46915 2.07322 9.56678L4.49997 11.9936L6.92675 9.56678C7.02438 9.46915 7.02438 9.31086 6.92675 9.21323C6.82912 9.11559 6.67083 9.11559 6.5732 9.21323L4.74998 11.0364V2.25Z" fill="#FCFCFC"/>
<path d="M9.25002 11.75C9.25002 11.8881 9.36195 12 9.50002 12C9.6381 12 9.75002 11.8881 9.75002 11.75L9.75003 2.96356L11.5732 4.78677C11.6709 4.88441 11.8291 4.88441 11.9268 4.78678C12.0244 4.68915 12.0244 4.53085 11.9268 4.43322L9.50003 2.00644L7.07325 4.43322C6.97562 4.53085 6.97562 4.68914 7.07325 4.78677C7.17088 4.88441 7.32917 4.88441 7.4268 4.78677L9.25003 2.96355L9.25002 11.75Z" fill="#FCFCFC"/>
</svg>
