<svg width="14" height="14" viewBox="0 0 14 14" fill="none" xmlns="http://www.w3.org/2000/svg">
<path fill-rule="evenodd" clip-rule="evenodd" d="M10 4.33333C10.2761 4.33333 10.5 4.53232 10.5 4.77778V9.22222C10.5 9.46768 10.2761 9.66667 10 9.66667H4C3.72386 9.66667 3.5 9.46768 3.5 9.22222V4.77778C3.5 4.53232 3.72386 4.33333 4 4.33333H10ZM6.75 4.77778H4V9.22222H6.75L6.75 4.77778ZM7.25 9.22222H10V4.77778H7.25L7.25 9.22222Z" fill="#FCFCFC"/>
<path fill-rule="evenodd" clip-rule="evenodd" d="M3 3C2.44772 3 2 3.39797 2 3.88889V10.1111C2 10.602 2.44772 11 3 11H11C11.5523 11 12 10.602 12 10.1111V3.88889C12 3.39797 11.5523 3 11 3H3ZM11 3.44444H3C2.72386 3.44444 2.5 3.64343 2.5 3.88889V10.1111C2.5 10.3566 2.72386 10.5556 3 10.5556H11C11.2761 10.5556 11.5 10.3566 11.5 10.1111V3.88889C11.5 3.64343 11.2761 3.44444 11 3.44444Z" fill="#FCFCFC"/>
</svg>
