<svg width="14" height="14" viewBox="0 0 14 14" fill="none" xmlns="http://www.w3.org/2000/svg">
<mask id="path-1-inside-1" fill="white">
<path fill-rule="evenodd" clip-rule="evenodd" d="M2.38205 8.63331C1.60955 7.68453 1.60955 6.31548 2.38205 5.36669C3.5744 3.90225 5.20407 3 7.00106 3C8.79804 3 10.4277 3.90225 11.6201 5.36669C12.3926 6.31547 12.3926 7.68453 11.6201 8.63331C10.4277 10.0978 8.79804 11 7.00106 11C5.20407 11 3.5744 10.0978 2.38205 8.63331Z"/>
</mask>
<path d="M2.76978 5.68238C3.88573 4.31179 5.38156 3.5 7.00106 3.5V2.5C5.02659 2.5 3.26307 3.49272 1.99432 5.051L2.76978 5.68238ZM7.00106 3.5C8.62056 3.5 10.1164 4.31179 11.2323 5.68238L12.0078 5.051C10.739 3.49272 8.97553 2.5 7.00106 2.5V3.5ZM11.2323 8.31762C10.1164 9.68822 8.62056 10.5 7.00106 10.5V11.5C8.97553 11.5 10.739 10.5073 12.0078 8.94901L11.2323 8.31762ZM7.00106 10.5C5.38156 10.5 3.88573 9.68821 2.76978 8.31762L1.99432 8.949C3.26307 10.5073 5.02659 11.5 7.00106 11.5V10.5ZM11.2323 5.68238C11.8551 6.44732 11.8551 7.55268 11.2323 8.31762L12.0078 8.94901C12.93 7.81637 12.93 6.18363 12.0078 5.051L11.2323 5.68238ZM1.99432 5.051C1.07213 6.18363 1.07213 7.81637 1.99432 8.949L2.76978 8.31762C2.14697 7.55268 2.14697 6.44732 2.76978 5.68238L1.99432 5.051Z" fill="#FCFCFC" mask="url(#path-1-inside-1)"/>
<circle cx="6.83333" cy="6.83333" r="2.08333" stroke="#FCFCFC" stroke-width="0.5"/>
</svg>
