<svg width="14" height="14" viewBox="0 0 14 14" fill="none" xmlns="http://www.w3.org/2000/svg">
<path d="M8.16604 4.42867C8.16604 4.30008 8.06158 4.19584 7.93271 4.19584C7.80384 4.19584 7.69938 4.30008 7.69938 4.42867V5.82568H6.29938C6.17052 5.82568 6.06605 5.92992 6.06605 6.05851C6.06605 6.1871 6.17052 6.29134 6.29938 6.29134H7.69938V7.68835C7.69938 7.81694 7.80384 7.92118 7.93271 7.92118C8.06158 7.92118 8.16604 7.81694 8.16604 7.68835V6.29134H9.56604C9.69491 6.29134 9.79937 6.1871 9.79937 6.05851C9.79937 5.92992 9.69491 5.82568 9.56604 5.82568H8.16604V4.42867Z" fill="#FCFCFC"/>
<path fill-rule="evenodd" clip-rule="evenodd" d="M7.93271 9.78385C9.99457 9.78385 11.666 8.11596 11.666 6.05851C11.666 4.00106 9.99457 2.33317 7.93271 2.33317C5.87085 2.33317 4.19939 4.00106 4.19939 6.05851C4.19939 7.00853 4.55576 7.87549 5.14239 8.53355L2.40104 11.269C2.30992 11.36 2.30992 11.5074 2.40104 11.5983C2.49217 11.6892 2.6399 11.6892 2.73103 11.5983L5.47361 8.86158C6.13044 9.43581 6.99084 9.78385 7.93271 9.78385ZM7.93271 9.31818C9.73684 9.31818 11.1994 7.85878 11.1994 6.05851C11.1994 4.25824 9.73684 2.79884 7.93271 2.79884C6.12859 2.79884 4.66605 4.25824 4.66605 6.05851C4.66605 7.85878 6.12859 9.31818 7.93271 9.31818Z" fill="#FCFCFC"/>
</svg>
