<svg width="100%" height="100%" viewBox="0 0 24 24" fill="none" xmlns="http://www.w3.org/2000/svg">
<path d="M12 7C12.2761 7 12.5 7.22386 12.5 7.5V11.5L16.5 11.5C16.7761 11.5 17 11.7239 17 12C17 12.2761 16.7761 12.5 16.5 12.5L12.5 12.5V16.5C12.5 16.7761 12.2761 17 12 17C11.7239 17 11.5 16.7761 11.5 16.5V12.5H7.5C7.22386 12.5 7 12.2761 7 12C7 11.7239 7.22386 11.5 7.5 11.5H11.5V7.5C11.5 7.22386 11.7239 7 12 7Z" fill="#FCFCFC"/>
<path fill-rule="evenodd" clip-rule="evenodd" d="M22 12C22 17.5228 17.5228 22 12 22C6.47715 22 2 17.5228 2 12C2 6.47715 6.47715 2 12 2C17.5228 2 22 6.47715 22 12ZM21 12C21 16.9706 16.9706 21 12 21C7.02944 21 3 16.9706 3 12C3 7.02944 7.02944 3 12 3C16.9706 3 21 7.02944 21 12Z" fill="#FCFCFC"/>
</svg>
