<svg width="100%" height="100%" viewBox="0 0 20 20" fill="none" xmlns="http://www.w3.org/2000/svg">
<path fill-rule="evenodd" clip-rule="evenodd" d="M2 17C2 16 2 16 3 16H17C17.5 16 17.5 16 17.5 16.5V17.175H18C18.5 17.175 18.5 17.175 18.5 17.5V18.5C18.5 18.825 18.5195 18.825 18 18.825H17.5V19.05C17.5 20 17.5 20 17 20H3C2 20 2 20 2 19V17ZM3 16.5C2.5 16.5 2.5 16.5 2.5 17V19C2.5 19.5 2.5 19.5 3 19.5H16.5C17 19.5 17 19.5 17 19V18.5H17.5C18 18.5 18 18.5 18 18C18 17.5 18 17.5 17.5 17.5H17V17C17 16.5 17 16.5 16.5 16.5L3 16.5Z" fill="#FCFCFC"/>
<path d="M3 17.5V17H3.50001H16.5V19H3.5H3V18.5V17.5Z" fill="#FCFCFC"/>
<path fill-rule="evenodd" clip-rule="evenodd" d="M2 13C2 12 2 12 3 12H17C17.5 12 17.5 12 17.5 12.5V13.175H18C18.5 13.175 18.5 13.175 18.5 13.5V14.5C18.5 14.825 18.5195 14.825 18 14.825H17.5V15.05C17.5 16 17.5 16 17 16H3C2 16 2 16 2 15V13ZM3 12.5C2.5 12.5 2.5 12.5 2.5 13V15C2.5 15.5 2.5 15.5 3 15.5H16.5C17 15.5 17 15.5 17 15V14.5H17.5C18 14.5 18 14.5 18 14C18 13.5 18 13.5 17.5 13.5H17V13C17 12.5 17 12.5 16.5 12.5L3 12.5Z" fill="#FCFCFC"/>
<path d="M3 13.5V13H3.50001H16.5V15H3.5H3V14.5V13.5Z" fill="#FCFCFC"/>
<path fill-rule="evenodd" clip-rule="evenodd" d="M2 9C2 8 2 8 3 8H17C17.5 8 17.5 8.00004 17.5 8.49996V9.175H18C18.5 9.175 18.5 9.175 18.5 9.5V10.5C18.5 10.825 18.5195 10.825 18 10.825H17.5V11.05C17.5 12 17.5 12 17 12H3C2 12 2 12 2 11V9ZM3 8.5C2.5 8.5 2.5 8.5 2.5 9V11C2.5 11.5 2.5 11.5 3 11.5H16.5C17 11.5 17 11.5 17 11V10.5H17.5C18 10.5 18 10.5 18 10C18 9.5 18 9.5 17.5 9.5H17V9C17 8.5 17 8.49996 16.5 8.5L3 8.5Z" fill="#FCFCFC"/>
<path d="M3 9.5V9H3.50001H16.5V11H3.5H3V10.5V9.5Z" fill="#FCFCFC"/>
</svg>
