<svg width="100%" height="100%" viewBox="0 0 24 24" fill="none" xmlns="http://www.w3.org/2000/svg">
<path fill-rule="evenodd" clip-rule="evenodd" d="M4 21.5C4 21.7761 4.22386 22 4.5 22C4.77614 22 5 21.7761 5 21.5V20H11.5V21.5C11.5 21.7761 11.7239 22 12 22C12.2761 22 12.5 21.7761 12.5 21.5V20H19V21.5C19 21.7761 19.2239 22 19.5 22C19.7761 22 20 21.7761 20 21.5V20H21.5C21.7761 20 22 19.7761 22 19.5C22 19.2239 21.7761 19 21.5 19H20V12.5H21.5C21.7761 12.5 22 12.2761 22 12C22 11.7239 21.7761 11.5 21.5 11.5H20V4.99999L21.5 4.99999C21.7761 4.99999 22 4.77613 22 4.49999C22 4.22385 21.7761 3.99999 21.5 3.99999L20 3.99999V2.5C20 2.22386 19.7761 2 19.5 2C19.2239 2 19 2.22386 19 2.5V3.99999L12.5 3.99999V2.5C12.5 2.22386 12.2761 2 12 2C11.7239 2 11.5 2.22386 11.5 2.5V3.99999L5 3.99999V2.5C5 2.22386 4.77614 2 4.5 2C4.22386 2 4 2.22386 4 2.5V3.99999L2.5 3.99999C2.22386 3.99999 2 4.22385 2 4.49999C2 4.77613 2.22386 4.99999 2.5 4.99999L4 4.99999V11.5H2.5C2.22386 11.5 2 11.7238 2 12C2 12.2761 2.22386 12.5 2.5 12.5H4V19H2.5C2.22386 19 2 19.2238 2 19.5C2 19.7761 2.22386 20 2.5 20H4V21.5ZM19 4.99999L12.5 4.99999V11.5L19 11.5V4.99999ZM19 12.5L12.5 12.5V19H19V12.5ZM5 4.99999L11.5 4.99999V11.5L5 11.5V4.99999ZM5 12.5V19H11.5V12.5L5 12.5Z" fill="#FCFCFC"/>
</svg>
