<svg width="100%" height="100%" viewBox="0 0 24 24" fill="none" xmlns="http://www.w3.org/2000/svg">
<path fill-rule="evenodd" clip-rule="evenodd" d="M21.8448 3.13793C22.0448 3.32837 22.0525 3.64486 21.8621 3.84483C17.7689 8.14267 12.5911 16.599 10.4328 20.2519C9.8035 21.3169 8.23357 21.2172 7.67031 20.1701C6.61782 18.2135 4.69132 15.0818 2.17075 12.8763C1.96293 12.6944 1.94187 12.3786 2.12371 12.1707C2.30555 11.9629 2.62143 11.9419 2.82925 12.1237C5.48667 14.449 7.48137 17.708 8.55098 19.6964C8.76819 20.1002 9.36299 20.0966 9.57181 19.7432C11.7187 16.1097 16.9522 7.55017 21.1379 3.15517C21.3284 2.95521 21.6449 2.94749 21.8448 3.13793Z" fill="#FCFCFC"/>
</svg>
