<svg width="100%" height="100%" viewBox="0 0 24 24" fill="none" xmlns="http://www.w3.org/2000/svg">
<path d="M21.1394 2.14645C21.3346 1.95118 21.6512 1.95118 21.8465 2.14645C22.0417 2.34171 22.0417 2.65829 21.8465 2.85355L12.7021 11.9979L21.8506 21.1464C22.0459 21.3417 22.0459 21.6583 21.8506 21.8535C21.6553 22.0488 21.3387 22.0488 21.1435 21.8535L11.995 12.705L2.84652 21.8535C2.65126 22.0488 2.33467 22.0488 2.13941 21.8535C1.94415 21.6583 1.94415 21.3417 2.13941 21.1464L11.2879 11.9979L2.14352 2.85355C1.94826 2.65829 1.94826 2.34171 2.14352 2.14645C2.33878 1.95118 2.65537 1.95118 2.85063 2.14645L11.995 11.2908L21.1394 2.14645Z" fill="#FCFCFC"/>
</svg>
