<svg width="100%" height="100%" viewBox="0 0 24 24" fill="none" xmlns="http://www.w3.org/2000/svg">
<path fill-rule="evenodd" clip-rule="evenodd" d="M12 15C11.7239 15 11.5 14.7761 11.5 14.5V9.5C11.5 9.22386 11.7239 9 12 9C12.2761 9 12.5 9.22386 12.5 9.5V14.5C12.5 14.7761 12.2761 15 12 15Z" fill="#FCFCFC"/>
<path d="M11 17C11 16.4477 11.4477 16 12 16C12.5523 16 13 16.4477 13 17C13 17.5523 12.5523 18 12 18C11.4477 18 11 17.5523 11 17Z" fill="#FCFCFC"/>
<path fill-rule="evenodd" clip-rule="evenodd" d="M13.7541 4.01942L21.7293 17.9549C22.4971 19.2966 21.5462 21 19.9753 21H4.02475C2.45384 21 1.50286 19.2966 2.2707 17.9549L10.2459 4.01942C11.0238 2.66019 12.9762 2.66019 13.7541 4.01942ZM12.8861 4.51613C12.4923 3.82796 11.5077 3.82796 11.1139 4.51613L3.13861 18.4516C2.74477 19.1398 3.23707 20 4.02475 20H19.9753C20.7629 20 21.2552 19.1398 20.8614 18.4516L12.8861 4.51613Z" fill="#FCFCFC"/>
</svg>
