<svg width="100%" height="100%" viewBox="0 0 24 24" fill="none" xmlns="http://www.w3.org/2000/svg">
<path fill-rule="evenodd" clip-rule="evenodd" d="M10 3.5C10 2.67157 10.6716 2 11.5 2H20.5C21.3284 2 22 2.67157 22 3.5V11.5C22 12.3284 21.3284 13 20.5 13H18.5C18.2239 13 18 13.2239 18 13.5V20.5C18 21.3284 17.3284 22 16.5 22H3.5C2.67157 22 2 21.3284 2 20.5V7.5C2 6.67157 2.67157 6 3.5 6H8C8.27614 6 8.5 6.22386 8.5 6.5C8.5 6.77614 8.27614 7 8 7H3.5C3.22386 7 3 7.22386 3 7.5V20.5C3 20.7761 3.22386 21 3.5 21H16.5C16.7761 21 17 20.7761 17 20.5V13.5C17 12.6716 17.6716 12 18.5 12H20.5C20.7761 12 21 11.7761 21 11.5V3.5C21 3.22386 20.7761 3 20.5 3H11.5C11.2239 3 11 3.22386 11 3.5V5.5C11 5.77614 11.2239 6 11.5 6H16.5C17.3284 6 18 6.67157 18 7.5V9.5C18 9.77614 17.7761 10 17.5 10C17.2239 10 17 9.77614 17 9.5V7.5C17 7.22386 16.7761 7 16.5 7H11.5C10.6716 7 10 6.32843 10 5.5V3.5Z" fill="#FCFCFC"/>
</svg>
