<svg width="100%" height="100%" viewBox="0 0 24 24" fill="none" xmlns="http://www.w3.org/2000/svg">
<path fill-rule="evenodd" clip-rule="evenodd" d="M5 3C6.4865 3 7.72048 4.08114 7.95852 5.5L21.5 5.5C21.7761 5.5 22 5.72386 22 6C22 6.27614 21.7761 6.5 21.5 6.5L7.95852 6.5C7.72048 7.91886 6.4865 9 5 9C3.34315 9 2 7.65685 2 6C2 4.34315 3.34315 3 5 3ZM5 8C6.10457 8 7 7.10457 7 6C7 4.89543 6.10457 4 5 4C3.89543 4 3 4.89543 3 6C3 7.10457 3.89543 8 5 8Z" fill="#FCFCFC"/>
<path fill-rule="evenodd" clip-rule="evenodd" d="M19 15C20.6569 15 22 13.6569 22 12C22 10.3431 20.6569 9 19 9C17.5135 9 16.2795 10.0811 16.0415 11.5L2.5 11.5C2.22386 11.5 2 11.7239 2 12C2 12.2761 2.22386 12.5 2.5 12.5L16.0415 12.5C16.2795 13.9189 17.5135 15 19 15ZM19 14C20.1046 14 21 13.1046 21 12C21 10.8954 20.1046 10 19 10C17.8954 10 17 10.8954 17 12C17 13.1046 17.8954 14 19 14Z" fill="#FCFCFC"/>
<path fill-rule="evenodd" clip-rule="evenodd" d="M13.9585 17.5C13.7205 16.0811 12.4865 15 11 15C9.5135 15 8.27952 16.0811 8.04148 17.5H2.5C2.22386 17.5 2 17.7239 2 18C2 18.2761 2.22386 18.5 2.5 18.5H8.04148C8.27952 19.9189 9.5135 21 11 21C12.4865 21 13.7205 19.9189 13.9585 18.5L21.5 18.5C21.7761 18.5 22 18.2761 22 18C22 17.7239 21.7761 17.5 21.5 17.5L13.9585 17.5ZM13 18C13 19.1046 12.1046 20 11 20C9.89543 20 9 19.1046 9 18C9 16.8954 9.89543 16 11 16C12.1046 16 13 16.8954 13 18Z" fill="#FCFCFC"/>
</svg>
