<svg width="100%" height="100%" viewBox="0 0 24 24" fill="none" xmlns="http://www.w3.org/2000/svg">
<path fill-rule="evenodd" clip-rule="evenodd" d="M19.2794 3.14155C19.085 2.94712 18.7698 2.94712 18.5753 3.14155L16.4985 5.21843C16.304 5.41286 16.304 5.72809 16.4985 5.92252L18.0775 7.50153C18.6608 8.08481 18.6608 9.03051 18.0775 9.61379L5.83709 21.8542C5.74373 21.9475 5.61709 22 5.48505 22H2V18.5149C2 18.3829 2.05245 18.2563 2.14582 18.1629L13.0988 7.20989C13.2933 7.01546 13.6085 7.01546 13.8029 7.20989C13.9974 7.40431 13.9974 7.71954 13.8029 7.91397L2.99573 18.7212V21.0043H5.27883L17.3734 8.9097C17.5678 8.71527 17.5678 8.40004 17.3734 8.20562L15.7944 6.6266C15.2111 6.04332 15.2111 5.09763 15.7944 4.51434L17.8713 2.43746C18.4545 1.85418 19.4002 1.85418 19.9835 2.43746L21.5625 4.01648C22.1458 4.59976 22.1458 5.54545 21.5625 6.12874L20.773 6.91824C20.5786 7.11267 20.2634 7.11267 20.0689 6.91824C19.8745 6.72382 19.8745 6.40859 20.0689 6.21416L20.8584 5.42465C21.0529 5.23022 21.0529 4.91499 20.8584 4.72056L19.2794 3.14155Z" fill="#FCFCFC"/>
</svg>
