<svg width="100%" height="100%" viewBox="0 0 24 24" fill="none" xmlns="http://www.w3.org/2000/svg">
<path d="M4.5 21.5C4.5 21.7761 4.72386 22 5 22C5.27614 22 5.5 21.7761 5.5 21.5H4.5ZM5 3.06834L4.88015 2.58292C4.65688 2.63804 4.5 2.83836 4.5 3.06834H5ZM19 3.06834H19.5C19.5 2.89936 19.4146 2.74181 19.2731 2.64951C19.1315 2.55721 18.9529 2.54266 18.7983 2.61083L19 3.06834ZM19 10.3293L19.2017 10.7868C19.383 10.7069 19.5 10.5275 19.5 10.3293H19ZM9.03846 2.50986L9.00332 3.00863L9.03846 2.50986ZM16.6218 3.62692L16.6711 4.12448L16.6218 3.62692ZM12.5385 3.62693L12.4259 4.11409L12.5385 3.62693ZM12.5385 10.8879L12.6511 10.4007L12.5385 10.8879ZM9.03846 9.7708L9.09136 10.268L9.03846 9.7708ZM6.47943 9.84817C6.21369 9.92326 6.05914 10.1996 6.13422 10.4653C6.20931 10.731 6.48561 10.8856 6.75134 10.8105L6.47943 9.84817ZM16.6218 10.8879L16.6711 11.3854L16.6218 10.8879ZM5.5 21.5V3.06834H4.5V21.5H5.5ZM18.5 3.06834V10.3293H19.5V3.06834H18.5ZM5 3.06834C5.11985 3.55377 5.11982 3.55378 5.1198 3.55378C5.11981 3.55378 5.1198 3.55378 5.11982 3.55378C5.11985 3.55377 5.11992 3.55375 5.12003 3.55372C5.12026 3.55367 5.12064 3.55357 5.12118 3.55344C5.12226 3.55318 5.12397 3.55276 5.1263 3.55219C5.13095 3.55105 5.13807 3.54932 5.14754 3.54703C5.16647 3.54246 5.19476 3.53568 5.23147 3.52704C5.3049 3.50974 5.4119 3.485 5.54483 3.45555C5.81096 3.39658 6.17969 3.31902 6.59023 3.24456C7.42835 3.09254 8.38187 2.96484 9.00332 3.00863L9.07361 2.0111C8.3131 1.95751 7.24739 2.10905 6.41176 2.26061C5.98544 2.33794 5.60367 2.41826 5.32851 2.47923C5.1908 2.50974 5.07947 2.53548 5.00222 2.55367C4.96359 2.56277 4.93347 2.56998 4.91281 2.57497C4.90247 2.57747 4.89451 2.57941 4.88903 2.58074C4.88629 2.58141 4.88417 2.58193 4.88268 2.5823C4.88194 2.58248 4.88136 2.58262 4.88094 2.58273C4.88072 2.58278 4.88055 2.58282 4.88042 2.58285C4.88036 2.58287 4.88029 2.58289 4.88026 2.58289C4.8802 2.58291 4.88015 2.58292 5 3.06834ZM16.6711 4.12448C17.4241 4.0499 18.0496 3.90314 18.4891 3.77417C18.7091 3.70962 18.8832 3.6493 19.0042 3.6043C19.0647 3.58179 19.1121 3.56309 19.1453 3.54957C19.1618 3.5428 19.1749 3.53733 19.1844 3.53332C19.1891 3.53132 19.1929 3.52968 19.1958 3.52843C19.1972 3.52781 19.1985 3.52728 19.1994 3.52685C19.1999 3.52663 19.2004 3.52644 19.2007 3.52628C19.2009 3.5262 19.2011 3.52612 19.2013 3.52605C19.2013 3.52602 19.2014 3.52597 19.2015 3.52595C19.2016 3.52591 19.2017 3.52586 19 3.06834C18.7983 2.61083 18.7984 2.61079 18.7985 2.61075C18.7985 2.61074 18.7986 2.6107 18.7987 2.61068C18.7988 2.61063 18.7988 2.61059 18.7989 2.61056C18.7991 2.6105 18.7992 2.61046 18.7992 2.61045C18.7992 2.61042 18.7991 2.61049 18.7987 2.61066C18.7979 2.61099 18.7963 2.61171 18.7937 2.61279C18.7886 2.61496 18.78 2.61857 18.7679 2.62348C18.7438 2.6333 18.7061 2.64825 18.6557 2.66702C18.5547 2.70457 18.403 2.75729 18.2075 2.81463C17.8162 2.92946 17.2526 3.06199 16.5725 3.12935L16.6711 4.12448ZM9.00332 3.00863C9.63828 3.05337 10.1021 3.22594 10.6028 3.44354C11.1022 3.66059 11.6696 3.93929 12.4259 4.11409L12.6511 3.13977C12.0068 2.99088 11.5427 2.76167 11.0014 2.52642C10.4614 2.29172 9.87553 2.06761 9.07361 2.0111L9.00332 3.00863ZM12.4259 4.11409C14.0917 4.49908 15.1074 4.27936 16.6711 4.12448L16.5725 3.12935C14.9316 3.29189 14.117 3.47857 12.6511 3.13977L12.4259 4.11409ZM12.6511 10.4007C12.0252 10.2561 11.5874 9.98254 11.022 9.70271C10.4655 9.42725 9.83886 9.18283 8.98557 9.27361L9.09136 10.268C9.67002 10.2064 10.0931 10.3587 10.5784 10.5989C11.055 10.8348 11.6511 11.196 12.4259 11.375L12.6511 10.4007ZM8.98557 9.27361C8.58677 9.31603 7.9471 9.46504 7.43624 9.59379C7.17446 9.65977 6.93572 9.72324 6.7625 9.77019C6.67582 9.79368 6.60538 9.81309 6.55646 9.82666C6.532 9.83344 6.51291 9.83878 6.49986 9.84243C6.49333 9.84426 6.48831 9.84567 6.48487 9.84664C6.48316 9.84712 6.48184 9.84749 6.48093 9.84775C6.48047 9.84788 6.48012 9.84798 6.47987 9.84805C6.47974 9.84808 6.47964 9.84811 6.47957 9.84813C6.47953 9.84814 6.4795 9.84815 6.47948 9.84816C6.47945 9.84817 6.47943 9.84817 6.61538 10.3293C6.75134 10.8105 6.75133 10.8105 6.75133 10.8105C6.75134 10.8105 6.75134 10.8105 6.75136 10.8105C6.75139 10.8105 6.75144 10.8105 6.75152 10.8104C6.75169 10.8104 6.75195 10.8103 6.75232 10.8102C6.75306 10.81 6.7542 10.8097 6.75573 10.8093C6.75881 10.8084 6.76346 10.8071 6.76961 10.8054C6.7819 10.8019 6.80019 10.7968 6.82381 10.7903C6.87104 10.7772 6.93956 10.7583 7.02411 10.7354C7.19335 10.6895 7.42613 10.6276 7.68062 10.5635C8.20231 10.432 8.77418 10.3017 9.09136 10.268L8.98557 9.27361ZM19 10.3293C18.7983 9.8718 18.7984 9.87176 18.7985 9.87172C18.7985 9.87171 18.7986 9.87167 18.7987 9.87165C18.7988 9.8716 18.7989 9.87157 18.7989 9.87153C18.7991 9.87147 18.7992 9.87143 18.7992 9.87142C18.7993 9.87139 18.7991 9.87146 18.7987 9.87163C18.7979 9.87196 18.7963 9.87268 18.7937 9.87376C18.7886 9.87593 18.78 9.87955 18.768 9.88445C18.7439 9.89427 18.7061 9.90922 18.6557 9.92799C18.5547 9.96553 18.403 10.0182 18.2075 10.0756C17.8162 10.1904 17.2526 10.3229 16.5725 10.3903L16.6711 11.3854C17.4241 11.3108 18.0496 11.1641 18.4891 11.0351C18.7091 10.9706 18.8832 10.9103 19.0042 10.8653C19.0647 10.8428 19.112 10.8241 19.1452 10.8106C19.1618 10.8038 19.1749 10.7983 19.1844 10.7943C19.1891 10.7923 19.1929 10.7907 19.1958 10.7894C19.1972 10.7888 19.1984 10.7883 19.1994 10.7878C19.1999 10.7876 19.2003 10.7874 19.2007 10.7873C19.2009 10.7872 19.2011 10.7871 19.2012 10.787C19.2013 10.787 19.2014 10.787 19.2015 10.7869C19.2016 10.7869 19.2017 10.7868 19 10.3293ZM16.5725 10.3903C14.9316 10.5528 14.117 10.7395 12.6511 10.4007L12.4259 11.375C14.0917 11.76 15.1074 11.5403 16.6711 11.3854L16.5725 10.3903Z" fill="#FCFCFC"/>
</svg>
