<svg width="100%" height="100%" viewBox="0 0 24 24" fill="none" xmlns="http://www.w3.org/2000/svg">
<path fill-rule="evenodd" clip-rule="evenodd" d="M12.3785 2.00702L12 2L11.6216 2.00702C6.27407 2.20598 2 6.60386 2 12C2 17.3961 6.27404 21.794 11.6215 21.993L12 22L12.3785 21.993C17.726 21.7939 22 17.3961 22 12C22 6.60387 17.7259 2.206 12.3785 2.00702ZM10.4117 3.1397C7.56557 3.64647 5.18236 5.49104 3.93552 7.99999H7.60437C8.18256 6.14717 9.15228 4.48699 10.4117 3.1397ZM3 12C3 10.9481 3.18046 9.93833 3.51212 8.99999H7.33501C7.11595 9.96191 7 10.967 7 12C7 13.033 7.11595 14.0381 7.335 15H3.51212C3.18046 14.0617 3 13.0519 3 12ZM3.93552 16C5.18235 18.5089 7.56554 20.3535 10.4117 20.8603C9.15225 19.513 8.18254 17.8528 7.60436 16H3.93552ZM8.65614 16C9.3339 17.9889 10.5024 19.7148 12 21C13.4975 19.7148 14.6661 17.9889 15.3439 16H8.65614ZM16.3957 16C15.8175 17.8528 14.8478 19.513 13.5884 20.8603C16.4345 20.3535 18.8177 18.5089 20.0645 16H16.3957ZM20.4879 15H16.665C16.8841 14.0381 17 13.033 17 12C17 10.967 16.8841 9.96191 16.665 8.99999H20.4879C20.8195 9.93833 21 10.9481 21 12C21 13.0519 20.8195 14.0617 20.4879 15ZM15.6373 15H8.36274C8.12622 14.044 8 13.0382 8 12C8 10.9618 8.12623 9.95597 8.36275 8.99999H15.6373C15.8738 9.95597 16 10.9618 16 12C16 13.0382 15.8738 14.044 15.6373 15ZM16.3957 7.99999H20.0645C18.8176 5.49105 16.4345 3.64648 13.5883 3.1397C14.8478 4.48699 15.8175 6.14717 16.3957 7.99999ZM8.65615 7.99999H15.3439C14.6661 6.01111 13.4976 4.28523 12 3C10.5025 4.28523 9.33392 6.01111 8.65615 7.99999Z" fill="#FCFCFC"/>
</svg>
