<svg width="100%" height="100%" viewBox="0 0 24 24" fill="none" xmlns="http://www.w3.org/2000/svg">
<path fill-rule="evenodd" clip-rule="evenodd" d="M2 3.5C2 3.22386 2.22386 3 2.5 3H21.5C21.7761 3 22 3.22386 22 3.5C22 3.77614 21.7761 4 21.5 4H2.5C2.22386 4 2 3.77614 2 3.5ZM2 12C2 11.7239 2.22386 11.5 2.5 11.5H21.5C21.7761 11.5 22 11.7239 22 12C22 12.2761 21.7761 12.5 21.5 12.5H2.5C2.22386 12.5 2 12.2761 2 12ZM2.5 20C2.22386 20 2 20.2239 2 20.5C2 20.7761 2.22386 21 2.5 21H21.5C21.7761 21 22 20.7761 22 20.5C22 20.2239 21.7761 20 21.5 20H2.5Z" fill="#FCFCFC"/>
</svg>
