<svg width="100%" height="100%" viewBox="0 0 24 24" fill="none" xmlns="http://www.w3.org/2000/svg">
<path fill-rule="evenodd" clip-rule="evenodd" d="M19 8.5C19 10.433 17.433 12 15.5 12C13.567 12 12 10.433 12 8.5C12 6.567 13.567 5 15.5 5C17.433 5 19 6.567 19 8.5ZM18 8.5C18 9.88071 16.8807 11 15.5 11C14.1193 11 13 9.88071 13 8.5C13 7.11929 14.1193 6 15.5 6C16.8807 6 18 7.11929 18 8.5Z" fill="#FCFCFC"/>
<path fill-rule="evenodd" clip-rule="evenodd" d="M2 20C2 21.1046 2.89543 22 4 22H20C21.1046 22 22 21.1046 22 20V4C22 2.89543 21.1046 2 20 2H4C2.89543 2 2 2.89543 2 4V20ZM20 3H4C3.44772 3 3 3.44772 3 4V15.9192C5.74728 14.686 8.79353 14 12 14C15.2065 14 18.2527 14.686 21 15.9192V4C21 3.44772 20.5523 3 20 3ZM21 20V17.0209C18.2722 15.7251 15.2208 15 12 15C8.77921 15 5.72777 15.7251 3 17.0209V20C3 20.5523 3.44772 21 4 21H20C20.5523 21 21 20.5523 21 20Z" fill="#FCFCFC"/>
</svg>
