<svg width="100%" height="100%" viewBox="0 0 24 24" fill="none" xmlns="http://www.w3.org/2000/svg">
<path d="M2.95323 7.28859C2.83647 7.03834 2.53895 6.93013 2.28871 7.04689C2.03846 7.16365 1.93025 7.46117 2.04701 7.71141C2.71647 9.14621 3.69554 10.411 4.8996 11.4231L2.67542 13.3225C2.46543 13.5018 2.44057 13.8174 2.6199 14.0274C2.79922 14.2374 3.11483 14.2622 3.32482 14.0829L5.7124 12.044C6.72783 12.7473 7.86984 13.2848 9.09786 13.6167L8.24021 16.3503C8.15755 16.6138 8.30412 16.8944 8.5676 16.977C8.83108 17.0597 9.11169 16.9131 9.19435 16.6496L10.0777 13.8342C10.7019 13.9431 11.3443 14 12.0001 14C12.6655 14 13.3171 13.9415 13.9499 13.8293L14.8287 16.6305C14.9114 16.894 15.192 17.0406 15.4555 16.9579C15.719 16.8752 15.8656 16.5946 15.7829 16.3311L14.929 13.6095C16.1603 13.2733 17.3047 12.7304 18.3212 12.0208L20.6754 14.0313C20.8854 14.2106 21.201 14.1858 21.3803 13.9758C21.5597 13.7658 21.5348 13.4502 21.3248 13.2708L19.131 11.3974C20.3212 10.3897 21.2894 9.13411 21.9532 7.71141C22.07 7.46117 21.9618 7.16365 21.7115 7.04689C21.4613 6.93013 21.1638 7.03834 21.047 7.28859C19.4752 10.6574 16.0172 13 12.0001 13C7.98307 13 4.52506 10.6574 2.95323 7.28859Z" fill="#FCFCFC"/>
</svg>
