<svg width="100%" height="100%" viewBox="0 0 24 24" fill="none" xmlns="http://www.w3.org/2000/svg">
<path fill-rule="evenodd" clip-rule="evenodd" d="M2.43934 14.9357C1.85355 15.5215 1.85355 16.4712 2.43934 17.057L6.93914 21.5568C7.52493 22.1426 8.47467 22.1426 9.06046 21.5568L21.5568 9.06046C22.1426 8.47467 22.1426 7.52492 21.5568 6.93914L17.057 2.43934C16.4712 1.85355 15.5215 1.85355 14.9357 2.43934L2.43934 14.9357ZM3.14645 16.3499C2.95118 16.1546 2.95118 15.8381 3.14645 15.6428L4.37252 14.4167L6.26762 16.3118L6.97473 15.6047L5.07962 13.7096L6.70597 12.0833L8.60106 13.9784L9.30817 13.2713L7.41307 11.3762L9.03943 9.74981L12.3488 13.0591L13.0559 12.352L9.74654 9.0427L11.3729 7.41637L13.268 9.3115L13.9751 8.60439L12.08 6.70927L13.7063 5.08292L15.6014 6.97803L16.3085 6.27093L14.4134 4.37582L15.6428 3.14645C15.8381 2.95118 16.1546 2.95118 16.3499 3.14645L20.8497 7.64625C21.045 7.84151 21.045 8.15809 20.8497 8.35335L8.35335 20.8497C8.15809 21.045 7.84151 21.045 7.64625 20.8497L3.14645 16.3499Z" fill="#FCFCFC"/>
</svg>
