<svg width="100%" height="100%" viewBox="0 0 24 24" fill="none" xmlns="http://www.w3.org/2000/svg">
<path fill-rule="evenodd" clip-rule="evenodd" d="M14.5 2C14.2239 2 14 2.22386 14 2.5C14 2.77614 14.2239 3 14.5 3H20.2929L12.1464 11.1464C11.9512 11.3417 11.9512 11.6583 12.1464 11.8536C12.3417 12.0488 12.6583 12.0488 12.8536 11.8536L21 3.70711V9.5C21 9.77614 21.2239 10 21.5 10C21.7761 10 22 9.77614 22 9.5V2.5V2H21.5H14.5ZM3 5.5C3 5.22386 3.22386 5 3.5 5H10.5C10.7761 5 11 4.77614 11 4.5C11 4.22386 10.7761 4 10.5 4H3.5C2.67157 4 2 4.67157 2 5.5V20.5C2 21.3284 2.67157 22 3.5 22H18.5C19.3284 22 20 21.3284 20 20.5V13.5C20 13.2239 19.7761 13 19.5 13C19.2239 13 19 13.2239 19 13.5V20.5C19 20.7761 18.7761 21 18.5 21H3.5C3.22386 21 3 20.7761 3 20.5V5.5Z" fill="#FCFCFC"/>
</svg>
