<svg width="100%" height="100%" viewBox="0 0 24 24" fill="none" xmlns="http://www.w3.org/2000/svg">
<path fill-rule="evenodd" clip-rule="evenodd" d="M3.5 3C3.22386 3 3 3.22386 3 3.5V13.6249C3 13.7458 3.04383 13.8626 3.12337 13.9537L9.12337 20.8254C9.42719 21.1734 10 20.9585 10 20.4965V15C10 14.7239 9.77614 14.5 9.5 14.5H5.5C5.22386 14.5 5 14.2761 5 14C5 13.7239 5.22386 13.5 5.5 13.5H9.5C10.3284 13.5 11 14.1716 11 15V20.4965C11 21.8823 9.28158 22.527 8.3701 21.4831L2.3701 14.6114C2.13149 14.3382 2 13.9877 2 13.6249V3.5C2 2.67157 2.67157 2 3.5 2H20.5C21.3284 2 22 2.67157 22 3.5V20.5C22 21.3284 21.3284 22 20.5 22H13.5C13.2239 22 13 21.7761 13 21.5C13 21.2239 13.2239 21 13.5 21H20.5C20.7761 21 21 20.7761 21 20.5V3.5C21 3.22386 20.7761 3 20.5 3H3.5Z" fill="#FCFCFC"/>
</svg>
