<svg width="100%" height="100%" viewBox="0 0 24 24" fill="none" xmlns="http://www.w3.org/2000/svg">
<path fill-rule="evenodd" clip-rule="evenodd" d="M10.2521 2.11678C10.7002 1.93799 11.2043 1.96556 11.6302 2.19215C12.1655 2.47692 12.5 3.03376 12.5 3.64006V7.43679C13.2586 7.161 14.1676 7.40079 14.6585 8.1322C15.4919 7.6838 16.5808 7.90913 17.1452 8.74638C17.944 8.33107 18.9491 8.51311 19.5469 9.23053C19.8397 9.58182 20 10.0246 20 10.4819V16.1265C20 18.7411 18.2725 21.0411 15.7615 21.7698C14.9533 22.0043 14.104 22.0625 13.2713 21.9404L12.9312 21.8905C10.8783 21.5894 9.04356 20.4466 7.86806 18.7368L4.3 13.5469C4.1046 13.2627 4 12.9259 4 12.581C4 12.0008 4.29775 11.4606 4.78216 11.1473C5.52978 10.6639 6.53232 10.8252 7.08279 11.533L8.89918 13.8683C8.91302 13.8861 8.92228 13.8887 8.92613 13.8897C8.93346 13.8917 8.94636 13.8924 8.96194 13.887C8.97753 13.8817 8.98727 13.8732 8.99186 13.8672C8.99427 13.864 9 13.8563 9 13.8337V3.86834C9 3.11233 9.46062 2.4326 10.1628 2.15243L10.2521 2.11678ZM16.5 9.59862L16.3344 9.33374C16.0415 8.86498 15.4141 8.77283 15 9.1007V11.9552C15 12.2314 14.7761 12.4552 14.5 12.4552C14.2239 12.4552 14 12.2314 14 11.9552V9.01062L13.8825 8.7817C13.605 8.24126 12.877 8.1749 12.5 8.61641V11.4552C12.5 11.7314 12.2761 11.9552 12 11.9552C11.7239 11.9552 11.5 11.7314 11.5 11.4552V3.64006C11.5 3.40344 11.3695 3.18613 11.1606 3.07499C10.9943 2.98656 10.7976 2.9758 10.6227 3.04558L10.5334 3.08123C10.2113 3.20975 10 3.52155 10 3.86834V13.8337C10 14.8395 8.72733 15.2762 8.10983 14.4823L6.29344 12.1469C6.06522 11.8535 5.64262 11.7818 5.32518 11.987C5.12293 12.1178 5 12.3434 5 12.581C5 12.7236 5.04325 12.8628 5.12405 12.9804L8.6921 18.1703C9.70997 19.6508 11.2986 20.6403 13.0763 20.9011L13.4164 20.9509C14.1074 21.0523 14.8121 21.004 15.4829 20.8094C17.5665 20.2047 19 18.2961 19 16.1265V10.4819C19 10.2586 18.9217 10.0423 18.7787 9.87072C18.4597 9.48783 17.9031 9.41717 17.5 9.69822V12.4552C17.5 12.7314 17.2761 12.9552 17 12.9552C16.7239 12.9552 16.5 12.7314 16.5 12.4552V9.59862Z" fill="#FCFCFC"/>
</svg>
