<svg width="100%" height="100%" viewBox="0 0 24 24" fill="none" xmlns="http://www.w3.org/2000/svg">
<path fill-rule="evenodd" clip-rule="evenodd" d="M13.9509 2.19216C16.1539 2.63037 18.1453 3.79752 19.6041 5.50553C21.0628 7.21355 21.9041 9.36295 21.9923 11.6074C22.0805 13.8519 21.4104 16.0606 20.0902 17.8779L19.2811 17.2901C20.4694 15.6546 21.0724 13.6667 20.9931 11.6467C20.9137 9.62666 20.1566 7.69219 18.8437 6.15498C17.5307 4.61777 15.7385 3.56733 13.7558 3.17295C11.7731 2.77856 9.71532 3.06318 7.91409 3.98095C6.11286 4.89873 4.67307 6.3962 3.82672 8.23207C2.98037 10.0679 2.77675 12.1353 3.24868 14.101C3.7206 16.0667 4.84059 17.8163 6.42816 19.0679C8.01573 20.3194 9.97843 21 12 21L12 22C9.75381 22 7.57303 21.2438 5.80906 19.8532C4.0451 18.4626 2.80067 16.5186 2.27631 14.3345C1.75195 12.1503 1.97819 9.85327 2.91858 7.81341C3.85896 5.77355 5.45873 4.10969 7.4601 3.08995C9.46147 2.0702 11.7479 1.75395 13.9509 2.19216Z" fill="#FCFCFC"/>
<path fill-rule="evenodd" clip-rule="evenodd" d="M9.73224 7.54694C10.7329 7.03706 11.8761 6.87894 12.9776 7.09804C14.0792 7.31715 15.0748 7.90072 15.8042 8.75473C16.5336 9.60874 16.9542 10.6834 16.9983 11.8057C17.0424 12.9279 16.7074 14.0323 16.0473 14.9409L15.2383 14.3531C15.7664 13.6262 16.0344 12.7427 15.9991 11.8449C15.9638 10.9471 15.6273 10.0874 15.0438 9.40418C14.4603 8.72097 13.6638 8.25411 12.7826 8.07883C11.9013 7.90354 10.9868 8.03004 10.1862 8.43794C9.38568 8.84584 8.74578 9.51138 8.36962 10.3273C7.99346 11.1433 7.90297 12.0621 8.11271 12.9357C8.32246 13.8094 8.82023 14.587 9.52582 15.1432C10.2314 15.6995 11.1037 16.002 12.0022 16.002V17.002C10.8791 17.002 9.78871 16.6238 8.90672 15.9285C8.02474 15.2332 7.40252 14.2613 7.14034 13.1692C6.87816 12.0771 6.99128 10.9286 7.46148 9.90867C7.93167 8.88874 8.73155 8.05681 9.73224 7.54694Z" fill="#FCFCFC"/>
</svg>
