<svg width="100%" height="100%" viewBox="0 0 24 24" fill="none" xmlns="http://www.w3.org/2000/svg">
<path fill-rule="evenodd" clip-rule="evenodd" d="M13.2298 2.14645C13.425 1.95118 13.7416 1.95118 13.9369 2.14645L21.8536 10.0631C22.0488 10.2584 22.0488 10.575 21.8536 10.7702C21.6583 10.9655 21.3417 10.9655 21.1464 10.7702L19.9167 9.54044L13.2917 16.1654V18.2941C13.2917 19.6305 11.676 20.2997 10.731 19.3548L8.04167 16.6654L2.85355 21.8536C2.65829 22.0488 2.34171 22.0488 2.14645 21.8536C1.95118 21.6583 1.95118 21.3417 2.14645 21.1464L7.33456 15.9583L4.64522 13.269C3.70027 12.324 4.36952 10.7083 5.70588 10.7083H7.83456L14.4596 4.08333L13.2298 2.85355C13.0345 2.65829 13.0345 2.34171 13.2298 2.14645ZM15.1667 4.79044L8.39522 11.5619C8.30145 11.6557 8.17428 11.7083 8.04167 11.7083H5.70588C5.26043 11.7083 5.03735 12.2469 5.35233 12.5619L11.4381 18.6477C11.7531 18.9627 12.2917 18.7396 12.2917 18.2941V15.9583C12.2917 15.8257 12.3443 15.6985 12.4381 15.6048L19.2096 8.83333L15.1667 4.79044Z" fill="#FCFCFC"/>
</svg>
