<svg width="100%" height="100%" viewBox="0 0 20 20" fill="none" xmlns="http://www.w3.org/2000/svg">
<path fill-rule="evenodd" clip-rule="evenodd" d="M10.4 3.6123V2H9.6V3.6123C6.38399 3.81062 3.81062 6.38399 3.6123 9.6H2V10.4H3.6123C3.81062 13.616 6.38399 16.1894 9.6 16.3877V18H10.4V16.3877C13.616 16.1894 16.1894 13.616 16.3877 10.4H18V9.6H16.3877C16.1894 6.38399 13.616 3.81062 10.4 3.6123ZM15.6 10C15.6 6.90721 13.0928 4.4 10 4.4C6.90721 4.4 4.4 6.90721 4.4 10C4.4 13.0928 6.90721 15.6 10 15.6C13.0928 15.6 15.6 13.0928 15.6 10Z" fill="#FCFCFC"/>
</svg>
