<svg width="100%" height="100%" viewBox="0 0 24 24" fill="none" xmlns="http://www.w3.org/2000/svg">
<path fill-rule="evenodd" clip-rule="evenodd" d="M2.32984 2.03188C2.58932 1.93248 2.87624 2.07328 2.97069 2.34636L4.23956 6.01513C8.91702 3.46978 15.0829 3.46977 19.7604 6.0151L21.0293 2.34636C21.1237 2.07328 21.4106 1.93248 21.6701 2.03188C21.9296 2.13127 22.0634 2.43321 21.9689 2.70629L20.6438 6.53789C21.0444 6.79516 21.4316 7.07285 21.8031 7.37095C22.0227 7.54713 22.065 7.87731 21.8976 8.10841C21.7302 8.33951 21.4164 8.38403 21.1968 8.20784C20.9061 7.97458 20.6049 7.7547 20.2943 7.54821L18.8716 11.6619C19.3711 11.9495 19.8494 12.2726 20.3011 12.6312C20.5216 12.8062 20.5654 13.1361 20.3991 13.3681C20.2328 13.6001 19.9193 13.6463 19.6988 13.4713C19.3274 13.1764 18.935 12.907 18.5252 12.6634L17.0262 16.9975C17.4793 17.26 17.9106 17.5619 18.3134 17.9031C18.5286 18.0853 18.5626 18.4165 18.3895 18.6429C18.2164 18.8693 17.9016 18.9052 17.6865 18.723C17.3698 18.4548 17.0328 18.2137 16.6796 17.9997L15.4159 21.6536C15.3214 21.9267 15.0345 22.0675 14.775 21.9681C14.5155 21.8687 14.3817 21.5668 14.4762 21.2937L15.7788 17.5274C13.4258 16.4702 10.5741 16.4702 8.22117 17.5274L9.52378 21.2937C9.61822 21.5668 9.48443 21.8687 9.22494 21.9681C8.96546 22.0675 8.67853 21.9267 8.58409 21.6536L7.32035 17.9997C6.96719 18.2137 6.6302 18.4548 6.31348 18.723C6.09835 18.9052 5.7836 18.8693 5.61048 18.6429C5.43735 18.4165 5.4714 18.0853 5.68654 17.9031C6.08941 17.5619 6.52065 17.2601 6.97372 16.9975L5.47475 12.6634C5.06495 12.9071 4.67255 13.1764 4.30116 13.4713C4.08071 13.6463 3.76719 13.6001 3.60088 13.3681C3.43457 13.1361 3.47845 12.8062 3.69889 12.6312C4.15056 12.2726 4.62885 11.9496 5.12838 11.6619L3.70563 7.54824C3.39511 7.75473 3.09389 7.97459 2.80317 8.20784C2.58357 8.38403 2.26982 8.33951 2.1024 8.10841C1.93498 7.87731 1.97728 7.54713 2.19688 7.37095C2.56842 7.07286 2.95557 6.79518 3.3562 6.53791L2.031 2.70629C1.93655 2.43321 2.07035 2.13127 2.32984 2.03188ZM16.1212 16.5372L17.6271 12.1833C15.9108 11.3619 13.9606 10.9465 12 10.9465C10.0394 10.9465 8.08919 11.362 6.37287 12.1833L7.87872 16.5372C10.4561 15.3971 13.5439 15.3971 16.1212 16.5372ZM17.9701 11.1915L19.4154 7.0127C14.9761 4.54039 9.02386 4.5404 4.58459 7.01272L6.02986 11.1915C7.87319 10.3235 9.94165 9.89413 12 9.89413C14.0583 9.89413 16.1268 10.3235 17.9701 11.1915Z" fill="#FCFCFC"/>
</svg>
