<svg width="100%" height="100%" viewBox="0 0 24 24" fill="none" xmlns="http://www.w3.org/2000/svg">
<path fill-rule="evenodd" clip-rule="evenodd" d="M3.5 2C2.67157 2 2 2.67157 2 3.5V12.5C2 13.3284 2.67157 14 3.5 14H8.5C8.77614 14 9 13.7761 9 13.5C9 13.2239 8.77614 13 8.5 13H3.5C3.22386 13 3 12.7761 3 12.5V3.5C3 3.22386 3.22386 3 3.5 3H20.5C20.7761 3 21 3.22386 21 3.5V12.5C21 12.7761 20.7761 13 20.5 13H15.5C15.2239 13 15 13.2239 15 13.5C15 13.7761 15.2239 14 15.5 14H20.5C21.3284 14 22 13.3284 22 12.5V3.5C22 2.67157 21.3284 2 20.5 2H3.5ZM12.5 8.5C12.5 8.22386 12.2761 8 12 8C11.7239 8 11.5 8.22386 11.5 8.5V20.149L8.84356 17.6367C8.64292 17.447 8.32647 17.4558 8.13672 17.6564C7.94698 17.8571 7.95581 18.1735 8.15645 18.3633L12 21.9982L15.8436 18.3633C16.0442 18.1735 16.053 17.8571 15.8633 17.6564C15.6735 17.4558 15.3571 17.447 15.1564 17.6367L12.5 20.149V8.5Z" fill="#FCFCFC"/>
</svg>
