<svg width="100%" height="100%" viewBox="0 0 24 24" fill="none" xmlns="http://www.w3.org/2000/svg">
<rect x="2.5" y="2.5" width="19" height="19" rx="1.5" stroke="#FCFCFC" stroke-linecap="round"/>
<path fill-rule="evenodd" clip-rule="evenodd" d="M22 16.3988C18.9997 14.8651 15.6009 14 12 14C8.39911 14 5.00027 14.8651 2 16.3988V17.5292C4.97323 15.9161 8.37963 15 12 15C15.6204 15 19.0268 15.9161 22 17.5292V16.3988Z" fill="#FCFCFC"/>
<path d="M16.0446 12C15.5297 12 15.0809 11.9185 14.698 11.7556C14.3152 11.5926 14.0182 11.3645 13.8069 11.0712C13.6023 10.7779 13.5 10.4325 13.5 10.0349V9.7905C13.5 9.75791 13.5099 9.73184 13.5297 9.71229C13.5561 9.68622 13.5858 9.67318 13.6188 9.67318H14.5C14.533 9.67318 14.5594 9.68622 14.5792 9.71229C14.6056 9.73184 14.6188 9.75791 14.6188 9.7905V9.97626C14.6188 10.2761 14.7541 10.527 15.0248 10.729C15.2954 10.9246 15.665 11.0223 16.1337 11.0223C16.5363 11.0223 16.8399 10.9376 17.0446 10.7682C17.2492 10.5987 17.3515 10.3804 17.3515 10.1131C17.3515 9.93063 17.2954 9.77747 17.1832 9.65363C17.071 9.52328 16.9092 9.40596 16.698 9.30168C16.4934 9.19739 16.1832 9.06704 15.7673 8.91061C15.2987 8.74115 14.9191 8.58147 14.6287 8.43156C14.3383 8.28166 14.0941 8.07961 13.896 7.82542C13.7046 7.56471 13.6089 7.24209 13.6089 6.85754C13.6089 6.28398 13.8201 5.83101 14.2426 5.4986C14.665 5.1662 15.2294 5 15.9356 5C16.4307 5 16.8663 5.08473 17.2426 5.25419C17.6254 5.42365 17.9224 5.66155 18.1337 5.96788C18.3449 6.26769 18.4505 6.61639 18.4505 7.01397V7.18017C18.4505 7.21276 18.4373 7.24209 18.4109 7.26816C18.3911 7.28771 18.3647 7.29749 18.3317 7.29749H17.4406C17.4076 7.29749 17.3779 7.28771 17.3515 7.26816C17.3317 7.24209 17.3218 7.21276 17.3218 7.18017V7.07263C17.3218 6.76629 17.1931 6.50884 16.9356 6.30028C16.6848 6.0852 16.335 5.97765 15.8861 5.97765C15.5231 5.97765 15.2393 6.05261 15.0347 6.20251C14.8366 6.35242 14.7376 6.56425 14.7376 6.83799C14.7376 7.03352 14.7904 7.1932 14.896 7.31704C15.0017 7.44088 15.1601 7.55493 15.3713 7.65922C15.5825 7.75698 15.9092 7.88408 16.3515 8.0405C16.8201 8.21648 17.1931 8.37616 17.4703 8.51955C17.7541 8.66294 17.995 8.86499 18.1931 9.1257C18.3977 9.37989 18.5 9.69925 18.5 10.0838C18.5 10.6704 18.2789 11.1364 17.8366 11.4818C17.401 11.8273 16.8036 12 16.0446 12Z" fill="#FCFCFC"/>
<path fill-rule="evenodd" clip-rule="evenodd" d="M2 20C2 21.1046 2.89543 22 4 22H20C21.1046 22 22 21.1046 22 20V4C22 2.89543 21.1046 2 20 2H4C2.89543 2 2 2.89543 2 4V20ZM20 3H4C3.44772 3 3 3.44772 3 4V15.9192C5.74728 14.686 8.79353 14 12 14C15.2065 14 18.2527 14.686 21 15.9192V4C21 3.44772 20.5523 3 20 3ZM21 20V17.0209C18.2722 15.7251 15.2208 15 12 15C8.77921 15 5.72777 15.7251 3 17.0209V20C3 20.5523 3.44772 21 4 21H20C20.5523 21 21 20.5523 21 20Z" fill="#FCFCFC"/>
</svg>
