<svg width="100%" height="100%" viewBox="0 0 24 24" fill="none" xmlns="http://www.w3.org/2000/svg">
<path fill-rule="evenodd" clip-rule="evenodd" d="M21 5C21 6.65685 19.6569 8 18 8C17.0601 8 16.2212 7.56778 15.6711 6.89125L8.80387 10.9308C8.93059 11.2629 9 11.6234 9 12C9 12.3766 8.93059 12.7371 8.80386 13.0692L15.6711 17.1088C16.2212 16.4322 17.0601 16 18 16C19.6569 16 21 17.3431 21 19C21 20.6569 19.6569 22 18 22C16.3431 22 15 20.6569 15 19C15 18.6415 15.0629 18.2977 15.1782 17.979L8.2962 13.9308C7.74588 14.5846 6.92146 15 6 15C4.34315 15 3 13.6569 3 12C3 10.3431 4.34315 9 6 9C6.92146 9 7.7459 9.41544 8.29621 10.0692L15.1782 6.021C15.0629 5.70231 15 5.3585 15 5C15 3.34315 16.3431 2 18 2C19.6569 2 21 3.34315 21 5ZM20 5C20 6.10457 19.1046 7 18 7C16.8954 7 16 6.10457 16 5C16 3.89543 16.8954 3 18 3C19.1046 3 20 3.89543 20 5ZM8 12C8 13.1046 7.10457 14 6 14C4.89543 14 4 13.1046 4 12C4 10.8954 4.89543 10 6 10C7.10457 10 8 10.8954 8 12ZM18 21C19.1046 21 20 20.1046 20 19C20 17.8954 19.1046 17 18 17C16.8954 17 16 17.8954 16 19C16 20.1046 16.8954 21 18 21Z" fill="#FCFCFC"/>
</svg>
