<svg width="100%" height="100%" viewBox="0 0 24 24" fill="none" xmlns="http://www.w3.org/2000/svg">
<path fill-rule="evenodd" clip-rule="evenodd" d="M18 6C18.5523 6 19 6.44772 19 7V17C19 17.5523 18.5523 18 18 18H6C5.44772 18 5 17.5523 5 17V7C5 6.44772 5.44772 6 6 6H18ZM11.5 7H6V17H11.5L11.5 7ZM12.5 17H18V7H12.5L12.5 17Z" fill="#FCFCFC"/>
<path fill-rule="evenodd" clip-rule="evenodd" d="M4 3C2.89543 3 2 3.89543 2 5V19C2 20.1046 2.89543 21 4 21H20C21.1046 21 22 20.1046 22 19V5C22 3.89543 21.1046 3 20 3H4ZM20 4H4C3.44772 4 3 4.44772 3 5V19C3 19.5523 3.44772 20 4 20H20C20.5523 20 21 19.5523 21 19V5C21 4.44772 20.5523 4 20 4Z" fill="#FCFCFC"/>
</svg>
