<svg width="100%" height="100%" viewBox="0 0 24 24" fill="none" xmlns="http://www.w3.org/2000/svg">
<path fill-rule="evenodd" clip-rule="evenodd" d="M18 6H6C5.44772 6 5 6.44772 5 7V20C5 20.5523 5.44772 21 6 21H18C18.5523 21 19 20.5523 19 20V7C19 6.44772 18.5523 6 18 6ZM6 5C4.89543 5 4 5.89543 4 7V20C4 21.1046 4.89543 22 6 22H18C19.1046 22 20 21.1046 20 20V7C20 5.89543 19.1046 5 18 5H6Z" fill="#FCFCFC"/>
<path fill-rule="evenodd" clip-rule="evenodd" d="M4 2.5C4 2.22386 4.22386 2 4.5 2H19.5C19.7761 2 20 2.22386 20 2.5C20 2.77614 19.7761 3 19.5 3H4.5C4.22386 3 4 2.77614 4 2.5Z" fill="#FCFCFC"/>
<path fill-rule="evenodd" clip-rule="evenodd" d="M8 8C8.27614 8 8.5 8.22386 8.5 8.5L8.5 18.5C8.5 18.7761 8.27614 19 8 19C7.72386 19 7.5 18.7761 7.5 18.5L7.5 8.5C7.5 8.22386 7.72386 8 8 8Z" fill="#FCFCFC"/>
<path fill-rule="evenodd" clip-rule="evenodd" d="M16 8C16.2761 8 16.5 8.22386 16.5 8.5V18.5C16.5 18.7761 16.2761 19 16 19C15.7239 19 15.5 18.7761 15.5 18.5V8.5C15.5 8.22386 15.7239 8 16 8Z" fill="#FCFCFC"/>
<path fill-rule="evenodd" clip-rule="evenodd" d="M12 8C12.2761 8 12.5 8.22386 12.5 8.5V18.5C12.5 18.7761 12.2761 19 12 19C11.7239 19 11.5 18.7761 11.5 18.5L11.5 8.5C11.5 8.22386 11.7239 8 12 8Z" fill="#FCFCFC"/>
</svg>
