<svg width="100%" height="100%" viewBox="0 0 24 24" fill="none" xmlns="http://www.w3.org/2000/svg">
<path fill-rule="evenodd" clip-rule="evenodd" d="M12.0003 6C8.58538 6 5.47703 7.832 3.37519 10.8161C2.87491 11.5264 2.87491 12.4735 3.37519 13.1838C5.47703 16.168 8.58538 18 12.0003 18C15.4151 18 18.5235 16.168 20.6253 13.1838C21.1256 12.4735 21.1256 11.5264 20.6253 10.8162C18.5235 7.832 15.4151 6 12.0003 6ZM2.55763 10.2403C1.81409 11.296 1.81409 12.704 2.55763 13.7597C4.81343 16.9624 8.20619 19 12.0003 19C15.7943 19 19.1871 16.9624 21.4429 13.7597C22.1864 12.704 22.1864 11.296 21.4429 10.2403C19.1871 7.03757 15.7943 5 12.0003 5C8.20619 5 4.81343 7.03757 2.55763 10.2403Z" fill="#FCFCFC"/>
<path fill-rule="evenodd" clip-rule="evenodd" d="M12 15C13.6569 15 15 13.6569 15 12C15 10.3431 13.6569 9 12 9C10.3431 9 9 10.3431 9 12C9 13.6569 10.3431 15 12 15ZM12 16C14.2091 16 16 14.2091 16 12C16 9.79086 14.2091 8 12 8C9.79086 8 8 9.79086 8 12C8 14.2091 9.79086 16 12 16Z" fill="#FCFCFC"/>
</svg>
