<svg width="100%" height="100%" viewBox="0 0 24 24" fill="none" xmlns="http://www.w3.org/2000/svg">
<path d="M14.5 6.49037C14.5 6.21482 14.2762 5.99144 14 5.99144C13.7239 5.99144 13.5 6.21482 13.5 6.49037V9.48394H10.5C10.2239 9.48394 10 9.70732 10 9.98287C10 10.2584 10.2239 10.4818 10.5 10.4818H13.5V13.4754C13.5 13.7509 13.7239 13.9743 14 13.9743C14.2762 13.9743 14.5 13.7509 14.5 13.4754V10.4818H17.5C17.7762 10.4818 18 10.2584 18 9.98287C18 9.70732 17.7762 9.48394 17.5 9.48394H14.5V6.49037Z" fill="#FCFCFC"/>
<path fill-rule="evenodd" clip-rule="evenodd" d="M14 17.9657C18.4183 17.9657 22 14.3917 22 9.98287C22 5.57405 18.4183 2 14 2C9.58177 2 6.00005 5.57405 6.00005 9.98287C6.00005 12.0186 6.76371 13.8764 8.02077 15.2865L2.14645 21.1483C1.95118 21.3431 1.95118 21.659 2.14645 21.8539C2.34171 22.0487 2.65829 22.0487 2.85355 21.8539L8.73054 15.9895C10.138 17.2199 11.9818 17.9657 14 17.9657ZM14 16.9679C17.866 16.9679 21 13.8406 21 9.98287C21 6.12516 17.866 2.99786 14 2.99786C10.1341 2.99786 7.00005 6.12516 7.00005 9.98287C7.00005 13.8406 10.1341 16.9679 14 16.9679Z" fill="#FCFCFC"/>
</svg>
