<svg width="20" height="20" viewBox="0 0 20 20" fill="none" xmlns="http://www.w3.org/2000/svg">
<path d="M5.5 10C5.5 9.72386 5.72386 9.5 6 9.5H9.5V6C9.5 5.72386 9.72386 5.5 10 5.5C10.2761 5.5 10.5 5.72386 10.5 6V9.5H14C14.2761 9.5 14.5 9.72386 14.5 10C14.5 10.2761 14.2761 10.5 14 10.5H10.5V14C10.5 14.2761 10.2761 14.5 10 14.5C9.72386 14.5 9.5 14.2761 9.5 14V10.5H6C5.72386 10.5 5.5 10.2761 5.5 10Z" fill="#FCFCFC"/>
<path fill-rule="evenodd" clip-rule="evenodd" d="M10 19C14.9706 19 19 14.9706 19 10C19 5.02944 14.9706 1 10 1C5.02944 1 1 5.02944 1 10C1 14.9706 5.02944 19 10 19ZM10 18C14.4183 18 18 14.4183 18 10C18 5.58172 14.4183 2 10 2C5.58172 2 2 5.58172 2 10C2 14.4183 5.58172 18 10 18Z" fill="#FCFCFC"/>
</svg>
