<svg width="20" height="20" viewBox="0 0 20 20" fill="none" xmlns="http://www.w3.org/2000/svg">
<path fill-rule="evenodd" clip-rule="evenodd" d="M1 6.5C1 5.67157 1.67157 5 2.5 5H15.5C16.3284 5 17 5.67157 17 6.5V7.25H17.5C18.3284 7.25 19 7.92157 19 8.75V11.25C19 12.0784 18.3284 12.75 17.5 12.75H17V13.5C17 14.3284 16.3284 15 15.5 15H2.5C1.67157 15 1 14.3284 1 13.5V6.5ZM2.5 6C2.22386 6 2 6.22386 2 6.5V13.5C2 13.7761 2.22386 14 2.5 14H15.5C15.7761 14 16 13.7761 16 13.5V11.75H17.5C17.7761 11.75 18 11.5261 18 11.25V8.75C18 8.47386 17.7761 8.25 17.5 8.25H16V6.5C16 6.22386 15.7761 6 15.5 6H2.5Z" fill="#FCFCFC"/>
<rect x="3" y="7" width="7" height="6" fill="#FCFCFC"/>
</svg>
