<svg width="20" height="20" viewBox="0 0 20 20" fill="none" xmlns="http://www.w3.org/2000/svg">
<path fill-rule="evenodd" clip-rule="evenodd" d="M11.3 2.75117C10.7222 1.74961 9.27778 1.74961 8.7 2.75117L1.20335 15.7465C0.625574 16.748 1.34779 18 2.50335 18H17.4967C18.6522 18 19.3744 16.748 18.7967 15.7465L11.3 2.75117ZM9.56667 3.25196C9.75926 2.9181 10.2407 2.9181 10.4333 3.25196L17.93 16.2473C18.1226 16.5811 17.8818 16.9984 17.4967 16.9984H2.50335C2.11816 16.9984 1.87742 16.5811 2.07002 16.2473L9.56667 3.25196ZM10 12C9.72386 12 9.5 11.7761 9.5 11.5V7.5C9.5 7.22386 9.72386 7 10 7C10.2761 7 10.5 7.22386 10.5 7.5V11.5C10.5 11.7761 10.2761 12 10 12ZM9 14C9 13.4477 9.44771 13 10 13C10.5523 13 11 13.4477 11 14C11 14.5523 10.5523 15 10 15C9.44771 15 9 14.5523 9 14Z" fill="#FCFCFC"/>
</svg>
