<svg width="20" height="20" viewBox="0 0 20 20" fill="none" xmlns="http://www.w3.org/2000/svg">
<path fill-rule="evenodd" clip-rule="evenodd" d="M8 2.5C8 1.67157 8.67157 1 9.5 1H17.5C18.3284 1 19 1.67158 19 2.5V9.44737C19 10.2758 18.3284 10.9474 17.5 10.9474H15.9211C15.6449 10.9474 15.4211 11.1712 15.4211 11.4474V17.5C15.4211 18.3284 14.7495 19 13.9211 19H2.5C1.67157 19 1 18.3284 1 17.5V6C1 5.17157 1.67157 4.5 2.5 4.5H5.5C5.77614 4.5 6 4.72386 6 5C6 5.27614 5.77614 5.5 5.5 5.5H2.5C2.22386 5.5 2 5.72386 2 6V17.5C2 17.7761 2.22386 18 2.5 18H13.9211C14.1972 18 14.4211 17.7761 14.4211 17.5V11.4474C14.4211 10.6189 15.0926 9.94737 15.9211 9.94737H17.5C17.7761 9.94737 18 9.72351 18 9.44737V2.5C18 2.22386 17.7761 2 17.5 2H9.5C9.22386 2 9 2.22386 9 2.5V4C9 4.27614 9.22386 4.5 9.5 4.5H14C14.8284 4.5 15.5 5.17157 15.5 6V7.5C15.5 7.77614 15.2761 8 15 8C14.7239 8 14.5 7.77614 14.5 7.5V6C14.5 5.72386 14.2761 5.5 14 5.5H9.5C8.67157 5.5 8 4.82843 8 4V2.5Z" fill="#FCFCFC"/>
</svg>
