<svg width="20" height="20" viewBox="0 0 20 20" fill="none" xmlns="http://www.w3.org/2000/svg">
<path fill-rule="evenodd" clip-rule="evenodd" d="M3.7 2C5.03785 2 6.14843 2.96102 6.36267 4.22222L18.55 4.22222C18.7985 4.22222 19 4.42121 19 4.66667C19 4.91213 18.7985 5.11111 18.55 5.11111L6.36267 5.11111C6.14843 6.37232 5.03785 7.33333 3.7 7.33333C2.20883 7.33333 1 6.13943 1 4.66667C1 3.19391 2.20883 2 3.7 2ZM3.7 6.44444C4.69411 6.44444 5.5 5.64851 5.5 4.66667C5.5 3.68483 4.69411 2.88889 3.7 2.88889C2.70589 2.88889 1.9 3.68483 1.9 4.66667C1.9 5.64851 2.70589 6.44444 3.7 6.44444Z" fill="#FCFCFC"/>
<path fill-rule="evenodd" clip-rule="evenodd" d="M16.3 12.6667C17.7912 12.6667 19 11.4728 19 10C19 8.52724 17.7912 7.33333 16.3 7.33333C14.9622 7.33333 13.8516 8.29435 13.6373 9.55556L1.45 9.55556C1.20147 9.55556 1 9.75454 1 10C1 10.2455 1.20147 10.4444 1.45 10.4444L13.6373 10.4444C13.8516 11.7057 14.9622 12.6667 16.3 12.6667ZM16.3 11.7778C17.2941 11.7778 18.1 10.9818 18.1 10C18.1 9.01816 17.2941 8.22222 16.3 8.22222C15.3059 8.22222 14.5 9.01816 14.5 10C14.5 10.9818 15.3059 11.7778 16.3 11.7778Z" fill="#FCFCFC"/>
<path fill-rule="evenodd" clip-rule="evenodd" d="M11.7627 14.8889C11.5484 13.6277 10.4378 12.6667 9.1 12.6667C7.76215 12.6667 6.65157 13.6277 6.43733 14.8889H1.45C1.20147 14.8889 1 15.0879 1 15.3333C1 15.5788 1.20147 15.7778 1.45 15.7778H6.43733C6.65157 17.039 7.76215 18 9.1 18C10.4378 18 11.5484 17.039 11.7627 15.7778L18.55 15.7778C18.7985 15.7778 19 15.5788 19 15.3333C19 15.0879 18.7985 14.8889 18.55 14.8889L11.7627 14.8889ZM10.9 15.3333C10.9 16.3152 10.0941 17.1111 9.1 17.1111C8.10589 17.1111 7.3 16.3152 7.3 15.3333C7.3 14.3515 8.10589 13.5556 9.1 13.5556C10.0941 13.5556 10.9 14.3515 10.9 15.3333Z" fill="#FCFCFC"/>
</svg>
