<svg width="20" height="20" viewBox="0 0 20 20" fill="none" xmlns="http://www.w3.org/2000/svg">
<path fill-rule="evenodd" clip-rule="evenodd" d="M16.4379 2.16061C16.2427 1.96534 15.9261 1.96534 15.7308 2.16061L13.7312 4.1602C13.536 4.35546 13.536 4.67204 13.7312 4.8673L15.1455 6.28157C15.7313 6.86736 15.7313 7.8171 15.1455 8.40289L4.68221 18.8662C4.58844 18.9599 4.46126 19.0126 4.32865 19.0126H1L1.00015 15.6841C1.00015 15.5515 1.05283 15.4243 1.14659 15.3306L10.5492 5.92794C10.7445 5.73268 11.0611 5.73268 11.2563 5.92794C11.4516 6.1232 11.4516 6.43979 11.2563 6.63505L2.00014 15.8912L2.00004 18.0126H4.12155L14.4384 7.69578C14.6336 7.50052 14.6336 7.18394 14.4384 6.98868L13.0241 5.57441C12.4383 4.98862 12.4383 4.03888 13.0241 3.45309L15.0237 1.4535C15.6095 0.867713 16.5592 0.867714 17.145 1.4535L18.5593 2.86777C19.1451 3.45355 19.1451 4.4033 18.5593 4.98909L17.7591 5.78925C17.5639 5.98452 17.2473 5.98451 17.052 5.78925C16.8568 5.59399 16.8568 5.27741 17.052 5.08215L17.8522 4.28198C18.0474 4.08672 18.0474 3.77014 17.8522 3.57487L16.4379 2.16061Z" fill="#FCFCFC"/>
</svg>
