<svg width="20" height="20" viewBox="0 0 20 20" fill="none" xmlns="http://www.w3.org/2000/svg">
<path d="M3 18.5C3 18.7761 3.22386 19 3.5 19C3.77614 19 4 18.7761 4 18.5H3ZM3.5 1.99996L3.38423 1.51355C3.15897 1.56716 3 1.76842 3 1.99996H3.5ZM16.5 1.99996H17C17 1.83216 16.9158 1.67555 16.7759 1.58296C16.6359 1.49037 16.4589 1.47416 16.3044 1.5398L16.5 1.99996ZM16.5 8.5L16.6956 8.96017C16.8801 8.88173 17 8.70057 17 8.5H16.5ZM7.25 1.50001L7.21611 1.99886L7.25 1.50001ZM14.2917 2.5L14.2441 2.00226L14.2917 2.5ZM10.5 2.50001L10.3913 2.98804L10.5 2.50001ZM10.5 9.00001L10.6087 8.51198L10.5 9.00001ZM7.25 8.00001L7.30101 8.4974H7.30101L7.25 8.00001ZM4.86858 8.01759C4.60215 8.09017 4.445 8.36499 4.51758 8.63142C4.59016 8.89786 4.86498 9.05501 5.13142 8.98243L4.86858 8.01759ZM14.2917 9L14.2441 8.50226L14.2917 9ZM4 18.5V1.99996H3V18.5H4ZM16 1.99996V8.5H17V1.99996H16ZM3.5 1.99996C3.61577 2.48637 3.61575 2.48638 3.61573 2.48638C3.61574 2.48638 3.61573 2.48639 3.61574 2.48638C3.61577 2.48638 3.61583 2.48636 3.61594 2.48634C3.61614 2.48629 3.61649 2.4862 3.61699 2.48609C3.61798 2.48585 3.61956 2.48548 3.62172 2.48497C3.62602 2.48396 3.63262 2.48241 3.64139 2.48037C3.65893 2.47628 3.68516 2.47022 3.71921 2.46249C3.78732 2.44703 3.88659 2.4249 4.00993 2.39856C4.25686 2.34581 4.599 2.27643 4.97991 2.20982C5.75814 2.07374 6.64153 1.95983 7.21611 1.99886L7.28389 1.00116C6.57523 0.953018 5.58362 1.08908 4.80766 1.22477C4.41148 1.29405 4.05672 1.366 3.80104 1.42062C3.67307 1.44795 3.5696 1.47101 3.49779 1.48732C3.46188 1.49547 3.43387 1.50194 3.41465 1.50641C3.40504 1.50865 3.39762 1.51039 3.39251 1.51159C3.38996 1.51219 3.38798 1.51266 3.3866 1.51299C3.38591 1.51315 3.38536 1.51328 3.38496 1.51338C3.38477 1.51342 3.38461 1.51346 3.38448 1.51349C3.38442 1.5135 3.38436 1.51352 3.38433 1.51353C3.38427 1.51354 3.38423 1.51355 3.5 1.99996ZM14.3392 2.99774C15.0398 2.93084 15.6218 2.7992 16.031 2.68345C16.2358 2.6255 16.398 2.57135 16.5108 2.53089C16.5673 2.51065 16.6114 2.49382 16.6425 2.48162C16.658 2.47552 16.6703 2.47058 16.6792 2.46695C16.6836 2.46513 16.6872 2.46364 16.6899 2.4625C16.6913 2.46193 16.6925 2.46144 16.6934 2.46105C16.6939 2.46085 16.6943 2.46067 16.6946 2.46052C16.6948 2.46044 16.695 2.46037 16.6951 2.46031C16.6952 2.46028 16.6953 2.46023 16.6954 2.46021C16.6955 2.46017 16.6956 2.46013 16.5 1.99996C16.3044 1.5398 16.3045 1.53976 16.3046 1.53972C16.3046 1.53971 16.3047 1.53967 16.3048 1.53965C16.3049 1.53961 16.305 1.53957 16.305 1.53954C16.3052 1.53948 16.3053 1.53944 16.3053 1.53942C16.3054 1.53938 16.3053 1.53944 16.305 1.53957C16.3043 1.53985 16.3028 1.54047 16.3005 1.54142C16.2959 1.54331 16.288 1.5465 16.2769 1.55085C16.2548 1.55955 16.22 1.57284 16.1733 1.58956C16.0801 1.623 15.9397 1.67003 15.7588 1.72121C15.3965 1.8237 14.8743 1.94209 14.2441 2.00226L14.3392 2.99774ZM7.21611 1.99886C7.80262 2.0387 8.23079 2.19222 8.69442 2.38649C9.15725 2.58042 9.68653 2.83102 10.3913 2.98804L10.6087 2.01197C10.013 1.87923 9.58437 1.67515 9.08088 1.46418C8.5782 1.25355 8.03163 1.05195 7.28389 1.00116L7.21611 1.99886ZM10.3913 2.98804C11.9418 3.33352 12.8886 3.13625 14.3392 2.99774L14.2441 2.00226C12.719 2.1479 11.9662 2.31443 10.6087 2.01197L10.3913 2.98804ZM10.6087 8.51198C10.031 8.38324 9.62833 8.14045 9.10127 7.88895C8.58203 7.64117 7.99612 7.42086 7.19899 7.50262L7.30101 8.4974C7.83356 8.44278 8.22239 8.57758 8.67061 8.79146C9.111 9.00161 9.66854 9.32701 10.3913 9.48804L10.6087 8.51198ZM7.19899 7.50262C6.82714 7.54076 6.23184 7.6745 5.75764 7.78971C5.51441 7.84881 5.29259 7.90566 5.13166 7.94772C5.05113 7.96876 4.98568 7.98614 4.94022 7.9983C4.91749 8.00438 4.89974 8.00916 4.8876 8.01244C4.88153 8.01408 4.87686 8.01534 4.87366 8.01621C4.87207 8.01664 4.87084 8.01697 4.86999 8.01721C4.86956 8.01732 4.86923 8.01741 4.869 8.01747C4.86888 8.01751 4.86879 8.01753 4.86872 8.01755C4.86868 8.01756 4.86865 8.01757 4.86863 8.01757C4.86861 8.01758 4.86858 8.01759 5 8.50001C5.13142 8.98243 5.13141 8.98243 5.1314 8.98243C5.13141 8.98243 5.13141 8.98243 5.13143 8.98243C5.13145 8.98242 5.1315 8.98241 5.13158 8.98238C5.13173 8.98234 5.13197 8.98228 5.13231 8.98218C5.13299 8.982 5.13405 8.98171 5.13547 8.98133C5.13831 8.98056 5.14263 8.97939 5.14833 8.97785C5.15973 8.97477 5.17669 8.9702 5.1986 8.96434C5.24243 8.95262 5.30602 8.93573 5.38448 8.91523C5.54155 8.87419 5.75757 8.81882 5.99373 8.76144C6.47833 8.6437 7.00803 8.52745 7.30101 8.4974L7.19899 7.50262ZM16.5 8.5C16.3044 8.03983 16.3045 8.03979 16.3046 8.03975C16.3047 8.03974 16.3047 8.0397 16.3048 8.03968C16.3049 8.03964 16.305 8.0396 16.3051 8.03957C16.3052 8.03951 16.3053 8.03947 16.3053 8.03945C16.3054 8.03941 16.3053 8.03947 16.305 8.0396C16.3043 8.03988 16.3028 8.0405 16.3005 8.04145C16.2959 8.04334 16.288 8.04653 16.2769 8.05088C16.2548 8.05958 16.22 8.07287 16.1734 8.08958C16.0801 8.12302 15.9397 8.17005 15.7588 8.22123C15.3965 8.32371 14.8743 8.44209 14.2441 8.50226L14.3392 9.49774C15.0398 9.43084 15.6218 9.29921 16.031 9.18347C16.2358 9.12553 16.398 9.07138 16.5108 9.03093C16.5673 9.01069 16.6114 8.99386 16.6425 8.98166C16.658 8.97557 16.6703 8.97062 16.6791 8.96699C16.6836 8.96518 16.6872 8.96369 16.6899 8.96254C16.6913 8.96197 16.6924 8.96149 16.6934 8.96109C16.6938 8.96089 16.6943 8.96072 16.6946 8.96057C16.6948 8.96049 16.695 8.96042 16.6951 8.96035C16.6952 8.96032 16.6953 8.96028 16.6954 8.96026C16.6955 8.96022 16.6956 8.96017 16.5 8.5ZM14.2441 8.50226C12.719 8.6479 11.9662 8.81444 10.6087 8.51198L10.3913 9.48804C11.9418 9.83352 12.8886 9.63625 14.3392 9.49774L14.2441 8.50226Z" fill="#FCFCFC"/>
</svg>
