<svg width="20" height="20" viewBox="0 0 20 20" fill="none" xmlns="http://www.w3.org/2000/svg">
<path fill-rule="evenodd" clip-rule="evenodd" d="M10.3406 1.00632L10 1L9.6594 1.00632C4.84666 1.18539 1 5.14347 1 9.99999C1 14.8565 4.84664 18.8146 9.65936 18.9937L10 19L10.3407 18.9937C15.1534 18.8146 19 14.8565 19 9.99999C19 5.14348 15.1534 1.1854 10.3406 1.00632ZM8.57054 2.02573C6.00901 2.48182 3.86412 4.14194 2.74197 6.39999H6.04393C6.5643 4.73245 7.43705 3.23829 8.57054 2.02573ZM1.9 9.99999C1.9 9.05328 2.06242 8.14449 2.36091 7.29999H5.8015C5.60436 8.16572 5.5 9.07028 5.5 10C5.5 10.9297 5.60436 11.8343 5.8015 12.7H2.36091C2.06242 11.8555 1.9 10.9467 1.9 9.99999ZM2.74197 13.6C3.86412 15.858 6.00899 17.5181 8.57051 17.9742C7.43702 16.7617 6.56428 15.2675 6.04392 13.6H2.74197ZM6.99053 13.6C7.60051 15.39 8.6522 16.9433 9.99998 18.1C11.3478 16.9433 12.3995 15.39 13.0095 13.6H6.99053ZM13.9561 13.6C13.4357 15.2675 12.563 16.7617 11.4295 17.9742C13.991 17.5181 16.1359 15.858 17.258 13.6H13.9561ZM17.6391 12.7H14.1985C14.3957 11.8343 14.5 10.9297 14.5 10C14.5 9.07029 14.3957 8.16572 14.1985 7.29999H17.6391C17.9376 8.14449 18.1 9.05328 18.1 9.99999C18.1 10.9467 17.9376 11.8555 17.6391 12.7ZM13.2736 12.7H6.72647C6.5136 11.8396 6.4 10.9344 6.4 10C6.4 9.06563 6.5136 8.16037 6.72648 7.29999H13.2736C13.4864 8.16038 13.6 9.06563 13.6 10C13.6 10.9344 13.4864 11.8396 13.2736 12.7ZM13.9561 6.39999H17.258C16.1359 4.14195 13.991 2.48184 11.4295 2.02573C12.563 3.23829 13.4357 4.73245 13.9561 6.39999ZM6.99054 6.39999H13.0095C12.3995 4.61 11.3478 3.05671 10 1.9C8.65223 3.05671 7.60052 4.61 6.99054 6.39999Z" fill="#FCFCFC"/>
</svg>
