<svg width="20" height="20" viewBox="0 0 20 20" fill="none" xmlns="http://www.w3.org/2000/svg">
<path fill-rule="evenodd" clip-rule="evenodd" d="M0.888672 2.45278C0.888672 2.20272 1.09139 2 1.34145 2H18.547C18.7971 2 18.9998 2.20272 18.9998 2.45278C18.9998 2.70284 18.7971 2.90556 18.547 2.90556H1.34145C1.09139 2.90556 0.888672 2.70284 0.888672 2.45278ZM0.888672 10.15C0.888672 9.89995 1.09139 9.69724 1.34145 9.69724H18.547C18.7971 9.69724 18.9998 9.89995 18.9998 10.15C18.9998 10.4001 18.7971 10.6028 18.547 10.6028H1.34145C1.09139 10.6028 0.888672 10.4001 0.888672 10.15ZM1.34145 17.3945C1.09139 17.3945 0.888672 17.5972 0.888672 17.8472C0.888672 18.0973 1.09139 18.3 1.34145 18.3H18.547C18.7971 18.3 18.9998 18.0973 18.9998 17.8472C18.9998 17.5972 18.7971 17.3945 18.547 17.3945H1.34145Z" fill="#FCFCFC"/>
</svg>
