<svg width="20" height="20" viewBox="0 0 20 20" fill="none" xmlns="http://www.w3.org/2000/svg">
<path fill-rule="evenodd" clip-rule="evenodd" d="M16.3 6.85001C16.3 8.58971 14.8897 10 13.15 10C11.4103 10 10 8.58971 10 6.85001C10 5.11032 11.4103 3.70001 13.15 3.70001C14.8897 3.70001 16.3 5.11032 16.3 6.85001ZM15.3 6.85001C15.3 8.03742 14.3374 9.00001 13.15 9.00001C11.9626 9.00001 11 8.03742 11 6.85001C11 5.6626 11.9626 4.70001 13.15 4.70001C14.3374 4.70001 15.3 5.6626 15.3 6.85001Z" fill="#FCFCFC"/>
<path fill-rule="evenodd" clip-rule="evenodd" d="M1 17C1 18.1046 1.89543 19 3 19H17C18.1046 19 19 18.1046 19 17V3C19 1.89543 18.1046 1 17 1H3C1.89543 1 1 1.89543 1 3V17ZM17 2H3C2.44772 2 2 2.44772 2 3V13.4827C4.4464 12.4009 7.15303 11.8 10 11.8C12.847 11.8 15.5536 12.4009 18 13.4827V3C18 2.44772 17.5523 2 17 2ZM18 17V14.5821C15.5726 13.439 12.8609 12.8 10 12.8C7.13909 12.8 4.42744 13.439 2 14.5821V17C2 17.5523 2.44772 18 3 18H17C17.5523 18 18 17.5523 18 17Z" fill="#FCFCFC"/>
</svg>
