<svg width="20" height="20" viewBox="0 0 20 20" fill="none" xmlns="http://www.w3.org/2000/svg">
<path d="M1.85789 5.25983C1.75281 5.03462 1.48505 4.93723 1.25983 5.04231C1.03462 5.14739 0.937229 5.41515 1.04231 5.64036C1.64481 6.93165 2.52597 8.06998 3.60961 8.98079L1.60787 10.6902C1.41888 10.8516 1.39651 11.1356 1.5579 11.3246C1.71929 11.5136 2.00333 11.536 2.19232 11.3746L4.34112 9.53959C5.255 10.1725 6.28279 10.6563 7.388 10.955L6.61612 13.4152C6.54173 13.6523 6.67364 13.9048 6.91077 13.9792C7.1479 14.0536 7.40044 13.9217 7.47484 13.6846L8.26984 11.1507C8.83161 11.2488 9.40978 11.3 10 11.3C10.5988 11.3 11.1853 11.2473 11.7548 11.1464L12.5457 13.6674C12.6201 13.9045 12.8727 14.0364 13.1098 13.962C13.3469 13.8876 13.4788 13.6351 13.4044 13.398L12.6359 10.9485C13.7441 10.646 14.7741 10.1573 15.6889 9.51874L17.8077 11.3281C17.9967 11.4895 18.2807 11.4671 18.4421 11.2782C18.6035 11.0892 18.5811 10.8051 18.3921 10.6437L16.4178 8.9577C17.4889 8.05078 18.3603 6.92077 18.9577 5.64036C19.0628 5.41515 18.9654 5.14739 18.7402 5.04231C18.5149 4.93723 18.2472 5.03462 18.1421 5.25983C16.7275 8.29169 13.6153 10.4 10 10.4C6.3847 10.4 3.27252 8.29169 1.85789 5.25983Z" fill="#FCFCFC"/>
</svg>
