<svg width="20" height="20" viewBox="0 0 20 20" fill="none" xmlns="http://www.w3.org/2000/svg">
<path fill-rule="evenodd" clip-rule="evenodd" d="M1.43889 14.1483C0.853948 13.5633 0.853948 12.6149 1.43889 12.03L12.0302 1.43871C12.6151 0.853765 13.5635 0.853765 14.1484 1.43871L18.5615 5.85174C19.1464 6.43669 19.1464 7.38506 18.5615 7.97L7.97019 18.5613C7.38524 19.1462 6.43687 19.1462 5.85193 18.5613L1.43889 14.1483ZM2.14497 12.7361C1.94999 12.9311 1.94999 13.2472 2.14497 13.4422L6.55801 17.8552C6.75299 18.0502 7.06912 18.0502 7.2641 17.8552L17.8554 7.26392C18.0504 7.06894 18.0504 6.75281 17.8554 6.55783L13.4424 2.14479C13.2474 1.94981 12.9312 1.94981 12.7363 2.14479L11.889 2.99209L13.6542 4.75731L12.9481 5.4634L11.1829 3.69818L9.91206 4.969L11.6773 6.73421L10.9712 7.4403L9.20597 5.67508L7.7938 7.08726L10.9712 10.2646L10.2651 10.9707L7.08744 7.79362L5.67527 9.20579L7.44048 10.971L6.7344 11.6771L4.96918 9.91188L3.69836 11.1827L5.46358 12.9479L4.75749 13.654L2.99228 11.8888L2.14497 12.7361Z" fill="#FCFCFC"/>
</svg>
