<svg width="20" height="20" viewBox="0 0 20 20" fill="none" xmlns="http://www.w3.org/2000/svg">
<path fill-rule="evenodd" clip-rule="evenodd" d="M12.4998 1C12.2237 1 11.9998 1.22386 11.9998 1.5C11.9998 1.77614 12.2237 2 12.4998 2H17.2929L10.1464 9.14645C9.95118 9.34171 9.95118 9.65829 10.1464 9.85355C10.3417 10.0488 10.6583 10.0488 10.8536 9.85355L18 2.70711V7.5C18 7.77614 18.2238 8 18.5 8C18.7761 8 19 7.77614 19 7.5V1.5V1H18.5H12.4998ZM2 4.5C2 4.22386 2.22386 4 2.5 4H8.65789C8.93404 4 9.15789 3.77614 9.15789 3.5C9.15789 3.22386 8.93404 3 8.65789 3H2.5C1.67157 3 1 3.67157 1 4.5V17.5C1 18.3284 1.67157 19 2.5 19H15.5C16.3284 19 17 18.3284 17 17.5V11.3421C17 11.066 16.7761 10.8421 16.5 10.8421C16.2239 10.8421 16 11.066 16 11.3421V17.5C16 17.7762 15.7761 18 15.5 18H2.5C2.22386 18 2 17.7762 2 17.5V4.5Z" fill="#FCFCFC"/>
</svg>
