<svg width="20" height="20" viewBox="0 0 20 20" fill="none" xmlns="http://www.w3.org/2000/svg">
<path fill-rule="evenodd" clip-rule="evenodd" d="M2 1.99885V11.0935C2 11.2203 2.04822 11.3422 2.1349 11.4348L8.1349 17.8399C8.44475 18.1707 9 17.9517 9 17.4987V12.4868C9 12.211 8.77614 11.9874 8.5 11.9874H4.8972C4.62106 11.9874 4.3972 11.7638 4.3972 11.488C4.3972 11.2122 4.62106 10.9886 4.8972 10.9886H8.5C9.32843 10.9886 10 11.6594 10 12.4868V17.4987C10 18.8577 8.33424 19.5147 7.4047 18.5224L1.4047 12.1172C1.14467 11.8396 1 11.4737 1 11.0935V1.89897C1 1.40248 1.40294 1 1.9 1H18.1C18.5971 1 19 1.40248 19 1.89897V18.0804C19 18.5769 18.5971 18.9794 18.1 18.9794H12.5C12.2239 18.9794 12 18.7558 12 18.48C12 18.2041 12.2239 17.9805 12.5 17.9805H18V1.99885H2Z" fill="#FCFCFC"/>
</svg>
