<svg width="20" height="20" viewBox="0 0 20 20" fill="none" xmlns="http://www.w3.org/2000/svg">
<path d="M10 9.48987V6.68176M10 6.68176V2.17196C10 1.77899 9.78345 1.41801 9.43675 1.23303V1.23303C9.15983 1.08528 8.83181 1.0673 8.54041 1.18391L8.45695 1.21731C7.97964 1.40831 7.66667 1.87064 7.66667 2.38476V11.7184C7.66667 12.2128 7.04081 12.427 6.73783 12.0363L5.04266 9.85052C4.6793 9.38199 4.01446 9.27188 3.517 9.59451V9.59451C3.19575 9.80285 3 10.1609 3 10.5438V10.5438C3 10.7719 3.06901 10.9946 3.19797 11.1827L6.53198 16.0462C7.55295 17.5356 9.14887 18.5316 10.9354 18.7944L11.251 18.8408C11.9642 18.9457 12.6916 18.8957 13.3837 18.6943V18.6943C15.5264 18.0707 17 16.1072 17 13.8756V8.5764C17 8.25937 16.8891 7.95233 16.6865 7.70849V7.70849C16.2129 7.13861 15.37 7.05347 14.7921 7.51715L14.6667 7.61779M10 6.68176V6.68176C10.5135 5.85782 11.7295 5.909 12.1719 6.77317L12.3333 7.0885M12.3333 7.0885V9.95789M12.3333 7.0885V7.0885C12.9132 6.42115 13.9732 6.50509 14.4408 7.25537L14.6667 7.61779M14.6667 7.61779V10.4259" stroke="#FCFCFC" stroke-width="0.75" stroke-linecap="round" stroke-linejoin="round"/>
</svg>
