<svg width="20" height="20" viewBox="0 0 20 20" fill="none" xmlns="http://www.w3.org/2000/svg">
<path fill-rule="evenodd" clip-rule="evenodd" d="M11.7558 1.17294C13.7385 1.56733 15.5307 2.61776 16.8437 4.15498C18.1566 5.69219 18.9137 7.62666 18.9931 9.64667C19.0724 11.6667 18.4694 13.6546 17.2812 15.2901L16.553 14.7611C17.6225 13.2891 18.1652 11.5 18.0938 9.682C18.0223 7.86399 17.3409 6.12297 16.1593 4.73948C14.9777 3.35599 13.3647 2.4106 11.5802 2.05565C9.79578 1.7007 7.94379 1.95686 6.32268 2.78286C4.70157 3.60885 3.40576 4.95658 2.64405 6.60886C1.88233 8.26115 1.69908 10.1218 2.12381 11.8909C2.54854 13.6601 3.55653 15.2347 4.98534 16.3611C6.41416 17.4875 8.18059 18.1 10 18.1L10 19C7.97843 19 6.01573 18.3194 4.42816 17.0679C2.84059 15.8163 1.7206 14.0667 1.24868 12.101C0.776752 10.1353 0.980369 8.06794 1.82672 6.23207C2.67307 4.39619 4.11286 2.89872 5.91409 1.98095C7.71532 1.06318 9.77309 0.778555 11.7558 1.17294Z" fill="#FCFCFC"/>
<path fill-rule="evenodd" clip-rule="evenodd" d="M7.95902 5.99224C8.85963 5.53336 9.88852 5.39104 10.8799 5.58824C11.8712 5.78543 12.7673 6.31065 13.4238 7.07926C14.0802 7.84786 14.4588 8.81509 14.4985 9.8251C14.5382 10.8351 14.2367 11.8291 13.6425 12.6468L12.9144 12.1178C13.3897 11.4636 13.6309 10.6684 13.5992 9.86043C13.5674 9.05243 13.2646 8.27864 12.7394 7.66376C12.2143 7.04887 11.4974 6.6287 10.7043 6.47094C9.91121 6.31319 9.0881 6.42704 8.36761 6.79415C7.64712 7.16126 7.0712 7.76025 6.73266 8.49459C6.39412 9.22894 6.31267 10.0559 6.50144 10.8422C6.69021 11.6285 7.13821 12.3283 7.77323 12.8289C8.40826 13.3295 9.19334 13.6018 10.002 13.6018V14.5018C8.99119 14.5018 8.00984 14.1615 7.21605 13.5357C6.42226 12.9099 5.86227 12.0351 5.62631 11.0523C5.39035 10.0694 5.49216 9.03574 5.91533 8.1178C6.3385 7.19986 7.0584 6.45113 7.95902 5.99224Z" fill="#FCFCFC"/>
</svg>
