<svg width="20" height="20" viewBox="0 0 20 20" fill="none" xmlns="http://www.w3.org/2000/svg">
<path fill-rule="evenodd" clip-rule="evenodd" d="M11.1068 1.1318C11.2825 0.956066 11.5675 0.956066 11.7432 1.1318L18.8682 8.2568C19.0439 8.43254 19.0439 8.71746 18.8682 8.8932C18.6925 9.06893 18.4075 9.06893 18.2318 8.8932L17.125 7.7864L11.1625 13.7489V15.6647C11.1625 16.8674 9.70836 17.4698 8.8579 16.6193L6.4375 14.1989L1.7682 18.8682C1.59246 19.0439 1.30754 19.0439 1.1318 18.8682C0.956066 18.6925 0.956066 18.4075 1.1318 18.2318L5.8011 13.5625L3.3807 11.1421C2.53025 10.2916 3.13257 8.8375 4.33529 8.8375H6.2511L12.2136 2.875L11.1068 1.7682C10.9311 1.59246 10.9311 1.30754 11.1068 1.1318ZM12.85 3.5114L6.7557 9.6057C6.67131 9.69009 6.55685 9.7375 6.4375 9.7375H4.33529C3.93439 9.7375 3.73361 10.2222 4.01709 10.5057L9.4943 15.9829C9.77779 16.2664 10.2625 16.0656 10.2625 15.6647V13.5625C10.2625 13.4432 10.3099 13.3287 10.3943 13.2443L16.4886 7.15L12.85 3.5114Z" fill="#FCFCFC"/>
</svg>
