<svg width="20" height="20" viewBox="0 0 20 20" fill="none" xmlns="http://www.w3.org/2000/svg">
<path fill-rule="evenodd" clip-rule="evenodd" d="M10.45 2.81383V1.45C10.45 1.20147 10.2485 1 10 1C9.75147 1 9.55 1.20147 9.55 1.45V2.81383C5.93199 3.03694 3.03695 5.93199 2.81383 9.55H1.45C1.20147 9.55 1 9.75147 1 10C1 10.2485 1.20147 10.45 1.45 10.45H2.81383C3.03695 14.068 5.93199 16.9631 9.55 17.1862V18.55C9.55 18.7985 9.75147 19 10 19C10.2485 19 10.45 18.7985 10.45 18.55V17.1862C14.068 16.9631 16.9631 14.068 17.1862 10.45H18.55C18.7985 10.45 19 10.2485 19 10C19 9.75147 18.7985 9.55 18.55 9.55H17.1862C16.9631 5.93199 14.068 3.03694 10.45 2.81383ZM16.3 10C16.3 6.52061 13.4794 3.7 10 3.7C6.52061 3.7 3.7 6.52061 3.7 10C3.7 13.4794 6.52061 16.3 10 16.3C13.4794 16.3 16.3 13.4794 16.3 10Z" fill="#FCFCFC"/>
</svg>
