<svg width="20" height="20" viewBox="0 0 20 20" fill="none" xmlns="http://www.w3.org/2000/svg">
<path d="M2.5 1C1.67157 1 1 1.67157 1 2.5V10.5C1 11.3284 1.67157 12 2.5 12H6.86842C7.14456 12 7.36842 11.7761 7.36842 11.5C7.36842 11.2239 7.14456 11 6.86842 11H2.5C2.22386 11 2 10.7761 2 10.5V2.5C2 2.22386 2.22386 2 2.5 2H17.5C17.7761 2 18 2.22386 18 2.5V10.5C18 10.7761 17.7761 11 17.5 11H13.1316C12.8554 11 12.6316 11.2239 12.6316 11.5C12.6316 11.7761 12.8554 12 13.1316 12H17.5C18.3284 12 19 11.3284 19 10.5V2.5C19 1.67157 18.3284 1 17.5 1H2.5Z" fill="#FCFCFC"/>
<path d="M10.4998 7.5C10.4998 7.22386 10.276 7 9.99984 7C9.72369 7 9.49984 7.22386 9.49984 7.5V17.1029L7.51796 15.1444C7.32155 14.9503 7.00497 14.9521 6.81086 15.1485C6.61676 15.345 6.61863 15.6615 6.81505 15.8556L9.99984 19.003L13.1846 15.8556C13.381 15.6615 13.3829 15.345 13.1888 15.1485C12.9947 14.9521 12.6781 14.9503 12.4817 15.1444L10.4998 17.1029V7.5Z" fill="#FCFCFC"/>
</svg>
