<svg width="20" height="20" viewBox="0 0 20 20" fill="none" xmlns="http://www.w3.org/2000/svg">
<path d="M13.8037 9.99999C13.3781 9.99999 13.007 9.92783 12.6906 9.78351C12.3741 9.63919 12.1285 9.43714 11.9539 9.17736C11.7848 8.91759 11.7002 8.61163 11.7002 8.25948V8.043C11.7002 8.01414 11.7084 7.99105 11.7247 7.97373C11.7466 7.95064 11.7711 7.93909 11.7984 7.93909H12.5269C12.5541 7.93909 12.576 7.95064 12.5923 7.97373C12.6142 7.99105 12.6251 8.01414 12.6251 8.043V8.20753C12.6251 8.47308 12.7369 8.69533 12.9607 8.87429C13.1844 9.04747 13.4899 9.13407 13.8774 9.13407C14.2102 9.13407 14.4612 9.05902 14.6304 8.90893C14.7995 8.75883 14.8841 8.56544 14.8841 8.32876C14.8841 8.16712 14.8377 8.03146 14.7449 7.92178C14.6522 7.80632 14.5185 7.70241 14.3439 7.61004C14.1747 7.51768 13.9183 7.40222 13.5745 7.26367C13.1871 7.11358 12.8734 6.97215 12.6333 6.83937C12.3932 6.7066 12.1913 6.52764 12.0276 6.3025C11.8693 6.07159 11.7902 5.78583 11.7902 5.44524C11.7902 4.93723 11.9648 4.53602 12.3141 4.24161C12.6633 3.94719 13.1298 3.79999 13.7137 3.79999C14.1229 3.79999 14.483 3.87503 14.7941 4.02513C15.1105 4.17522 15.3561 4.38593 15.5307 4.65725C15.7053 4.9228 15.7926 5.23164 15.7926 5.58379V5.73099C15.7926 5.75986 15.7817 5.78583 15.7599 5.80893C15.7435 5.82624 15.7217 5.8349 15.6944 5.8349H14.9578C14.9305 5.8349 14.9059 5.82624 14.8841 5.80893C14.8677 5.78583 14.8595 5.75986 14.8595 5.73099V5.63574C14.8595 5.36442 14.7531 5.13639 14.5403 4.95166C14.333 4.76116 14.0438 4.66591 13.6727 4.66591C13.3726 4.66591 13.138 4.7323 12.9688 4.86507C12.8051 4.99785 12.7233 5.18546 12.7233 5.42792C12.7233 5.6011 12.767 5.74254 12.8543 5.85222C12.9416 5.96191 13.0725 6.06293 13.2471 6.15529C13.4217 6.24189 13.6918 6.35446 14.0574 6.493C14.4448 6.64887 14.7531 6.7903 14.9823 6.91731C15.2169 7.04431 15.4161 7.22327 15.5798 7.45418C15.749 7.67932 15.8335 7.96218 15.8335 8.30278C15.8335 8.82233 15.6507 9.23509 15.2851 9.54105C14.925 9.84701 14.4312 9.99999 13.8037 9.99999Z" fill="#FCFCFC"/>
<rect x="1.5" y="1.5" width="17" height="17" rx="1.5" stroke="#FCFCFC" stroke-linecap="round"/>
<path fill-rule="evenodd" clip-rule="evenodd" d="M19 13.9589C16.2998 12.5786 13.2408 11.8 10 11.8C6.7592 11.8 3.70024 12.5786 1 13.9589V15.0902C3.67298 13.63 6.73956 12.8 10 12.8C13.2604 12.8 16.327 13.63 19 15.0902V13.9589Z" fill="#FCFCFC"/>
</svg>
