<svg width="20" height="20" viewBox="0 0 20 20" fill="none" xmlns="http://www.w3.org/2000/svg">
<path fill-rule="evenodd" clip-rule="evenodd" d="M18 3.7C18 5.19117 16.8061 6.4 15.3333 6.4C14.4979 6.4 13.7522 6.011 13.2632 5.40213L7.15899 9.03772C7.27164 9.33664 7.33333 9.66102 7.33333 10C7.33333 10.339 7.27163 10.6634 7.15899 10.9623L13.2632 14.5979C13.7521 13.989 14.4979 13.6 15.3333 13.6C16.8061 13.6 18 14.8088 18 16.3C18 17.7912 16.8061 19 15.3333 19C13.8606 19 12.6667 17.7912 12.6667 16.3C12.6667 15.9774 12.7226 15.6679 12.8251 15.3811L6.70773 11.7377C6.21856 12.3261 5.48574 12.7 4.66667 12.7C3.19391 12.7 2 11.4912 2 10C2 8.50883 3.19391 7.3 4.66667 7.3C5.48575 7.3 6.21857 7.6739 6.70774 8.26232L12.8251 4.6189C12.7226 4.33208 12.6667 4.02265 12.6667 3.7C12.6667 2.20883 13.8606 1 15.3333 1C16.8061 1 18 2.20883 18 3.7ZM17.1111 3.7C17.1111 4.69411 16.3152 5.5 15.3333 5.5C14.3515 5.5 13.5556 4.69411 13.5556 3.7C13.5556 2.70589 14.3515 1.9 15.3333 1.9C16.3152 1.9 17.1111 2.70589 17.1111 3.7ZM6.44444 10C6.44444 10.9941 5.64851 11.8 4.66667 11.8C3.68483 11.8 2.88889 10.9941 2.88889 10C2.88889 9.00589 3.68483 8.2 4.66667 8.2C5.64851 8.2 6.44444 9.00589 6.44444 10ZM15.3333 18.1C16.3152 18.1 17.1111 17.2941 17.1111 16.3C17.1111 15.3059 16.3152 14.5 15.3333 14.5C14.3515 14.5 13.5556 15.3059 13.5556 16.3C13.5556 17.2941 14.3515 18.1 15.3333 18.1Z" fill="#FCFCFC"/>
</svg>
