<svg width="20" height="20" viewBox="0 0 20 20" fill="none" xmlns="http://www.w3.org/2000/svg">
<path d="M3 1.5C3 1.22386 3.22386 1 3.5 1H16.5C16.7761 1 17 1.22386 17 1.5C17 1.77614 16.7761 2 16.5 2H3.5C3.22386 2 3 1.77614 3 1.5Z" fill="#FCFCFC"/>
<path d="M7 7.5C7 7.22386 6.77614 7 6.5 7C6.22386 7 6 7.22386 6 7.5L6 15.5C6 15.7761 6.22386 16 6.5 16C6.77614 16 7 15.7761 7 15.5L7 7.5Z" fill="#FCFCFC"/>
<path d="M13.25 7C13.5261 7 13.75 7.22386 13.75 7.5V15.5C13.75 15.7761 13.5261 16 13.25 16C12.9739 16 12.75 15.7761 12.75 15.5V7.5C12.75 7.22386 12.9739 7 13.25 7Z" fill="#FCFCFC"/>
<path d="M10.5 7.5C10.5 7.22386 10.2761 7 10 7C9.72386 7 9.5 7.22386 9.5 7.5L9.5 15.5C9.5 15.7761 9.72386 16 10 16C10.2761 16 10.5 15.7761 10.5 15.5L10.5 7.5Z" fill="#FCFCFC"/>
<path fill-rule="evenodd" clip-rule="evenodd" d="M5 4C3.89543 4 3 4.89543 3 6V17C3 18.1046 3.89543 19 5 19H15C16.1046 19 17 18.1046 17 17V6C17 4.89543 16.1046 4 15 4H5ZM15 5H5C4.44772 5 4 5.44772 4 6V17C4 17.5523 4.44772 18 5 18H15C15.5523 18 16 17.5523 16 17V6C16 5.44772 15.5523 5 15 5Z" fill="#FCFCFC"/>
</svg>
