<svg width="20" height="20" viewBox="0 0 20 20" fill="none" xmlns="http://www.w3.org/2000/svg">
<path fill-rule="evenodd" clip-rule="evenodd" d="M10 4.85714C6.9267 4.85714 4.12926 6.42743 2.23766 8.98528C1.78741 9.5941 1.78741 10.4059 2.23766 11.0147C4.12926 13.5726 6.9267 15.1429 10 15.1429C13.0733 15.1429 15.8707 13.5726 17.7623 11.0147C18.2126 10.4059 18.2126 9.5941 17.7623 8.98528C15.8707 6.42743 13.0733 4.85714 10 4.85714ZM1.50187 8.4917C0.83271 9.39655 0.83271 10.6035 1.50187 11.5083C3.53204 14.2535 6.58544 16 10 16C13.4146 16 16.468 14.2535 18.4981 11.5083C19.1673 10.6035 19.1673 9.39655 18.4981 8.4917C16.468 5.74649 13.4146 4 10 4C6.58544 4 3.53204 5.74649 1.50187 8.4917Z" fill="#FCFCFC"/>
<path fill-rule="evenodd" clip-rule="evenodd" d="M9.99978 12.5714C11.4909 12.5714 12.6997 11.4202 12.6997 10C12.6997 8.57985 11.4909 7.42858 9.99978 7.42858C8.50865 7.42858 7.29985 8.57985 7.29985 10C7.29985 11.4202 8.50865 12.5714 9.99978 12.5714ZM9.99978 13.4286C11.9879 13.4286 13.5997 11.8936 13.5997 10C13.5997 8.10646 11.9879 6.57143 9.99978 6.57143C8.01161 6.57143 6.39987 8.10646 6.39987 10C6.39987 11.8936 8.01161 13.4286 9.99978 13.4286Z" fill="#FCFCFC"/>
</svg>
