<svg width="100%" height="100%" viewBox="0 0 200 200" fill="none" xmlns="http://www.w3.org/2000/svg">
<path fill-rule="evenodd" clip-rule="evenodd" d="M146.358 188.628C132.501 195.891 116.73 200 100 200C44.7715 200 0 155.228 0 100C0 44.7715 44.7715 0 100 0C116.73 0 132.501 4.10855 146.358 11.3717C120.35 32.1442 103.687 64.1261 103.687 100C103.687 135.874 120.35 167.856 146.358 188.628ZM181.348 41.8269C161.851 53.8034 148.848 75.3256 148.848 99.8848C148.848 124.492 161.902 146.05 181.462 158.013C193.134 141.653 200 121.628 200 100C200 78.301 193.089 58.2163 181.348 41.8269Z" fill="white"/>
</svg>
