<svg width="100%" height="100%" viewBox="0 0 211 189" fill="none" xmlns="http://www.w3.org/2000/svg">
<path d="M137.568 142.313C137.568 142.313 181.367 11.3653 182.715 7.99616C184.062 4.627 187.881 0.808641 190.801 0.808655H210.791L145.43 188.582H135.322C135.322 188.582 135.547 151.971 135.547 150.398C135.547 148.826 136.67 144.334 137.568 142.313Z" fill="#EB5757"/>
<path d="M75.3516 188.582H65.0195L32.5635 94.6953L0.107422 0.808594H20.0977C23.3971 1.04404 26.9942 4.67512 28.1836 8.44531C46.6038 63.5306 74.6777 147.029 74.6777 147.029C74.8154 147.249 75.3413 151.161 75.3516 154.441V188.582Z" fill="#EB5757"/>
<path d="M85.6834 143.211C84.785 140.74 63.2225 76.7266 63.2225 76.7266C62.5487 74.9297 62.5487 72.9082 62.9979 71.5605C63.4471 70.2129 64.7948 68.1914 67.7147 68.1914H144.306C146.103 68.1914 146.777 69.0898 147.9 70.4375C149.023 71.7852 149.34 74.0952 148.574 76.2773C148.574 76.2773 126.043 143.023 125.664 144.109C125.285 145.196 124.612 146.083 123.867 146.58C123.193 147.029 122.295 147.703 121.172 147.703H90.6248C87.9295 147.703 86.5819 145.682 85.6834 143.211Z" fill="#828282"/>
</svg>
