<svg width="100%" height="100%" viewBox="0 0 320 320" fill="none" xmlns="http://www.w3.org/2000/svg">
<g clip-path="url(#clip0)">
<path d="M35.8409 191V140.95H29.6809L29.6809 191H35.8409Z" fill="#FF3D00"/>
<path d="M131.955 191V190.3L117.885 170.28L117.255 169.79C124.185 169.44 130.835 163.35 130.835 155.3C130.835 146.13 123.975 140.95 116.485 140.95H96.1853L96.2553 191H102.415V170H110.325C111.865 172.1 125.515 191 125.515 191H131.955ZM125.025 155.37C125.025 160.55 120.545 164.47 115.995 164.47H102.415V146.34H115.925C120.545 146.34 125.025 149.7 125.025 155.37Z" fill="#FF3D00"/>
<path d="M197.773 191V140.95H191.613V191H197.773Z" fill="#FF3D00"/>
<path d="M293.748 176.51C293.748 168.74 288.638 165.52 283.458 163.84C281.638 163.28 279.328 162.79 277.018 162.37C275.198 162.02 273.098 161.67 271.418 161.18C267.708 160.06 262.388 158.45 262.388 154.18C262.388 149.07 267.358 145.57 275.128 145.57C280.308 145.57 285.348 147.53 289.828 151.17L292.838 146.55C287.938 142.35 281.568 140.04 275.128 140.04C267.428 140.04 256.438 143.19 256.438 154.32C256.438 163.35 264.978 166.5 272.888 167.83C274.148 168.18 275.618 168.39 277.158 168.6C282.198 169.51 287.798 170.98 287.798 176.51C287.798 183.51 279.538 185.96 273.728 185.96C269.108 185.96 264.068 183.93 258.958 180.57L256.438 185.54C261.898 189.46 267.638 191.56 274.078 191.56C281.148 191.56 293.748 188.62 293.748 176.51Z" fill="#FF3D00"/>
<rect width="7.77816" height="7.77816" transform="matrix(0.707106 -0.707108 0.707106 0.707108 189.001 125.501)" fill="#FF3D00"/>
</g>
<defs>
<radialGradient id="paint0_angular" cx="0" cy="0" r="1" gradientUnits="userSpaceOnUse" gradientTransform="translate(169 160.506) rotate(-38.2511) scale(54.1191 54.7182)">
<stop offset="0.0788968" stop-color="#1D1D1D"/>
<stop offset="0.19042" stop-color="#8F8F8F"/>
</radialGradient>
<clipPath id="clip0">
<rect width="320" height="320" fill="white"/>
</clipPath>
</defs>
</svg>
