<svg width="17" height="17" viewBox="0 0 17 17" fill="none" xmlns="http://www.w3.org/2000/svg">
<circle cx="8.5" cy="8.5" r="8" stroke="#333333"/>
<path d="M8.50016 16.5C8.32783 16.5 8.08407 16.3957 7.79001 16.0225C7.50038 15.655 7.2177 15.0923 6.97103 14.3523C6.47946 12.8776 6.16683 10.8084 6.16683 8.5C6.16683 6.19158 6.47946 4.12244 6.97104 2.64771C7.2177 1.90772 7.50038 1.34496 7.79001 0.977459C8.08407 0.604322 8.32783 0.5 8.50016 0.5C8.6725 0.5 8.91625 0.604322 9.21032 0.977459C9.49994 1.34496 9.78263 1.90772 10.0293 2.64771C10.5209 4.12244 10.8335 6.19158 10.8335 8.5C10.8335 10.8084 10.5209 12.8776 10.0293 14.3523C9.78263 15.0923 9.49994 15.655 9.21032 16.0225C8.91625 16.3957 8.6725 16.5 8.50016 16.5Z" stroke="#333333"/>
<line x1="1.14746" y1="6.81042" x2="15.8519" y2="6.81042" stroke="#333333" stroke-linecap="round"/>
<line x1="1.14746" y1="10.5883" x2="15.8519" y2="10.5883" stroke="#333333" stroke-linecap="round"/>
</svg>
