<svg width="20" height="20" viewBox="0 0 20 20" fill="none" xmlns="http://www.w3.org/2000/svg">
<path d="M7 11H2C1.44772 11 1 10.5523 1 10V2C1 1.44772 1.44772 1 2 1H18C18.5523 1 19 1.44772 19 2V10C19 10.5523 18.5523 11 18 11H13" stroke="black" stroke-linecap="round"/>
<path d="M10.5 5C10.5 4.72386 10.2761 4.5 10 4.5C9.72386 4.5 9.5 4.72386 9.5 5L10.5 5ZM9.64645 19.3536C9.84171 19.5488 10.1583 19.5488 10.3536 19.3536L13.5355 16.1716C13.7308 15.9763 13.7308 15.6597 13.5355 15.4645C13.3403 15.2692 13.0237 15.2692 12.8284 15.4645L10 18.2929L7.17157 15.4645C6.97631 15.2692 6.65973 15.2692 6.46447 15.4645C6.2692 15.6597 6.2692 15.9763 6.46447 16.1716L9.64645 19.3536ZM9.5 5L9.5 19L10.5 19L10.5 5L9.5 5Z" fill="black"/>
</svg>
